<svg width="169" height="137" viewBox="0 0 169 137" fill="none" xmlns="http://www.w3.org/2000/svg">
<g id="Group 54">
<path id="Vector" d="M168.481 54.7112C168.481 93.2443 136.246 124.483 96.4815 124.483C56.7166 124.483 24.4814 93.2443 24.4814 54.7112C24.4814 16.1782 64.0591 51.5136 96.4815 17.0295C134.614 -23.5261 168.481 16.1782 168.481 54.7112Z" fill="#D0E8FF"/>
<path id="Vector_2" d="M160.026 96.2676C156.403 97.7065 153.276 94.8754 150.242 92.7219C145.085 89.0617 139.927 85.4016 134.77 81.7414C131.079 79.122 133.577 67.9974 137.721 70.9372C139.236 72.0117 150.077 80.5358 155.508 83.8524C142.722 59.8486 120.058 47.6475 97.331 47.4089C70.7646 47.1308 30.6465 72.8099 12.3877 95.8697C-1.45477 102.107 11.0906 86.7328 12.5354 84.9077C32.4988 59.6962 70.4821 35.1658 99.2721 36.7755C122.792 38.0899 144.698 54.7181 156.3 80.3476C156.527 80.8506 157.009 82.5199 157.455 84.2874C157.643 78.2163 157.163 72.1133 157.451 66.0282C157.795 58.7754 164.354 60.0352 164.019 67.1302C163.701 73.8343 167.222 93.4104 160.026 96.2676Z" fill="#A176C8"/>
</g>
</svg>
