<svg width="549" height="240" viewBox="0 0 549 240" fill="none" xmlns="http://www.w3.org/2000/svg">
<g clip-path="url(#clip0_286_531)">
<rect x="7" y="5" width="535" height="228" fill="#D9D9D9" fill-opacity="0.39"/>
<rect x="30" y="32" width="140" height="50" fill="#044EFB"/>
<rect x="30" y="144" width="140" height="50" fill="#296BD2"/>
<rect x="205" y="144" width="140" height="50" fill="black"/>
<rect x="380" y="144" width="140" height="50" fill="white"/>
<rect x="205" y="32" width="140" height="50" fill="#2F88FF"/>
<rect x="380" y="32" width="140" height="50" fill="#010F20"/>
<path d="M123.66 88.08L122.364 96H121.188L122.484 88.08H123.66ZM124.236 92.94V93.972H117.288V92.94H124.236ZM120.768 88.08L119.472 96H118.296L119.58 88.08H120.768ZM124.752 90.096V91.14H117.804V90.096H124.752ZM128.855 96.12C127.839 96.12 127.055 95.776 126.503 95.088C125.959 94.4 125.687 93.384 125.687 92.04C125.687 90.696 125.959 89.68 126.503 88.992C127.055 88.304 127.839 87.96 128.855 87.96C129.871 87.96 130.651 88.304 131.195 88.992C131.747 89.68 132.023 90.696 132.023 92.04C132.023 93.384 131.747 94.4 131.195 95.088C130.651 95.776 129.871 96.12 128.855 96.12ZM128.855 94.788C129.199 94.788 129.479 94.692 129.695 94.5C129.919 94.3 130.087 94 130.199 93.6C130.311 93.192 130.367 92.672 130.367 92.04C130.367 91.408 130.311 90.892 130.199 90.492C130.087 90.084 129.919 89.784 129.695 89.592C129.479 89.392 129.199 89.292 128.855 89.292C128.511 89.292 128.227 89.392 128.003 89.592C127.779 89.784 127.611 90.084 127.499 90.492C127.395 90.892 127.343 91.408 127.343 92.04C127.343 92.672 127.395 93.192 127.499 93.6C127.611 94 127.779 94.3 128.003 94.5C128.227 94.692 128.511 94.788 128.855 94.788ZM137.06 96V94.14H133.196V93.06C133.236 92.98 133.292 92.884 133.364 92.772C133.444 92.652 133.532 92.516 133.628 92.364L136.58 88.08H138.56V92.94H139.844V94.14H138.56V96H137.06ZM134.612 92.94H137.072V90.324C137.072 90.156 137.076 89.976 137.084 89.784C137.092 89.592 137.1 89.404 137.108 89.22H137.084C136.996 89.396 136.888 89.588 136.76 89.796C136.64 89.996 136.528 90.176 136.424 90.336L134.768 92.712C134.744 92.752 134.716 92.792 134.684 92.832C134.66 92.864 134.636 92.9 134.612 92.94ZM144.654 96V94.14H140.79V93.06C140.83 92.98 140.886 92.884 140.958 92.772C141.038 92.652 141.126 92.516 141.222 92.364L144.174 88.08H146.154V92.94H147.438V94.14H146.154V96H144.654ZM142.206 92.94H144.666V90.324C144.666 90.156 144.67 89.976 144.678 89.784C144.686 89.592 144.694 89.404 144.702 89.22H144.678C144.59 89.396 144.482 89.588 144.354 89.796C144.234 89.996 144.122 90.176 144.018 90.336L142.362 92.712C142.338 92.752 142.31 92.792 142.278 92.832C142.254 92.864 142.23 92.9 142.206 92.94ZM148.887 96V88.08H154.827V89.412H150.543V91.38H153.915V92.652H150.543V94.668H154.995V96H148.887ZM162.409 89.412H158.137V91.428H161.509V92.76H158.137V96H156.481V88.08H162.409V89.412ZM163.829 96V88.08H167.297C168.257 88.08 168.965 88.268 169.421 88.644C169.877 89.02 170.105 89.552 170.105 90.24C170.105 90.664 169.977 91.04 169.721 91.368C169.465 91.696 169.089 91.904 168.593 91.992V92.004C169.145 92.084 169.569 92.292 169.865 92.628C170.161 92.964 170.309 93.364 170.309 93.828C170.309 94.508 170.061 95.04 169.565 95.424C169.077 95.808 168.361 96 167.417 96H163.829ZM165.437 94.752H167.273C167.721 94.752 168.053 94.66 168.269 94.476C168.485 94.292 168.593 94.036 168.593 93.708C168.593 93.372 168.485 93.116 168.269 92.94C168.053 92.764 167.721 92.676 167.273 92.676H165.437V94.752ZM165.437 91.404H167.081C167.953 91.404 168.389 91.064 168.389 90.384C168.389 89.704 167.953 89.364 167.081 89.364H165.437V91.404Z" fill="black"/>
<path d="M293.66 88.08L292.364 96H291.188L292.484 88.08H293.66ZM294.236 92.94V93.972H287.288V92.94H294.236ZM290.768 88.08L289.472 96H288.296L289.58 88.08H290.768ZM294.752 90.096V91.14H287.804V90.096H294.752ZM295.819 96V94.884C296.539 94.396 297.147 93.956 297.643 93.564C298.147 93.164 298.551 92.796 298.855 92.46C299.167 92.116 299.391 91.792 299.527 91.488C299.671 91.184 299.743 90.88 299.743 90.576C299.743 90.208 299.631 89.908 299.407 89.676C299.183 89.436 298.867 89.316 298.459 89.316C298.011 89.316 297.659 89.468 297.403 89.772C297.155 90.076 297.019 90.508 296.995 91.068L295.567 90.528C295.607 89.984 295.751 89.524 295.999 89.148C296.255 88.764 296.599 88.472 297.031 88.272C297.471 88.064 297.975 87.96 298.543 87.96C299.031 87.96 299.451 88.028 299.803 88.164C300.163 88.3 300.459 88.488 300.691 88.728C300.931 88.96 301.111 89.228 301.231 89.532C301.351 89.836 301.411 90.152 301.411 90.48C301.411 90.992 301.283 91.476 301.027 91.932C300.779 92.388 300.395 92.84 299.875 93.288C299.355 93.736 298.695 94.208 297.895 94.704V94.716C298.015 94.708 298.159 94.7 298.327 94.692C298.503 94.684 298.683 94.68 298.867 94.68C299.051 94.672 299.211 94.668 299.347 94.668H301.531V96H295.819ZM309.089 89.412H304.817V91.428H308.189V92.76H304.817V96H303.161V88.08H309.089V89.412ZM313.209 87.984C313.777 87.984 314.269 88.072 314.685 88.248C315.109 88.416 315.433 88.66 315.657 88.98C315.889 89.292 316.005 89.672 316.005 90.12C316.005 90.536 315.901 90.896 315.693 91.2C315.493 91.504 315.201 91.736 314.817 91.896V91.908C315.281 92.076 315.645 92.32 315.909 92.64C316.173 92.96 316.305 93.364 316.305 93.852C316.305 94.316 316.177 94.716 315.921 95.052C315.673 95.388 315.317 95.652 314.853 95.844C314.397 96.028 313.849 96.12 313.209 96.12C312.577 96.12 312.029 96.028 311.565 95.844C311.109 95.652 310.753 95.388 310.497 95.052C310.249 94.716 310.125 94.316 310.125 93.852C310.125 93.372 310.257 92.972 310.521 92.652C310.785 92.324 311.153 92.076 311.625 91.908V91.896C311.241 91.744 310.945 91.516 310.737 91.212C310.529 90.9 310.425 90.536 310.425 90.12C310.425 89.672 310.537 89.292 310.761 88.98C310.993 88.66 311.321 88.416 311.745 88.248C312.169 88.072 312.657 87.984 313.209 87.984ZM313.221 89.256C312.845 89.256 312.545 89.348 312.321 89.532C312.097 89.716 311.985 89.972 311.985 90.3C311.985 90.628 312.097 90.884 312.321 91.068C312.545 91.252 312.845 91.344 313.221 91.344C313.589 91.344 313.881 91.252 314.097 91.068C314.321 90.884 314.433 90.628 314.433 90.3C314.433 89.972 314.325 89.716 314.109 89.532C313.893 89.348 313.597 89.256 313.221 89.256ZM313.221 94.836C313.525 94.836 313.785 94.792 314.001 94.704C314.217 94.616 314.381 94.484 314.493 94.308C314.613 94.132 314.673 93.924 314.673 93.684C314.673 93.444 314.613 93.236 314.493 93.06C314.381 92.884 314.213 92.752 313.989 92.664C313.773 92.568 313.517 92.52 313.221 92.52C312.925 92.52 312.665 92.568 312.441 92.664C312.217 92.752 312.045 92.884 311.925 93.06C311.805 93.236 311.745 93.444 311.745 93.684C311.745 93.924 311.805 94.132 311.925 94.308C312.045 94.484 312.213 94.616 312.429 94.704C312.653 94.792 312.917 94.836 313.221 94.836ZM320.685 87.984C321.253 87.984 321.745 88.072 322.161 88.248C322.585 88.416 322.909 88.66 323.133 88.98C323.365 89.292 323.481 89.672 323.481 90.12C323.481 90.536 323.377 90.896 323.169 91.2C322.969 91.504 322.677 91.736 322.293 91.896V91.908C322.757 92.076 323.121 92.32 323.385 92.64C323.649 92.96 323.781 93.364 323.781 93.852C323.781 94.316 323.653 94.716 323.397 95.052C323.149 95.388 322.793 95.652 322.329 95.844C321.873 96.028 321.325 96.12 320.685 96.12C320.053 96.12 319.505 96.028 319.041 95.844C318.585 95.652 318.229 95.388 317.973 95.052C317.725 94.716 317.601 94.316 317.601 93.852C317.601 93.372 317.733 92.972 317.997 92.652C318.261 92.324 318.629 92.076 319.101 91.908V91.896C318.717 91.744 318.421 91.516 318.213 91.212C318.005 90.9 317.901 90.536 317.901 90.12C317.901 89.672 318.013 89.292 318.237 88.98C318.469 88.66 318.797 88.416 319.221 88.248C319.645 88.072 320.133 87.984 320.685 87.984ZM320.697 89.256C320.321 89.256 320.021 89.348 319.797 89.532C319.573 89.716 319.461 89.972 319.461 90.3C319.461 90.628 319.573 90.884 319.797 91.068C320.021 91.252 320.321 91.344 320.697 91.344C321.065 91.344 321.357 91.252 321.573 91.068C321.797 90.884 321.909 90.628 321.909 90.3C321.909 89.972 321.801 89.716 321.585 89.532C321.369 89.348 321.073 89.256 320.697 89.256ZM320.697 94.836C321.001 94.836 321.261 94.792 321.477 94.704C321.693 94.616 321.857 94.484 321.969 94.308C322.089 94.132 322.149 93.924 322.149 93.684C322.149 93.444 322.089 93.236 321.969 93.06C321.857 92.884 321.689 92.752 321.465 92.664C321.249 92.568 320.993 92.52 320.697 92.52C320.401 92.52 320.141 92.568 319.917 92.664C319.693 92.752 319.521 92.884 319.401 93.06C319.281 93.236 319.221 93.444 319.221 93.684C319.221 93.924 319.281 94.132 319.401 94.308C319.521 94.484 319.689 94.616 319.905 94.704C320.129 94.792 320.393 94.836 320.697 94.836ZM331.39 89.412H327.118V91.428H330.49V92.76H327.118V96H325.462V88.08H331.39V89.412ZM338.737 89.412H334.465V91.428H337.837V92.76H334.465V96H332.809V88.08H338.737V89.412Z" fill="black"/>
<path d="M474.66 88.08L473.364 96H472.188L473.484 88.08H474.66ZM475.236 92.94V93.972H468.288V92.94H475.236ZM471.768 88.08L470.472 96H469.296L470.58 88.08H471.768ZM475.752 90.096V91.14H468.804V90.096H475.752ZM479.855 96.12C478.839 96.12 478.055 95.776 477.503 95.088C476.959 94.4 476.687 93.384 476.687 92.04C476.687 90.696 476.959 89.68 477.503 88.992C478.055 88.304 478.839 87.96 479.855 87.96C480.871 87.96 481.651 88.304 482.195 88.992C482.747 89.68 483.023 90.696 483.023 92.04C483.023 93.384 482.747 94.4 482.195 95.088C481.651 95.776 480.871 96.12 479.855 96.12ZM479.855 94.788C480.199 94.788 480.479 94.692 480.695 94.5C480.919 94.3 481.087 94 481.199 93.6C481.311 93.192 481.367 92.672 481.367 92.04C481.367 91.408 481.311 90.892 481.199 90.492C481.087 90.084 480.919 89.784 480.695 89.592C480.479 89.392 480.199 89.292 479.855 89.292C479.511 89.292 479.227 89.392 479.003 89.592C478.779 89.784 478.611 90.084 478.499 90.492C478.395 90.892 478.343 91.408 478.343 92.04C478.343 92.672 478.395 93.192 478.499 93.6C478.611 94 478.779 94.3 479.003 94.5C479.227 94.692 479.511 94.788 479.855 94.788ZM486.032 96V90.984C486.032 90.8 486.032 90.612 486.032 90.42C486.04 90.22 486.048 90.016 486.056 89.808C485.784 90.056 485.48 90.272 485.144 90.456C484.808 90.64 484.464 90.768 484.112 90.84L483.896 89.448C484.08 89.432 484.284 89.38 484.508 89.292C484.74 89.196 484.972 89.084 485.204 88.956C485.444 88.82 485.66 88.68 485.852 88.536C486.052 88.384 486.204 88.232 486.308 88.08H487.652V96H486.032ZM492.476 96.12C491.46 96.12 490.676 95.776 490.124 95.088C489.58 94.4 489.308 93.384 489.308 92.04C489.308 90.696 489.58 89.68 490.124 88.992C490.676 88.304 491.46 87.96 492.476 87.96C493.492 87.96 494.272 88.304 494.816 88.992C495.368 89.68 495.644 90.696 495.644 92.04C495.644 93.384 495.368 94.4 494.816 95.088C494.272 95.776 493.492 96.12 492.476 96.12ZM492.476 94.788C492.82 94.788 493.1 94.692 493.316 94.5C493.54 94.3 493.708 94 493.82 93.6C493.932 93.192 493.988 92.672 493.988 92.04C493.988 91.408 493.932 90.892 493.82 90.492C493.708 90.084 493.54 89.784 493.316 89.592C493.1 89.392 492.82 89.292 492.476 89.292C492.132 89.292 491.848 89.392 491.624 89.592C491.4 89.784 491.232 90.084 491.12 90.492C491.016 90.892 490.964 91.408 490.964 92.04C490.964 92.672 491.016 93.192 491.12 93.6C491.232 94 491.4 94.3 491.624 94.5C491.848 94.692 492.132 94.788 492.476 94.788ZM503.249 89.412H498.977V91.428H502.349V92.76H498.977V96H497.321V88.08H503.249V89.412ZM504.417 96V94.884C505.137 94.396 505.745 93.956 506.241 93.564C506.745 93.164 507.149 92.796 507.453 92.46C507.765 92.116 507.989 91.792 508.125 91.488C508.269 91.184 508.341 90.88 508.341 90.576C508.341 90.208 508.229 89.908 508.005 89.676C507.781 89.436 507.465 89.316 507.057 89.316C506.609 89.316 506.257 89.468 506.001 89.772C505.753 90.076 505.617 90.508 505.593 91.068L504.165 90.528C504.205 89.984 504.349 89.524 504.597 89.148C504.853 88.764 505.197 88.472 505.629 88.272C506.069 88.064 506.573 87.96 507.141 87.96C507.629 87.96 508.049 88.028 508.401 88.164C508.761 88.3 509.057 88.488 509.289 88.728C509.529 88.96 509.709 89.228 509.829 89.532C509.949 89.836 510.009 90.152 510.009 90.48C510.009 90.992 509.881 91.476 509.625 91.932C509.377 92.388 508.993 92.84 508.473 93.288C507.953 93.736 507.293 94.208 506.493 94.704V94.716C506.613 94.708 506.757 94.7 506.925 94.692C507.101 94.684 507.281 94.68 507.465 94.68C507.649 94.672 507.809 94.668 507.945 94.668H510.129V96H504.417ZM514.543 96.12C513.527 96.12 512.743 95.776 512.191 95.088C511.647 94.4 511.375 93.384 511.375 92.04C511.375 90.696 511.647 89.68 512.191 88.992C512.743 88.304 513.527 87.96 514.543 87.96C515.559 87.96 516.339 88.304 516.883 88.992C517.435 89.68 517.711 90.696 517.711 92.04C517.711 93.384 517.435 94.4 516.883 95.088C516.339 95.776 515.559 96.12 514.543 96.12ZM514.543 94.788C514.887 94.788 515.167 94.692 515.383 94.5C515.607 94.3 515.775 94 515.887 93.6C515.999 93.192 516.055 92.672 516.055 92.04C516.055 91.408 515.999 90.892 515.887 90.492C515.775 90.084 515.607 89.784 515.383 89.592C515.167 89.392 514.887 89.292 514.543 89.292C514.199 89.292 513.915 89.392 513.691 89.592C513.467 89.784 513.299 90.084 513.187 90.492C513.083 90.892 513.031 91.408 513.031 92.04C513.031 92.672 513.083 93.192 513.187 93.6C513.299 94 513.467 94.3 513.691 94.5C513.915 94.692 514.199 94.788 514.543 94.788Z" fill="black"/>
<path d="M116.66 201.08L115.364 209H114.188L115.484 201.08H116.66ZM117.236 205.94V206.972H110.288V205.94H117.236ZM113.768 201.08L112.472 209H111.296L112.58 201.08H113.768ZM117.752 203.096V204.14H110.804V203.096H117.752ZM118.819 209V207.884C119.539 207.396 120.147 206.956 120.643 206.564C121.147 206.164 121.551 205.796 121.855 205.46C122.167 205.116 122.391 204.792 122.527 204.488C122.671 204.184 122.743 203.88 122.743 203.576C122.743 203.208 122.631 202.908 122.407 202.676C122.183 202.436 121.867 202.316 121.459 202.316C121.011 202.316 120.659 202.468 120.403 202.772C120.155 203.076 120.019 203.508 119.995 204.068L118.567 203.528C118.607 202.984 118.751 202.524 118.999 202.148C119.255 201.764 119.599 201.472 120.031 201.272C120.471 201.064 120.975 200.96 121.543 200.96C122.031 200.96 122.451 201.028 122.803 201.164C123.163 201.3 123.459 201.488 123.691 201.728C123.931 201.96 124.111 202.228 124.231 202.532C124.351 202.836 124.411 203.152 124.411 203.48C124.411 203.992 124.283 204.476 124.027 204.932C123.779 205.388 123.395 205.84 122.875 206.288C122.355 206.736 121.695 207.208 120.895 207.704V207.716C121.015 207.708 121.159 207.7 121.327 207.692C121.503 207.684 121.683 207.68 121.867 207.68C122.051 207.672 122.211 207.668 122.347 207.668H124.531V209H118.819ZM128.657 200.96C129.361 200.96 129.953 201.124 130.433 201.452C130.913 201.772 131.273 202.236 131.513 202.844C131.761 203.444 131.885 204.168 131.885 205.016C131.885 205.952 131.753 206.724 131.489 207.332C131.225 207.932 130.849 208.38 130.361 208.676C129.881 208.972 129.317 209.12 128.669 209.12C127.989 209.12 127.401 208.976 126.905 208.688C126.417 208.4 126.049 207.96 125.801 207.368L127.325 206.72C127.413 207.048 127.565 207.312 127.781 207.512C128.005 207.704 128.313 207.8 128.705 207.8C129.017 207.8 129.281 207.74 129.497 207.62C129.713 207.492 129.885 207.312 130.013 207.08C130.149 206.848 130.245 206.564 130.301 206.228C130.365 205.892 130.397 205.516 130.397 205.1C130.397 205.068 130.397 205.04 130.397 205.016C130.397 204.992 130.397 204.964 130.397 204.932H130.349C130.261 205.212 130.109 205.444 129.893 205.628C129.685 205.804 129.445 205.936 129.173 206.024C128.901 206.104 128.621 206.144 128.333 206.144C127.829 206.144 127.381 206.044 126.989 205.844C126.605 205.636 126.301 205.348 126.077 204.98C125.853 204.604 125.741 204.168 125.741 203.672C125.741 203.112 125.861 202.632 126.101 202.232C126.341 201.824 126.677 201.512 127.109 201.296C127.549 201.072 128.065 200.96 128.657 200.96ZM128.669 202.304C128.245 202.304 127.913 202.424 127.673 202.664C127.433 202.896 127.313 203.224 127.313 203.648C127.313 204.024 127.437 204.32 127.685 204.536C127.933 204.744 128.261 204.848 128.669 204.848C128.933 204.848 129.165 204.796 129.365 204.692C129.573 204.588 129.733 204.44 129.845 204.248C129.957 204.056 130.013 203.836 130.013 203.588C130.013 203.324 129.957 203.096 129.845 202.904C129.733 202.712 129.573 202.564 129.365 202.46C129.165 202.356 128.933 202.304 128.669 202.304ZM136.555 200.96C136.979 200.96 137.363 201.02 137.707 201.14C138.051 201.252 138.351 201.436 138.607 201.692C138.871 201.94 139.075 202.272 139.219 202.688L137.827 203.336C137.731 203.024 137.571 202.78 137.347 202.604C137.131 202.42 136.831 202.328 136.447 202.328C136.175 202.328 135.931 202.392 135.715 202.52C135.507 202.648 135.327 202.832 135.175 203.072C135.023 203.312 134.907 203.6 134.827 203.936C134.747 204.264 134.707 204.628 134.707 205.028C134.707 205.052 134.707 205.08 134.707 205.112C134.707 205.136 134.707 205.176 134.707 205.232L134.743 205.28C134.831 205 134.983 204.768 135.199 204.584C135.423 204.4 135.671 204.264 135.943 204.176C136.223 204.088 136.499 204.044 136.771 204.044C137.275 204.044 137.719 204.144 138.103 204.344C138.495 204.536 138.799 204.816 139.015 205.184C139.239 205.552 139.351 205.992 139.351 206.504C139.351 207.032 139.231 207.496 138.991 207.896C138.759 208.288 138.427 208.592 137.995 208.808C137.571 209.016 137.063 209.12 136.471 209.12C135.799 209.12 135.215 208.96 134.719 208.64C134.231 208.32 133.851 207.86 133.579 207.26C133.315 206.66 133.183 205.936 133.183 205.088C133.183 204.168 133.331 203.404 133.627 202.796C133.923 202.18 134.327 201.72 134.839 201.416C135.351 201.112 135.923 200.96 136.555 200.96ZM136.447 205.256C136.183 205.256 135.951 205.312 135.751 205.424C135.551 205.528 135.391 205.676 135.271 205.868C135.151 206.052 135.091 206.268 135.091 206.516C135.091 206.764 135.151 206.984 135.271 207.176C135.399 207.368 135.563 207.52 135.763 207.632C135.971 207.744 136.199 207.8 136.447 207.8C136.871 207.8 137.199 207.688 137.431 207.464C137.671 207.24 137.791 206.924 137.791 206.516C137.791 206.26 137.739 206.036 137.635 205.844C137.531 205.652 137.379 205.508 137.179 205.412C136.979 205.308 136.735 205.256 136.447 205.256ZM140.927 209V201.08H144.395C145.355 201.08 146.063 201.268 146.519 201.644C146.975 202.02 147.203 202.552 147.203 203.24C147.203 203.664 147.075 204.04 146.819 204.368C146.563 204.696 146.187 204.904 145.691 204.992V205.004C146.243 205.084 146.667 205.292 146.963 205.628C147.259 205.964 147.407 206.364 147.407 206.828C147.407 207.508 147.159 208.04 146.663 208.424C146.175 208.808 145.459 209 144.515 209H140.927ZM142.535 207.752H144.371C144.819 207.752 145.151 207.66 145.367 207.476C145.583 207.292 145.691 207.036 145.691 206.708C145.691 206.372 145.583 206.116 145.367 205.94C145.151 205.764 144.819 205.676 144.371 205.676H142.535V207.752ZM142.535 204.404H144.179C145.051 204.404 145.487 204.064 145.487 203.384C145.487 202.704 145.051 202.364 144.179 202.364H142.535V204.404ZM152.049 201.08C153.289 201.08 154.249 201.424 154.929 202.112C155.609 202.792 155.949 203.768 155.949 205.04C155.949 206.304 155.609 207.28 154.929 207.968C154.249 208.656 153.289 209 152.049 209H148.989V201.08H152.049ZM151.965 207.68C152.717 207.68 153.281 207.456 153.657 207.008C154.041 206.552 154.233 205.896 154.233 205.04C154.233 204.184 154.041 203.532 153.657 203.084C153.281 202.628 152.717 202.4 151.965 202.4H150.645V207.68H151.965ZM157.362 209V207.884C158.082 207.396 158.69 206.956 159.186 206.564C159.69 206.164 160.094 205.796 160.398 205.46C160.71 205.116 160.934 204.792 161.07 204.488C161.214 204.184 161.286 203.88 161.286 203.576C161.286 203.208 161.174 202.908 160.95 202.676C160.726 202.436 160.41 202.316 160.002 202.316C159.554 202.316 159.202 202.468 158.946 202.772C158.698 203.076 158.562 203.508 158.538 204.068L157.11 203.528C157.15 202.984 157.294 202.524 157.542 202.148C157.798 201.764 158.142 201.472 158.574 201.272C159.014 201.064 159.518 200.96 160.086 200.96C160.574 200.96 160.994 201.028 161.346 201.164C161.706 201.3 162.002 201.488 162.234 201.728C162.474 201.96 162.654 202.228 162.774 202.532C162.894 202.836 162.954 203.152 162.954 203.48C162.954 203.992 162.826 204.476 162.57 204.932C162.322 205.388 161.938 205.84 161.418 206.288C160.898 206.736 160.238 207.208 159.438 207.704V207.716C159.558 207.708 159.702 207.7 159.87 207.692C160.046 207.684 160.226 207.68 160.41 207.68C160.594 207.672 160.754 207.668 160.89 207.668H163.074V209H157.362Z" fill="black"/>
<path d="M293.66 201.08L292.364 209H291.188L292.484 201.08H293.66ZM294.236 205.94V206.972H287.288V205.94H294.236ZM290.768 201.08L289.472 209H288.296L289.58 201.08H290.768ZM294.752 203.096V204.14H287.804V203.096H294.752ZM298.855 209.12C297.839 209.12 297.055 208.776 296.503 208.088C295.959 207.4 295.687 206.384 295.687 205.04C295.687 203.696 295.959 202.68 296.503 201.992C297.055 201.304 297.839 200.96 298.855 200.96C299.871 200.96 300.651 201.304 301.195 201.992C301.747 202.68 302.023 203.696 302.023 205.04C302.023 206.384 301.747 207.4 301.195 208.088C300.651 208.776 299.871 209.12 298.855 209.12ZM298.855 207.788C299.199 207.788 299.479 207.692 299.695 207.5C299.919 207.3 300.087 207 300.199 206.6C300.311 206.192 300.367 205.672 300.367 205.04C300.367 204.408 300.311 203.892 300.199 203.492C300.087 203.084 299.919 202.784 299.695 202.592C299.479 202.392 299.199 202.292 298.855 202.292C298.511 202.292 298.227 202.392 298.003 202.592C297.779 202.784 297.611 203.084 297.499 203.492C297.395 203.892 297.343 204.408 297.343 205.04C297.343 205.672 297.395 206.192 297.499 206.6C297.611 207 297.779 207.3 298.003 207.5C298.227 207.692 298.511 207.788 298.855 207.788ZM306.484 209.12C305.468 209.12 304.684 208.776 304.132 208.088C303.588 207.4 303.316 206.384 303.316 205.04C303.316 203.696 303.588 202.68 304.132 201.992C304.684 201.304 305.468 200.96 306.484 200.96C307.5 200.96 308.28 201.304 308.824 201.992C309.376 202.68 309.652 203.696 309.652 205.04C309.652 206.384 309.376 207.4 308.824 208.088C308.28 208.776 307.5 209.12 306.484 209.12ZM306.484 207.788C306.828 207.788 307.108 207.692 307.324 207.5C307.548 207.3 307.716 207 307.828 206.6C307.94 206.192 307.996 205.672 307.996 205.04C307.996 204.408 307.94 203.892 307.828 203.492C307.716 203.084 307.548 202.784 307.324 202.592C307.108 202.392 306.828 202.292 306.484 202.292C306.14 202.292 305.856 202.392 305.632 202.592C305.408 202.784 305.24 203.084 305.128 203.492C305.024 203.892 304.972 204.408 304.972 205.04C304.972 205.672 305.024 206.192 305.128 206.6C305.24 207 305.408 207.3 305.632 207.5C305.856 207.692 306.14 207.788 306.484 207.788ZM314.113 209.12C313.097 209.12 312.313 208.776 311.761 208.088C311.217 207.4 310.945 206.384 310.945 205.04C310.945 203.696 311.217 202.68 311.761 201.992C312.313 201.304 313.097 200.96 314.113 200.96C315.129 200.96 315.909 201.304 316.453 201.992C317.005 202.68 317.281 203.696 317.281 205.04C317.281 206.384 317.005 207.4 316.453 208.088C315.909 208.776 315.129 209.12 314.113 209.12ZM314.113 207.788C314.457 207.788 314.737 207.692 314.953 207.5C315.177 207.3 315.345 207 315.457 206.6C315.569 206.192 315.625 205.672 315.625 205.04C315.625 204.408 315.569 203.892 315.457 203.492C315.345 203.084 315.177 202.784 314.953 202.592C314.737 202.392 314.457 202.292 314.113 202.292C313.769 202.292 313.485 202.392 313.261 202.592C313.037 202.784 312.869 203.084 312.757 203.492C312.653 203.892 312.601 204.408 312.601 205.04C312.601 205.672 312.653 206.192 312.757 206.6C312.869 207 313.037 207.3 313.261 207.5C313.485 207.692 313.769 207.788 314.113 207.788ZM321.742 209.12C320.726 209.12 319.942 208.776 319.39 208.088C318.846 207.4 318.574 206.384 318.574 205.04C318.574 203.696 318.846 202.68 319.39 201.992C319.942 201.304 320.726 200.96 321.742 200.96C322.758 200.96 323.538 201.304 324.082 201.992C324.634 202.68 324.91 203.696 324.91 205.04C324.91 206.384 324.634 207.4 324.082 208.088C323.538 208.776 322.758 209.12 321.742 209.12ZM321.742 207.788C322.086 207.788 322.366 207.692 322.582 207.5C322.806 207.3 322.974 207 323.086 206.6C323.198 206.192 323.254 205.672 323.254 205.04C323.254 204.408 323.198 203.892 323.086 203.492C322.974 203.084 322.806 202.784 322.582 202.592C322.366 202.392 322.086 202.292 321.742 202.292C321.398 202.292 321.114 202.392 320.89 202.592C320.666 202.784 320.498 203.084 320.386 203.492C320.282 203.892 320.23 204.408 320.23 205.04C320.23 205.672 320.282 206.192 320.386 206.6C320.498 207 320.666 207.3 320.89 207.5C321.114 207.692 321.398 207.788 321.742 207.788ZM329.371 209.12C328.355 209.12 327.571 208.776 327.019 208.088C326.475 207.4 326.203 206.384 326.203 205.04C326.203 203.696 326.475 202.68 327.019 201.992C327.571 201.304 328.355 200.96 329.371 200.96C330.387 200.96 331.167 201.304 331.711 201.992C332.263 202.68 332.539 203.696 332.539 205.04C332.539 206.384 332.263 207.4 331.711 208.088C331.167 208.776 330.387 209.12 329.371 209.12ZM329.371 207.788C329.715 207.788 329.995 207.692 330.211 207.5C330.435 207.3 330.603 207 330.715 206.6C330.827 206.192 330.883 205.672 330.883 205.04C330.883 204.408 330.827 203.892 330.715 203.492C330.603 203.084 330.435 202.784 330.211 202.592C329.995 202.392 329.715 202.292 329.371 202.292C329.027 202.292 328.743 202.392 328.519 202.592C328.295 202.784 328.127 203.084 328.015 203.492C327.911 203.892 327.859 204.408 327.859 205.04C327.859 205.672 327.911 206.192 328.015 206.6C328.127 207 328.295 207.3 328.519 207.5C328.743 207.692 329.027 207.788 329.371 207.788ZM337 209.12C335.984 209.12 335.2 208.776 334.648 208.088C334.104 207.4 333.832 206.384 333.832 205.04C333.832 203.696 334.104 202.68 334.648 201.992C335.2 201.304 335.984 200.96 337 200.96C338.016 200.96 338.796 201.304 339.34 201.992C339.892 202.68 340.168 203.696 340.168 205.04C340.168 206.384 339.892 207.4 339.34 208.088C338.796 208.776 338.016 209.12 337 209.12ZM337 207.788C337.344 207.788 337.624 207.692 337.84 207.5C338.064 207.3 338.232 207 338.344 206.6C338.456 206.192 338.512 205.672 338.512 205.04C338.512 204.408 338.456 203.892 338.344 203.492C338.232 203.084 338.064 202.784 337.84 202.592C337.624 202.392 337.344 202.292 337 202.292C336.656 202.292 336.372 202.392 336.148 202.592C335.924 202.784 335.756 203.084 335.644 203.492C335.54 203.892 335.488 204.408 335.488 205.04C335.488 205.672 335.54 206.192 335.644 206.6C335.756 207 335.924 207.3 336.148 207.5C336.372 207.692 336.656 207.788 337 207.788Z" fill="black"/>
<path d="M469.66 201.08L468.364 209H467.188L468.484 201.08H469.66ZM470.236 205.94V206.972H463.288V205.94H470.236ZM466.768 201.08L465.472 209H464.296L465.58 201.08H466.768ZM470.752 203.096V204.14H463.804V203.096H470.752ZM477.999 202.412H473.727V204.428H477.099V205.76H473.727V209H472.071V201.08H477.999V202.412ZM485.347 202.412H481.075V204.428H484.447V205.76H481.075V209H479.419V201.08H485.347V202.412ZM492.694 202.412H488.422V204.428H491.794V205.76H488.422V209H486.766V201.08H492.694V202.412ZM500.042 202.412H495.77V204.428H499.142V205.76H495.77V209H494.114V201.08H500.042V202.412ZM507.39 202.412H503.118V204.428H506.49V205.76H503.118V209H501.462V201.08H507.39V202.412ZM514.737 202.412H510.465V204.428H513.837V205.76H510.465V209H508.809V201.08H514.737V202.412Z" fill="black"/>
<path d="M34.512 88.08C35.16 88.08 35.712 88.184 36.168 88.392C36.624 88.6 36.972 88.9 37.212 89.292C37.452 89.684 37.572 90.16 37.572 90.72C37.572 91.28 37.452 91.756 37.212 92.148C36.972 92.54 36.624 92.84 36.168 93.048C35.712 93.256 35.16 93.36 34.512 93.36H32.94V96H30.876V88.08H34.512ZM34.188 91.812C34.62 91.812 34.944 91.724 35.16 91.548C35.384 91.364 35.496 91.088 35.496 90.72C35.496 90.352 35.384 90.08 35.16 89.904C34.944 89.72 34.62 89.628 34.188 89.628H32.94V91.812H34.188ZM38.7476 96V90H40.5476L40.6316 91.296C40.7836 90.848 41.0076 90.5 41.3036 90.252C41.6076 90.004 41.9916 89.88 42.4556 89.88C42.6076 89.88 42.7356 89.892 42.8396 89.916C42.9516 89.94 43.0396 89.972 43.1036 90.012L42.8996 91.692C42.8196 91.66 42.7156 91.636 42.5876 91.62C42.4676 91.596 42.3196 91.584 42.1436 91.584C41.9036 91.584 41.6796 91.636 41.4716 91.74C41.2636 91.844 41.0956 92 40.9676 92.208C40.8476 92.408 40.7876 92.664 40.7876 92.976V96H38.7476ZM44.9239 89.304C44.5079 89.304 44.2039 89.228 44.0119 89.076C43.8279 88.916 43.7359 88.668 43.7359 88.332C43.7359 87.988 43.8279 87.74 44.0119 87.588C44.2039 87.428 44.5079 87.348 44.9239 87.348C45.3319 87.348 45.6319 87.428 45.8239 87.588C46.0159 87.74 46.1119 87.988 46.1119 88.332C46.1119 88.668 46.0159 88.916 45.8239 89.076C45.6319 89.228 45.3319 89.304 44.9239 89.304ZM45.9439 90V96H43.9039V90H45.9439ZM47.3961 96V90H49.2201L49.2801 91.164C49.4721 90.74 49.7401 90.42 50.0841 90.204C50.4361 89.988 50.8401 89.88 51.2961 89.88C51.7441 89.88 52.1321 89.98 52.4601 90.18C52.7881 90.38 53.0321 90.676 53.1921 91.068C53.3201 90.804 53.4841 90.584 53.6841 90.408C53.8921 90.232 54.1281 90.1 54.3921 90.012C54.6561 89.924 54.9281 89.88 55.2081 89.88C55.6081 89.88 55.9601 89.96 56.2641 90.12C56.5681 90.272 56.8081 90.508 56.9841 90.828C57.1681 91.14 57.2601 91.532 57.2601 92.004V96H55.2201V92.472C55.2201 92.088 55.1441 91.82 54.9921 91.668C54.8481 91.516 54.6521 91.44 54.4041 91.44C54.2041 91.44 54.0201 91.492 53.8521 91.596C53.6921 91.692 53.5681 91.84 53.4801 92.04C53.3921 92.24 53.3481 92.492 53.3481 92.796V96H51.3081V92.472C51.3081 92.088 51.2321 91.82 51.0801 91.668C50.9281 91.516 50.7321 91.44 50.4921 91.44C50.3081 91.44 50.1321 91.488 49.9641 91.584C49.8041 91.68 49.6761 91.832 49.5801 92.04C49.4841 92.24 49.4361 92.504 49.4361 92.832V96H47.3961ZM62.0409 92.196C62.0409 91.916 61.9609 91.696 61.8009 91.536C61.6489 91.368 61.4409 91.284 61.1769 91.284C60.9129 91.284 60.6849 91.352 60.4929 91.488C60.3089 91.616 60.1809 91.848 60.1089 92.184L58.3809 91.776C58.4929 91.2 58.7889 90.74 59.2689 90.396C59.7489 90.052 60.4249 89.88 61.2969 89.88C61.8809 89.88 62.3769 89.968 62.7849 90.144C63.2009 90.312 63.5169 90.568 63.7329 90.912C63.9569 91.248 64.0689 91.664 64.0689 92.16V94.356C64.0689 94.668 64.2089 94.824 64.4889 94.824C64.6329 94.824 64.7489 94.808 64.8369 94.776L64.7169 95.94C64.4769 96.052 64.1849 96.108 63.8409 96.108C63.5289 96.108 63.2529 96.06 63.0129 95.964C62.7729 95.86 62.5849 95.708 62.4489 95.508C62.3129 95.3 62.2449 95.04 62.2449 94.728V94.656L62.4729 94.572C62.4729 94.916 62.3689 95.204 62.1609 95.436C61.9609 95.668 61.6969 95.84 61.3689 95.952C61.0489 96.064 60.7129 96.12 60.3609 96.12C59.9529 96.12 59.5969 96.056 59.2929 95.928C58.9889 95.8 58.7529 95.616 58.5849 95.376C58.4249 95.128 58.3449 94.824 58.3449 94.464C58.3449 94.032 58.4729 93.676 58.7289 93.396C58.9929 93.108 59.4049 92.908 59.9649 92.796L62.2329 92.328L62.2209 93.408L61.0689 93.648C60.8289 93.696 60.6489 93.768 60.5289 93.864C60.4169 93.952 60.3609 94.088 60.3609 94.272C60.3609 94.448 60.4249 94.58 60.5529 94.668C60.6809 94.756 60.8329 94.8 61.0089 94.8C61.1449 94.8 61.2729 94.78 61.3929 94.74C61.5209 94.7 61.6329 94.64 61.7289 94.56C61.8249 94.472 61.9009 94.364 61.9569 94.236C62.0129 94.108 62.0409 93.956 62.0409 93.78V92.196ZM65.6422 96V90H67.4422L67.5262 91.296C67.6782 90.848 67.9022 90.5 68.1982 90.252C68.5022 90.004 68.8862 89.88 69.3502 89.88C69.5022 89.88 69.6302 89.892 69.7342 89.916C69.8462 89.94 69.9342 89.972 69.9982 90.012L69.7942 91.692C69.7142 91.66 69.6102 91.636 69.4822 91.62C69.3622 91.596 69.2142 91.584 69.0382 91.584C68.7982 91.584 68.5742 91.636 68.3662 91.74C68.1582 91.844 67.9902 92 67.8622 92.208C67.7422 92.408 67.6822 92.664 67.6822 92.976V96H65.6422ZM76.8344 90L74.6504 96C74.4264 96.632 74.1824 97.136 73.9184 97.512C73.6544 97.888 73.3424 98.16 72.9824 98.328C72.6224 98.496 72.1904 98.58 71.6864 98.58C71.3504 98.58 71.0424 98.544 70.7624 98.472C70.4824 98.4 70.2384 98.3 70.0304 98.172L70.4384 96.792C70.5824 96.896 70.7344 96.968 70.8944 97.008C71.0544 97.056 71.2584 97.08 71.5064 97.08C71.7384 97.08 71.9264 97.04 72.0704 96.96C72.2224 96.88 72.3424 96.728 72.4304 96.504L72.5864 96.132L71.8904 94.5L70.0904 90H72.3344L73.2584 93.42L73.5464 94.692L73.8824 93.372L74.8064 90H76.8344ZM80.8682 96V88.08H84.7202C85.6962 88.088 86.4162 88.276 86.8802 88.644C87.3442 89.004 87.5762 89.528 87.5762 90.216C87.5762 90.664 87.4442 91.052 87.1802 91.38C86.9162 91.7 86.5122 91.904 85.9682 91.992V92.004C86.5762 92.084 87.0282 92.296 87.3242 92.64C87.6282 92.976 87.7802 93.384 87.7802 93.864C87.7802 94.544 87.5402 95.072 87.0602 95.448C86.5802 95.816 85.8602 96 84.9002 96H80.8682ZM82.8602 94.548H84.5522C84.9282 94.548 85.2082 94.472 85.3922 94.32C85.5762 94.168 85.6682 93.948 85.6682 93.66C85.6682 93.38 85.5762 93.168 85.3922 93.024C85.2082 92.872 84.9282 92.796 84.5522 92.796H82.8602V94.548ZM82.8602 91.32H84.3602C85.0962 91.32 85.4642 91.032 85.4642 90.456C85.4642 89.88 85.0962 89.592 84.3602 89.592H82.8602V91.32ZM90.9433 87.456V93.96C90.9433 94.224 90.9873 94.412 91.0753 94.524C91.1633 94.636 91.3113 94.692 91.5193 94.692C91.6393 94.692 91.7393 94.684 91.8193 94.668C91.8993 94.652 91.9953 94.628 92.1073 94.596L91.9753 95.82C91.8313 95.908 91.6433 95.98 91.4113 96.036C91.1793 96.092 90.9513 96.12 90.7273 96.12C90.0873 96.12 89.6233 95.972 89.3353 95.676C89.0473 95.38 88.9033 94.896 88.9033 94.224V87.456H90.9433ZM94.8811 96.12C94.4731 96.12 94.1131 96.052 93.8011 95.916C93.4971 95.772 93.2571 95.544 93.0811 95.232C92.9051 94.92 92.8171 94.512 92.8171 94.008V90H94.8571V93.528C94.8571 93.912 94.9331 94.18 95.0851 94.332C95.2371 94.484 95.4531 94.56 95.7331 94.56C95.8771 94.56 96.0131 94.536 96.1411 94.488C96.2691 94.432 96.3811 94.352 96.4771 94.248C96.5731 94.136 96.6451 93.996 96.6931 93.828C96.7491 93.652 96.7771 93.448 96.7771 93.216V90H98.8171V96H96.9931L96.9331 94.872C96.7411 95.296 96.4731 95.612 96.1291 95.82C95.7851 96.02 95.3691 96.12 94.8811 96.12ZM103.211 96.12C102.547 96.12 101.971 95.996 101.483 95.748C101.003 95.5 100.631 95.144 100.367 94.68C100.103 94.216 99.9708 93.656 99.9708 93C99.9708 92.344 100.103 91.784 100.367 91.32C100.631 90.856 100.999 90.5 101.471 90.252C101.951 90.004 102.499 89.88 103.115 89.88C103.747 89.88 104.283 90.004 104.723 90.252C105.171 90.492 105.511 90.828 105.743 91.26C105.975 91.684 106.091 92.172 106.091 92.724C106.091 92.868 106.087 93.012 106.079 93.156C106.071 93.3 106.059 93.42 106.043 93.516H101.291V92.424H105.143L104.171 92.796C104.171 92.316 104.083 91.948 103.907 91.692C103.739 91.436 103.475 91.308 103.115 91.308C102.859 91.308 102.639 91.368 102.455 91.488C102.279 91.608 102.143 91.796 102.047 92.052C101.959 92.308 101.915 92.636 101.915 93.036C101.915 93.428 101.967 93.748 102.071 93.996C102.175 94.236 102.323 94.412 102.515 94.524C102.707 94.628 102.939 94.68 103.211 94.68C103.515 94.68 103.755 94.62 103.931 94.5C104.115 94.38 104.251 94.212 104.339 93.996L105.971 94.536C105.859 94.88 105.663 95.172 105.383 95.412C105.111 95.644 104.783 95.82 104.399 95.94C104.023 96.06 103.627 96.12 103.211 96.12Z" fill="black"/>
<path d="M210.972 87.96C211.708 87.96 212.356 88.076 212.916 88.308C213.484 88.532 213.976 88.864 214.392 89.304L213.396 90.636C213.052 90.276 212.68 90.008 212.28 89.832C211.888 89.648 211.44 89.556 210.936 89.556C210.64 89.556 210.4 89.588 210.216 89.652C210.032 89.716 209.9 89.804 209.82 89.916C209.74 90.028 209.7 90.156 209.7 90.3C209.7 90.468 209.776 90.612 209.928 90.732C210.088 90.844 210.344 90.94 210.696 91.02L212.028 91.32C212.82 91.504 213.4 91.772 213.768 92.124C214.136 92.476 214.32 92.944 214.32 93.528C214.32 94.088 214.176 94.564 213.888 94.956C213.6 95.34 213.204 95.632 212.7 95.832C212.196 96.024 211.62 96.12 210.972 96.12C210.444 96.12 209.94 96.064 209.46 95.952C208.98 95.832 208.548 95.664 208.164 95.448C207.78 95.232 207.456 94.984 207.192 94.704L208.188 93.324C208.388 93.556 208.632 93.764 208.92 93.948C209.216 94.124 209.536 94.264 209.88 94.368C210.232 94.472 210.588 94.524 210.948 94.524C211.228 94.524 211.46 94.496 211.644 94.44C211.836 94.384 211.976 94.3 212.064 94.188C212.152 94.076 212.196 93.944 212.196 93.792C212.196 93.624 212.136 93.484 212.016 93.372C211.896 93.252 211.668 93.152 211.332 93.072L209.868 92.748C209.42 92.644 209.02 92.508 208.668 92.34C208.324 92.164 208.052 91.932 207.852 91.644C207.652 91.348 207.552 90.98 207.552 90.54C207.552 90.044 207.688 89.604 207.96 89.22C208.232 88.828 208.624 88.52 209.136 88.296C209.648 88.072 210.26 87.96 210.972 87.96ZM222.054 90L219.174 93.072L218.79 93.18L217.074 95.1L217.062 93.012L219.786 90H222.054ZM217.506 87.456V96H215.466V87.456H217.506ZM219.486 91.8L222.186 96H219.93L218.154 93L219.486 91.8ZM228.967 90L226.783 96C226.559 96.632 226.315 97.136 226.051 97.512C225.787 97.888 225.475 98.16 225.115 98.328C224.755 98.496 224.323 98.58 223.819 98.58C223.483 98.58 223.175 98.544 222.895 98.472C222.615 98.4 222.371 98.3 222.163 98.172L222.571 96.792C222.715 96.896 222.867 96.968 223.027 97.008C223.187 97.056 223.391 97.08 223.639 97.08C223.871 97.08 224.059 97.04 224.203 96.96C224.355 96.88 224.475 96.728 224.563 96.504L224.719 96.132L224.023 94.5L222.223 90H224.467L225.391 93.42L225.679 94.692L226.015 93.372L226.939 90H228.967ZM233.001 96V88.08H236.853C237.829 88.088 238.549 88.276 239.013 88.644C239.477 89.004 239.709 89.528 239.709 90.216C239.709 90.664 239.577 91.052 239.313 91.38C239.049 91.7 238.645 91.904 238.101 91.992V92.004C238.709 92.084 239.161 92.296 239.457 92.64C239.761 92.976 239.913 93.384 239.913 93.864C239.913 94.544 239.673 95.072 239.193 95.448C238.713 95.816 237.993 96 237.033 96H233.001ZM234.993 94.548H236.685C237.061 94.548 237.341 94.472 237.525 94.32C237.709 94.168 237.801 93.948 237.801 93.66C237.801 93.38 237.709 93.168 237.525 93.024C237.341 92.872 237.061 92.796 236.685 92.796H234.993V94.548ZM234.993 91.32H236.493C237.229 91.32 237.597 91.032 237.597 90.456C237.597 89.88 237.229 89.592 236.493 89.592H234.993V91.32ZM243.076 87.456V93.96C243.076 94.224 243.12 94.412 243.208 94.524C243.296 94.636 243.444 94.692 243.652 94.692C243.772 94.692 243.872 94.684 243.952 94.668C244.032 94.652 244.128 94.628 244.24 94.596L244.108 95.82C243.964 95.908 243.776 95.98 243.544 96.036C243.312 96.092 243.084 96.12 242.86 96.12C242.22 96.12 241.756 95.972 241.468 95.676C241.18 95.38 241.036 94.896 241.036 94.224V87.456H243.076ZM247.014 96.12C246.606 96.12 246.246 96.052 245.934 95.916C245.63 95.772 245.39 95.544 245.214 95.232C245.038 94.92 244.95 94.512 244.95 94.008V90H246.99V93.528C246.99 93.912 247.066 94.18 247.218 94.332C247.37 94.484 247.586 94.56 247.866 94.56C248.01 94.56 248.146 94.536 248.274 94.488C248.402 94.432 248.514 94.352 248.61 94.248C248.706 94.136 248.778 93.996 248.826 93.828C248.882 93.652 248.91 93.448 248.91 93.216V90H250.95V96H249.126L249.066 94.872C248.874 95.296 248.606 95.612 248.262 95.82C247.918 96.02 247.502 96.12 247.014 96.12ZM255.344 96.12C254.68 96.12 254.104 95.996 253.616 95.748C253.136 95.5 252.764 95.144 252.5 94.68C252.236 94.216 252.104 93.656 252.104 93C252.104 92.344 252.236 91.784 252.5 91.32C252.764 90.856 253.132 90.5 253.604 90.252C254.084 90.004 254.632 89.88 255.248 89.88C255.88 89.88 256.416 90.004 256.856 90.252C257.304 90.492 257.644 90.828 257.876 91.26C258.108 91.684 258.224 92.172 258.224 92.724C258.224 92.868 258.22 93.012 258.212 93.156C258.204 93.3 258.192 93.42 258.176 93.516H253.424V92.424H257.276L256.304 92.796C256.304 92.316 256.216 91.948 256.04 91.692C255.872 91.436 255.608 91.308 255.248 91.308C254.992 91.308 254.772 91.368 254.588 91.488C254.412 91.608 254.276 91.796 254.18 92.052C254.092 92.308 254.048 92.636 254.048 93.036C254.048 93.428 254.1 93.748 254.204 93.996C254.308 94.236 254.456 94.412 254.648 94.524C254.84 94.628 255.072 94.68 255.344 94.68C255.648 94.68 255.888 94.62 256.064 94.5C256.248 94.38 256.384 94.212 256.472 93.996L258.104 94.536C257.992 94.88 257.796 95.172 257.516 95.412C257.244 95.644 256.916 95.82 256.532 95.94C256.156 96.06 255.76 96.12 255.344 96.12Z" fill="black"/>
<path d="M387.236 88.08C388.476 88.08 389.424 88.424 390.08 89.112C390.744 89.8 391.076 90.776 391.076 92.04C391.076 93.304 390.744 94.28 390.08 94.968C389.424 95.656 388.476 96 387.236 96H383.876V88.08H387.236ZM387.032 94.44C387.704 94.44 388.192 94.24 388.496 93.84C388.808 93.432 388.964 92.832 388.964 92.04C388.964 91.248 388.808 90.652 388.496 90.252C388.192 89.844 387.704 89.64 387.032 89.64H385.94V94.44H387.032ZM395.273 96.12C394.609 96.12 394.033 95.996 393.545 95.748C393.065 95.5 392.693 95.144 392.429 94.68C392.165 94.216 392.033 93.656 392.033 93C392.033 92.344 392.165 91.784 392.429 91.32C392.693 90.856 393.061 90.5 393.533 90.252C394.013 90.004 394.561 89.88 395.177 89.88C395.809 89.88 396.345 90.004 396.785 90.252C397.233 90.492 397.573 90.828 397.805 91.26C398.037 91.684 398.153 92.172 398.153 92.724C398.153 92.868 398.149 93.012 398.141 93.156C398.133 93.3 398.121 93.42 398.105 93.516H393.353V92.424H397.205L396.233 92.796C396.233 92.316 396.145 91.948 395.969 91.692C395.801 91.436 395.537 91.308 395.177 91.308C394.921 91.308 394.701 91.368 394.517 91.488C394.341 91.608 394.205 91.796 394.109 92.052C394.021 92.308 393.977 92.636 393.977 93.036C393.977 93.428 394.029 93.748 394.133 93.996C394.237 94.236 394.385 94.412 394.577 94.524C394.769 94.628 395.001 94.68 395.273 94.68C395.577 94.68 395.817 94.62 395.993 94.5C396.177 94.38 396.313 94.212 396.401 93.996L398.033 94.536C397.921 94.88 397.725 95.172 397.445 95.412C397.173 95.644 396.845 95.82 396.461 95.94C396.085 96.06 395.689 96.12 395.273 96.12ZM402.223 96.12C401.559 96.12 400.983 95.996 400.495 95.748C400.015 95.5 399.643 95.144 399.379 94.68C399.115 94.216 398.983 93.656 398.983 93C398.983 92.344 399.115 91.784 399.379 91.32C399.643 90.856 400.011 90.5 400.483 90.252C400.963 90.004 401.511 89.88 402.127 89.88C402.759 89.88 403.295 90.004 403.735 90.252C404.183 90.492 404.523 90.828 404.755 91.26C404.987 91.684 405.103 92.172 405.103 92.724C405.103 92.868 405.099 93.012 405.091 93.156C405.083 93.3 405.071 93.42 405.055 93.516H400.303V92.424H404.155L403.183 92.796C403.183 92.316 403.095 91.948 402.919 91.692C402.751 91.436 402.487 91.308 402.127 91.308C401.871 91.308 401.651 91.368 401.467 91.488C401.291 91.608 401.155 91.796 401.059 92.052C400.971 92.308 400.927 92.636 400.927 93.036C400.927 93.428 400.979 93.748 401.083 93.996C401.187 94.236 401.335 94.412 401.527 94.524C401.719 94.628 401.951 94.68 402.223 94.68C402.527 94.68 402.767 94.62 402.943 94.5C403.127 94.38 403.263 94.212 403.351 93.996L404.983 94.536C404.871 94.88 404.675 95.172 404.395 95.412C404.123 95.644 403.795 95.82 403.411 95.94C403.035 96.06 402.639 96.12 402.223 96.12ZM406.244 98.52V90H408.08L408.188 92.172L407.948 91.92C408.004 91.52 408.128 91.168 408.32 90.864C408.512 90.56 408.76 90.32 409.064 90.144C409.368 89.968 409.716 89.88 410.108 89.88C410.604 89.88 411.036 90.004 411.404 90.252C411.772 90.492 412.056 90.844 412.256 91.308C412.464 91.764 412.568 92.32 412.568 92.976C412.568 93.632 412.464 94.196 412.256 94.668C412.048 95.14 411.756 95.5 411.38 95.748C411.012 95.996 410.58 96.12 410.084 96.12C409.54 96.12 409.1 95.96 408.764 95.64C408.428 95.312 408.204 94.9 408.092 94.404L408.284 94.116V98.52H406.244ZM409.388 94.62C409.74 94.62 410.016 94.492 410.216 94.236C410.416 93.972 410.516 93.56 410.516 93C410.516 92.44 410.416 92.032 410.216 91.776C410.024 91.512 409.752 91.38 409.4 91.38C409.176 91.38 408.98 91.444 408.812 91.572C408.644 91.692 408.512 91.872 408.416 92.112C408.328 92.352 408.284 92.648 408.284 93C408.284 93.336 408.324 93.628 408.404 93.876C408.492 94.116 408.62 94.3 408.788 94.428C408.956 94.556 409.156 94.62 409.388 94.62ZM424.485 88.08V96H422.193L419.733 91.716L419.133 90.54H419.121L419.169 92.004V96H417.345V88.08H419.637L422.097 92.364L422.697 93.54H422.709L422.661 92.076V88.08H424.485ZM429.42 92.196C429.42 91.916 429.34 91.696 429.18 91.536C429.028 91.368 428.82 91.284 428.556 91.284C428.292 91.284 428.064 91.352 427.872 91.488C427.688 91.616 427.56 91.848 427.488 92.184L425.76 91.776C425.872 91.2 426.168 90.74 426.648 90.396C427.128 90.052 427.804 89.88 428.676 89.88C429.26 89.88 429.756 89.968 430.164 90.144C430.58 90.312 430.896 90.568 431.112 90.912C431.336 91.248 431.448 91.664 431.448 92.16V94.356C431.448 94.668 431.588 94.824 431.868 94.824C432.012 94.824 432.128 94.808 432.216 94.776L432.096 95.94C431.856 96.052 431.564 96.108 431.22 96.108C430.908 96.108 430.632 96.06 430.392 95.964C430.152 95.86 429.964 95.708 429.828 95.508C429.692 95.3 429.624 95.04 429.624 94.728V94.656L429.852 94.572C429.852 94.916 429.748 95.204 429.54 95.436C429.34 95.668 429.076 95.84 428.748 95.952C428.428 96.064 428.092 96.12 427.74 96.12C427.332 96.12 426.976 96.056 426.672 95.928C426.368 95.8 426.132 95.616 425.964 95.376C425.804 95.128 425.724 94.824 425.724 94.464C425.724 94.032 425.852 93.676 426.108 93.396C426.372 93.108 426.784 92.908 427.344 92.796L429.612 92.328L429.6 93.408L428.448 93.648C428.208 93.696 428.028 93.768 427.908 93.864C427.796 93.952 427.74 94.088 427.74 94.272C427.74 94.448 427.804 94.58 427.932 94.668C428.06 94.756 428.212 94.8 428.388 94.8C428.524 94.8 428.652 94.78 428.772 94.74C428.9 94.7 429.012 94.64 429.108 94.56C429.204 94.472 429.28 94.364 429.336 94.236C429.392 94.108 429.42 93.956 429.42 93.78V92.196ZM436.663 90H438.775L436.615 96H434.179L432.019 90H434.167L435.403 94.572L436.663 90ZM445.526 90L443.342 96C443.118 96.632 442.874 97.136 442.61 97.512C442.346 97.888 442.034 98.16 441.674 98.328C441.314 98.496 440.882 98.58 440.378 98.58C440.042 98.58 439.734 98.544 439.454 98.472C439.174 98.4 438.93 98.3 438.722 98.172L439.13 96.792C439.274 96.896 439.426 96.968 439.586 97.008C439.746 97.056 439.95 97.08 440.198 97.08C440.43 97.08 440.618 97.04 440.762 96.96C440.914 96.88 441.034 96.728 441.122 96.504L441.278 96.132L440.582 94.5L438.782 90H441.026L441.95 93.42L442.238 94.692L442.574 93.372L443.498 90H445.526Z" fill="black"/>
<path d="M38.076 209H35.952L35.4 207.212H32.688L32.124 209H30.048L32.832 201.08H35.304L38.076 209ZM33.072 205.808H35.016L34.044 202.604L33.072 205.808ZM41.5213 202.88C42.1293 202.88 42.6333 202.968 43.0333 203.144C43.4413 203.312 43.7573 203.54 43.9813 203.828C44.2133 204.108 44.3573 204.412 44.4133 204.74L42.5293 205.364C42.4733 205.02 42.3693 204.764 42.2173 204.596C42.0733 204.42 41.8613 204.332 41.5813 204.332C41.3253 204.332 41.1093 204.392 40.9333 204.512C40.7653 204.624 40.6373 204.808 40.5493 205.064C40.4613 205.312 40.4173 205.632 40.4173 206.024C40.4173 206.416 40.4653 206.736 40.5613 206.984C40.6573 207.224 40.7933 207.4 40.9693 207.512C41.1453 207.616 41.3533 207.668 41.5933 207.668C41.7933 207.668 41.9573 207.632 42.0853 207.56C42.2213 207.48 42.3333 207.368 42.4213 207.224C42.5093 207.08 42.5653 206.904 42.5893 206.696L44.4253 207.284C44.3693 207.636 44.2173 207.952 43.9693 208.232C43.7293 208.504 43.4093 208.72 43.0093 208.88C42.6093 209.04 42.1413 209.12 41.6053 209.12C40.9493 209.12 40.3773 209 39.8893 208.76C39.4013 208.512 39.0253 208.156 38.7613 207.692C38.4973 207.22 38.3653 206.656 38.3653 206C38.3653 205.344 38.4973 204.784 38.7613 204.32C39.0253 203.848 39.3933 203.492 39.8653 203.252C40.3453 203.004 40.8973 202.88 41.5213 202.88ZM48.3299 202.88C48.9379 202.88 49.4419 202.968 49.8419 203.144C50.2499 203.312 50.5659 203.54 50.7899 203.828C51.0219 204.108 51.1659 204.412 51.2219 204.74L49.3379 205.364C49.2819 205.02 49.1779 204.764 49.0259 204.596C48.8819 204.42 48.6699 204.332 48.3899 204.332C48.1339 204.332 47.9179 204.392 47.7419 204.512C47.5739 204.624 47.4459 204.808 47.3579 205.064C47.2699 205.312 47.2259 205.632 47.2259 206.024C47.2259 206.416 47.2739 206.736 47.3699 206.984C47.4659 207.224 47.6019 207.4 47.7779 207.512C47.9539 207.616 48.1619 207.668 48.4019 207.668C48.6019 207.668 48.7659 207.632 48.8939 207.56C49.0299 207.48 49.1419 207.368 49.2299 207.224C49.3179 207.08 49.3739 206.904 49.3979 206.696L51.2339 207.284C51.1779 207.636 51.0259 207.952 50.7779 208.232C50.5379 208.504 50.2179 208.72 49.8179 208.88C49.4179 209.04 48.9499 209.12 48.4139 209.12C47.7579 209.12 47.1859 209 46.6979 208.76C46.2099 208.512 45.8339 208.156 45.5699 207.692C45.3059 207.22 45.1739 206.656 45.1739 206C45.1739 205.344 45.3059 204.784 45.5699 204.32C45.8339 203.848 46.2019 203.492 46.6739 203.252C47.1539 203.004 47.7059 202.88 48.3299 202.88ZM55.2225 209.12C54.5585 209.12 53.9825 208.996 53.4945 208.748C53.0145 208.5 52.6425 208.144 52.3785 207.68C52.1145 207.216 51.9825 206.656 51.9825 206C51.9825 205.344 52.1145 204.784 52.3785 204.32C52.6425 203.856 53.0105 203.5 53.4825 203.252C53.9625 203.004 54.5105 202.88 55.1265 202.88C55.7585 202.88 56.2945 203.004 56.7345 203.252C57.1825 203.492 57.5225 203.828 57.7545 204.26C57.9865 204.684 58.1025 205.172 58.1025 205.724C58.1025 205.868 58.0985 206.012 58.0905 206.156C58.0825 206.3 58.0705 206.42 58.0545 206.516H53.3025V205.424H57.1545L56.1825 205.796C56.1825 205.316 56.0945 204.948 55.9185 204.692C55.7505 204.436 55.4865 204.308 55.1265 204.308C54.8705 204.308 54.6505 204.368 54.4665 204.488C54.2905 204.608 54.1545 204.796 54.0585 205.052C53.9705 205.308 53.9265 205.636 53.9265 206.036C53.9265 206.428 53.9785 206.748 54.0825 206.996C54.1865 207.236 54.3345 207.412 54.5265 207.524C54.7185 207.628 54.9505 207.68 55.2225 207.68C55.5265 207.68 55.7665 207.62 55.9425 207.5C56.1265 207.38 56.2625 207.212 56.3505 206.996L57.9825 207.536C57.8705 207.88 57.6745 208.172 57.3945 208.412C57.1225 208.644 56.7945 208.82 56.4105 208.94C56.0345 209.06 55.6385 209.12 55.2225 209.12ZM59.2437 209V203H61.0677L61.1757 205.064L60.9477 204.836C61.0277 204.404 61.1677 204.044 61.3677 203.756C61.5757 203.468 61.8317 203.252 62.1357 203.108C62.4477 202.956 62.7957 202.88 63.1797 202.88C63.5957 202.88 63.9557 202.96 64.2597 203.12C64.5717 203.28 64.8157 203.516 64.9917 203.828C65.1677 204.14 65.2557 204.532 65.2557 205.004V209H63.2157V205.544C63.2157 205.128 63.1357 204.84 62.9757 204.68C62.8157 204.52 62.6117 204.44 62.3637 204.44C62.1717 204.44 61.9917 204.488 61.8237 204.584C61.6557 204.672 61.5237 204.816 61.4277 205.016C61.3317 205.216 61.2837 205.484 61.2837 205.82V209H59.2437ZM69.158 201.092V206.864C69.158 207.152 69.226 207.36 69.362 207.488C69.506 207.608 69.702 207.668 69.95 207.668C70.142 207.668 70.306 207.648 70.442 207.608C70.586 207.56 70.714 207.492 70.826 207.404L71.042 208.664C70.842 208.808 70.59 208.92 70.286 209C69.982 209.08 69.67 209.12 69.35 209.12C68.894 209.12 68.498 209.056 68.162 208.928C67.834 208.8 67.578 208.596 67.394 208.316C67.218 208.036 67.126 207.664 67.118 207.2V201.656L69.158 201.092ZM70.946 203V204.452H66.086V203H70.946ZM75.4658 209V201.08H79.3178C80.2938 201.088 81.0138 201.276 81.4778 201.644C81.9418 202.004 82.1738 202.528 82.1738 203.216C82.1738 203.664 82.0418 204.052 81.7778 204.38C81.5138 204.7 81.1098 204.904 80.5658 204.992V205.004C81.1738 205.084 81.6258 205.296 81.9218 205.64C82.2258 205.976 82.3778 206.384 82.3778 206.864C82.3778 207.544 82.1378 208.072 81.6578 208.448C81.1778 208.816 80.4578 209 79.4978 209H75.4658ZM77.4578 207.548H79.1498C79.5258 207.548 79.8058 207.472 79.9898 207.32C80.1738 207.168 80.2658 206.948 80.2658 206.66C80.2658 206.38 80.1738 206.168 79.9898 206.024C79.8058 205.872 79.5258 205.796 79.1498 205.796H77.4578V207.548ZM77.4578 204.32H78.9578C79.6938 204.32 80.0618 204.032 80.0618 203.456C80.0618 202.88 79.6938 202.592 78.9578 202.592H77.4578V204.32ZM85.541 200.456V206.96C85.541 207.224 85.585 207.412 85.673 207.524C85.761 207.636 85.909 207.692 86.117 207.692C86.237 207.692 86.337 207.684 86.417 207.668C86.497 207.652 86.593 207.628 86.705 207.596L86.573 208.82C86.429 208.908 86.241 208.98 86.009 209.036C85.777 209.092 85.549 209.12 85.325 209.12C84.685 209.12 84.221 208.972 83.933 208.676C83.645 208.38 83.501 207.896 83.501 207.224V200.456H85.541ZM89.4788 209.12C89.0708 209.12 88.7108 209.052 88.3988 208.916C88.0948 208.772 87.8548 208.544 87.6788 208.232C87.5028 207.92 87.4148 207.512 87.4148 207.008V203H89.4548V206.528C89.4548 206.912 89.5308 207.18 89.6828 207.332C89.8348 207.484 90.0508 207.56 90.3308 207.56C90.4748 207.56 90.6108 207.536 90.7388 207.488C90.8668 207.432 90.9788 207.352 91.0748 207.248C91.1708 207.136 91.2428 206.996 91.2908 206.828C91.3468 206.652 91.3748 206.448 91.3748 206.216V203H93.4148V209H91.5908L91.5308 207.872C91.3388 208.296 91.0708 208.612 90.7268 208.82C90.3828 209.02 89.9668 209.12 89.4788 209.12ZM97.8084 209.12C97.1444 209.12 96.5684 208.996 96.0804 208.748C95.6004 208.5 95.2284 208.144 94.9644 207.68C94.7004 207.216 94.5684 206.656 94.5684 206C94.5684 205.344 94.7004 204.784 94.9644 204.32C95.2284 203.856 95.5964 203.5 96.0684 203.252C96.5484 203.004 97.0964 202.88 97.7124 202.88C98.3444 202.88 98.8804 203.004 99.3204 203.252C99.7684 203.492 100.108 203.828 100.34 204.26C100.572 204.684 100.688 205.172 100.688 205.724C100.688 205.868 100.684 206.012 100.676 206.156C100.668 206.3 100.656 206.42 100.64 206.516H95.8884V205.424H99.7404L98.7684 205.796C98.7684 205.316 98.6804 204.948 98.5044 204.692C98.3364 204.436 98.0724 204.308 97.7124 204.308C97.4564 204.308 97.2364 204.368 97.0524 204.488C96.8764 204.608 96.7404 204.796 96.6444 205.052C96.5564 205.308 96.5124 205.636 96.5124 206.036C96.5124 206.428 96.5644 206.748 96.6684 206.996C96.7724 207.236 96.9204 207.412 97.1124 207.524C97.3044 207.628 97.5364 207.68 97.8084 207.68C98.1124 207.68 98.3524 207.62 98.5284 207.5C98.7124 207.38 98.8484 207.212 98.9364 206.996L100.568 207.536C100.456 207.88 100.26 208.172 99.9804 208.412C99.7084 208.644 99.3804 208.82 98.9964 208.94C98.6204 209.06 98.2244 209.12 97.8084 209.12Z" fill="black"/>
<path d="M207.876 209V201.08H211.728C212.704 201.088 213.424 201.276 213.888 201.644C214.352 202.004 214.584 202.528 214.584 203.216C214.584 203.664 214.452 204.052 214.188 204.38C213.924 204.7 213.52 204.904 212.976 204.992V205.004C213.584 205.084 214.036 205.296 214.332 205.64C214.636 205.976 214.788 206.384 214.788 206.864C214.788 207.544 214.548 208.072 214.068 208.448C213.588 208.816 212.868 209 211.908 209H207.876ZM209.868 207.548H211.56C211.936 207.548 212.216 207.472 212.4 207.32C212.584 207.168 212.676 206.948 212.676 206.66C212.676 206.38 212.584 206.168 212.4 206.024C212.216 205.872 211.936 205.796 211.56 205.796H209.868V207.548ZM209.868 204.32H211.368C212.104 204.32 212.472 204.032 212.472 203.456C212.472 202.88 212.104 202.592 211.368 202.592H209.868V204.32ZM217.951 200.456V206.96C217.951 207.224 217.995 207.412 218.083 207.524C218.171 207.636 218.319 207.692 218.527 207.692C218.647 207.692 218.747 207.684 218.827 207.668C218.907 207.652 219.003 207.628 219.115 207.596L218.983 208.82C218.839 208.908 218.651 208.98 218.419 209.036C218.187 209.092 217.959 209.12 217.735 209.12C217.095 209.12 216.631 208.972 216.343 208.676C216.055 208.38 215.911 207.896 215.911 207.224V200.456H217.951ZM223.303 205.196C223.303 204.916 223.223 204.696 223.063 204.536C222.911 204.368 222.703 204.284 222.439 204.284C222.175 204.284 221.947 204.352 221.755 204.488C221.571 204.616 221.443 204.848 221.371 205.184L219.643 204.776C219.755 204.2 220.051 203.74 220.531 203.396C221.011 203.052 221.687 202.88 222.559 202.88C223.143 202.88 223.639 202.968 224.047 203.144C224.463 203.312 224.779 203.568 224.995 203.912C225.219 204.248 225.331 204.664 225.331 205.16V207.356C225.331 207.668 225.471 207.824 225.751 207.824C225.895 207.824 226.011 207.808 226.099 207.776L225.979 208.94C225.739 209.052 225.447 209.108 225.103 209.108C224.791 209.108 224.515 209.06 224.275 208.964C224.035 208.86 223.847 208.708 223.711 208.508C223.575 208.3 223.507 208.04 223.507 207.728V207.656L223.735 207.572C223.735 207.916 223.631 208.204 223.423 208.436C223.223 208.668 222.959 208.84 222.631 208.952C222.311 209.064 221.975 209.12 221.623 209.12C221.215 209.12 220.859 209.056 220.555 208.928C220.251 208.8 220.015 208.616 219.847 208.376C219.687 208.128 219.607 207.824 219.607 207.464C219.607 207.032 219.735 206.676 219.991 206.396C220.255 206.108 220.667 205.908 221.227 205.796L223.495 205.328L223.483 206.408L222.331 206.648C222.091 206.696 221.911 206.768 221.791 206.864C221.679 206.952 221.623 207.088 221.623 207.272C221.623 207.448 221.687 207.58 221.815 207.668C221.943 207.756 222.095 207.8 222.271 207.8C222.407 207.8 222.535 207.78 222.655 207.74C222.783 207.7 222.895 207.64 222.991 207.56C223.087 207.472 223.163 207.364 223.219 207.236C223.275 207.108 223.303 206.956 223.303 206.78V205.196ZM229.701 202.88C230.309 202.88 230.813 202.968 231.213 203.144C231.621 203.312 231.937 203.54 232.161 203.828C232.393 204.108 232.537 204.412 232.593 204.74L230.709 205.364C230.653 205.02 230.549 204.764 230.397 204.596C230.253 204.42 230.041 204.332 229.761 204.332C229.505 204.332 229.289 204.392 229.113 204.512C228.945 204.624 228.817 204.808 228.729 205.064C228.641 205.312 228.597 205.632 228.597 206.024C228.597 206.416 228.645 206.736 228.741 206.984C228.837 207.224 228.973 207.4 229.149 207.512C229.325 207.616 229.533 207.668 229.773 207.668C229.973 207.668 230.137 207.632 230.265 207.56C230.401 207.48 230.513 207.368 230.601 207.224C230.689 207.08 230.745 206.904 230.769 206.696L232.605 207.284C232.549 207.636 232.397 207.952 232.149 208.232C231.909 208.504 231.589 208.72 231.189 208.88C230.789 209.04 230.321 209.12 229.785 209.12C229.129 209.12 228.557 209 228.069 208.76C227.581 208.512 227.205 208.156 226.941 207.692C226.677 207.22 226.545 206.656 226.545 206C226.545 205.344 226.677 204.784 226.941 204.32C227.205 203.848 227.573 203.492 228.045 203.252C228.525 203.004 229.077 202.88 229.701 202.88ZM240.254 203L237.374 206.072L236.99 206.18L235.274 208.1L235.262 206.012L237.986 203H240.254ZM235.706 200.456V209H233.666V200.456H235.706ZM237.686 204.8L240.386 209H238.13L236.354 206L237.686 204.8Z" fill="black"/>
<path d="M385.4 209L383.12 201.08H385.316L386.66 207.332L388.076 201.08H389.948L391.4 207.32L392.72 201.08H394.844L392.552 209H390.308L389.372 205.16L389.012 203.228H388.988L388.64 205.16L387.716 209H385.4ZM395.697 209V200.456H397.737V204.092C397.913 203.692 398.165 203.392 398.493 203.192C398.821 202.984 399.201 202.88 399.633 202.88C400.049 202.88 400.409 202.96 400.713 203.12C401.025 203.28 401.269 203.516 401.445 203.828C401.621 204.14 401.709 204.532 401.709 205.004V209H399.669V205.568C399.669 205.136 399.589 204.84 399.429 204.68C399.277 204.512 399.073 204.428 398.817 204.428C398.625 204.428 398.445 204.476 398.277 204.572C398.109 204.668 397.977 204.82 397.881 205.028C397.785 205.236 397.737 205.508 397.737 205.844V209H395.697ZM404.158 202.304C403.742 202.304 403.438 202.228 403.246 202.076C403.062 201.916 402.97 201.668 402.97 201.332C402.97 200.988 403.062 200.74 403.246 200.588C403.438 200.428 403.742 200.348 404.158 200.348C404.566 200.348 404.866 200.428 405.058 200.588C405.25 200.74 405.346 200.988 405.346 201.332C405.346 201.668 405.25 201.916 405.058 202.076C404.866 202.228 404.566 202.304 404.158 202.304ZM405.178 203V209H403.138V203H405.178ZM409.138 201.092V206.864C409.138 207.152 409.206 207.36 409.342 207.488C409.486 207.608 409.682 207.668 409.93 207.668C410.122 207.668 410.286 207.648 410.422 207.608C410.566 207.56 410.694 207.492 410.806 207.404L411.022 208.664C410.822 208.808 410.57 208.92 410.266 209C409.962 209.08 409.65 209.12 409.33 209.12C408.874 209.12 408.478 209.056 408.142 208.928C407.814 208.8 407.558 208.596 407.374 208.316C407.198 208.036 407.106 207.664 407.098 207.2V201.656L409.138 201.092ZM410.926 203V204.452H406.066V203H410.926ZM414.797 209.12C414.133 209.12 413.557 208.996 413.069 208.748C412.589 208.5 412.217 208.144 411.953 207.68C411.689 207.216 411.557 206.656 411.557 206C411.557 205.344 411.689 204.784 411.953 204.32C412.217 203.856 412.585 203.5 413.057 203.252C413.537 203.004 414.085 202.88 414.701 202.88C415.333 202.88 415.869 203.004 416.309 203.252C416.757 203.492 417.097 203.828 417.329 204.26C417.561 204.684 417.677 205.172 417.677 205.724C417.677 205.868 417.673 206.012 417.665 206.156C417.657 206.3 417.645 206.42 417.629 206.516H412.877V205.424H416.729L415.757 205.796C415.757 205.316 415.669 204.948 415.493 204.692C415.325 204.436 415.061 204.308 414.701 204.308C414.445 204.308 414.225 204.368 414.041 204.488C413.865 204.608 413.729 204.796 413.633 205.052C413.545 205.308 413.501 205.636 413.501 206.036C413.501 206.428 413.553 206.748 413.657 206.996C413.761 207.236 413.909 207.412 414.101 207.524C414.293 207.628 414.525 207.68 414.797 207.68C415.101 207.68 415.341 207.62 415.517 207.5C415.701 207.38 415.837 207.212 415.925 206.996L417.557 207.536C417.445 207.88 417.249 208.172 416.969 208.412C416.697 208.644 416.369 208.82 415.985 208.94C415.609 209.06 415.213 209.12 414.797 209.12Z" fill="black"/>
</g>
<defs>
<clipPath id="clip0_286_531">
<rect width="549" height="240" fill="white"/>
</clipPath>
</defs>
</svg>
