<svg width="28" height="28" viewBox="0 0 28 28" fill="none" xmlns="http://www.w3.org/2000/svg">
<mask id="mask0_218_42" style="mask-type:alpha" maskUnits="userSpaceOnUse" x="0" y="0" width="28" height="28">
<rect width="28" height="28" fill="#A176C8"/>
</mask>
<g mask="url(#mask0_218_42)">
<path d="M12.8332 26.6492L11.1415 25.1325C9.17762 23.3631 7.554 21.8367 6.27067 20.5534C4.98734 19.27 3.9665 18.118 3.20817 17.0971C2.44984 16.0763 1.91998 15.1381 1.61859 14.2825C1.3172 13.427 1.1665 12.552 1.1665 11.6575C1.1665 9.82976 1.779 8.30337 3.004 7.07837C4.229 5.85337 5.75539 5.24087 7.58317 5.24087C8.59428 5.24087 9.55678 5.45476 10.4707 5.88253C11.3846 6.31031 12.1721 6.91309 12.8332 7.69087C13.4943 6.91309 14.2818 6.31031 15.1957 5.88253C16.1096 5.45476 17.0721 5.24087 18.0832 5.24087C19.9109 5.24087 21.4373 5.85337 22.6623 7.07837C23.8873 8.30337 24.4998 9.82976 24.4998 11.6575C24.4998 12.552 24.3491 13.427 24.0478 14.2825C23.7464 15.1381 23.2165 16.0763 22.4582 17.0971C21.6998 18.118 20.679 19.27 19.3957 20.5534C18.1123 21.8367 16.4887 23.3631 14.5248 25.1325L12.8332 26.6492ZM12.8332 10.3159C14.6998 8.64364 10.5193 11.5117 11.7248 10.3159C12.9304 9.12003 12.1332 11.2006 12.8332 10.3159C13.5332 9.43114 12.9505 10.6326 13.2228 9.94227C13.495 9.25199 12.8332 10.9964 12.8332 10.3159C12.8332 9.1492 14.0005 10.7201 13.2228 9.94227C12.445 9.16449 15.4081 9.68307 14.2415 9.68307C13.3276 9.68307 16.3234 7.83184 15.5457 8.34712C14.7679 8.8624 14.2332 9.51864 13.9415 10.3159H11.7248C11.4332 9.51864 11.5463 10.8311 10.7685 10.3159C9.99072 9.80059 15.4749 12.0658 14.561 12.0658C13.3943 12.0658 11.7248 12.3483 13.2725 11.6575C12.4947 12.4353 12.2498 10.8992 12.2498 12.0658C12.2498 12.7464 11.4526 11.658 11.7248 12.3483C11.9971 13.0386 10.2422 11.623 10.9422 12.5077C11.6422 13.3924 10.5193 11.1525 11.7248 12.3483C12.9304 13.5441 10.9665 8.64364 12.8332 10.3159Z" fill="#A176C8"/>
</g>
</svg>
