<svg width="15" height="14" viewBox="0 0 15 14" fill="none" xmlns="http://www.w3.org/2000/svg">
<path d="M7.5 13.7625L6.4125 12.7875C5.15 11.65 4.10625 10.6687 3.28125 9.84375C2.45625 9.01875 1.8 8.27813 1.3125 7.62188C0.825 6.96563 0.484375 6.3625 0.290625 5.8125C0.096875 5.2625 0 4.7 0 4.125C0 2.95 0.39375 1.96875 1.18125 1.18125C1.96875 0.39375 2.95 0 4.125 0C4.775 0 5.39375 0.1375 5.98125 0.4125C6.56875 0.6875 7.075 1.075 7.5 1.575C7.925 1.075 8.43125 0.6875 9.01875 0.4125C9.60625 0.1375 10.225 0 10.875 0C12.05 0 13.0312 0.39375 13.8188 1.18125C14.6063 1.96875 15 2.95 15 4.125C15 4.7 14.9031 5.2625 14.7094 5.8125C14.5156 6.3625 14.175 6.96563 13.6875 7.62188C13.2 8.27813 12.5437 9.01875 11.7188 9.84375C10.8938 10.6687 9.85 11.65 8.5875 12.7875L7.5 13.7625Z" fill="#333333"/>
</svg>
