<svg width="410" height="251" viewBox="0 0 410 251" fill="none" xmlns="http://www.w3.org/2000/svg">
<rect width="410" height="251" rx="15" fill="white"/>
<rect x="23" y="33" width="80" height="40" fill="#594087"/>
<rect x="122" y="33" width="80" height="40" fill="#D4859E"/>
<rect x="122" y="105" width="80" height="40" fill="#FFAFBD"/>
<rect x="122" y="177" width="80" height="40" fill="#FFD5DD"/>
<rect x="217" y="105" width="80" height="40" fill="#7FC8AA"/>
<path d="M236.38 154.72H234.898L234.508 156.676H235.99L236.38 154.72ZM238.648 153.934L238.57 154.384C238.55 154.5 238.502 154.586 238.426 154.642C238.354 154.694 238.242 154.72 238.09 154.72H237.262L236.872 156.676H237.946C238.062 156.676 238.144 156.71 238.192 156.778C238.244 156.842 238.258 156.956 238.234 157.12L238.18 157.462H236.758L236.254 160H235.768C235.716 160 235.668 159.988 235.624 159.964C235.58 159.94 235.542 159.908 235.51 159.868C235.482 159.828 235.462 159.78 235.45 159.724C235.438 159.668 235.438 159.606 235.45 159.538L235.876 157.462H234.394L233.968 159.592C233.944 159.74 233.886 159.846 233.794 159.91C233.702 159.97 233.598 160 233.482 160H233.002L233.512 157.462H232.636C232.524 157.462 232.442 157.43 232.39 157.366C232.342 157.298 232.33 157.182 232.354 157.018L232.402 156.676H233.626L234.016 154.72H232.624L232.702 154.276C232.722 154.16 232.768 154.074 232.84 154.018C232.916 153.962 233.03 153.934 233.182 153.934H234.13L234.562 151.786C234.586 151.666 234.64 151.572 234.724 151.504C234.812 151.436 234.916 151.402 235.036 151.402H235.516L235.012 153.934H236.494L236.998 151.402H237.472C237.588 151.402 237.678 151.44 237.742 151.516C237.81 151.592 237.834 151.688 237.814 151.804L237.376 153.934H238.648ZM245.447 151.402V151.882C245.447 152.018 245.431 152.13 245.399 152.218C245.371 152.306 245.343 152.38 245.315 152.44L241.751 159.622C241.699 159.726 241.627 159.816 241.535 159.892C241.443 159.964 241.321 160 241.169 160H240.401L244.013 152.908C244.065 152.808 244.119 152.716 244.175 152.632C244.231 152.548 244.291 152.468 244.355 152.392H239.867C239.799 152.392 239.739 152.366 239.687 152.314C239.635 152.258 239.609 152.196 239.609 152.128V151.402H245.447ZM248.184 152.35V155.356H251.718V156.304H248.184V160H247.02V151.402H252.318V152.35H248.184ZM259.759 158.224C259.823 158.224 259.879 158.25 259.927 158.302L260.389 158.8C260.037 159.208 259.609 159.526 259.105 159.754C258.605 159.982 257.999 160.096 257.287 160.096C256.671 160.096 256.111 159.99 255.607 159.778C255.103 159.562 254.673 159.262 254.317 158.878C253.961 158.49 253.685 158.026 253.489 157.486C253.293 156.946 253.195 156.352 253.195 155.704C253.195 155.056 253.297 154.462 253.501 153.922C253.705 153.382 253.991 152.918 254.359 152.53C254.731 152.142 255.175 151.842 255.691 151.63C256.207 151.414 256.777 151.306 257.401 151.306C258.013 151.306 258.553 151.404 259.021 151.6C259.489 151.796 259.901 152.062 260.257 152.398L259.873 152.932C259.849 152.972 259.817 153.006 259.777 153.034C259.741 153.058 259.691 153.07 259.627 153.07C259.555 153.07 259.467 153.032 259.363 152.956C259.259 152.876 259.123 152.788 258.955 152.692C258.787 152.596 258.577 152.51 258.325 152.434C258.073 152.354 257.763 152.314 257.395 152.314C256.951 152.314 256.545 152.392 256.177 152.548C255.809 152.7 255.491 152.922 255.223 153.214C254.959 153.506 254.753 153.862 254.605 154.282C254.457 154.702 254.383 155.176 254.383 155.704C254.383 156.24 254.459 156.718 254.611 157.138C254.767 157.558 254.977 157.914 255.241 158.206C255.509 158.494 255.823 158.714 256.183 158.866C256.547 159.018 256.939 159.094 257.359 159.094C257.615 159.094 257.845 159.08 258.049 159.052C258.257 159.02 258.447 158.972 258.619 158.908C258.795 158.844 258.957 158.764 259.105 158.668C259.257 158.568 259.407 158.45 259.555 158.314C259.623 158.254 259.691 158.224 259.759 158.224ZM264.121 159.244C264.401 159.244 264.651 159.206 264.871 159.13C265.095 159.05 265.283 158.94 265.435 158.8C265.591 158.656 265.709 158.486 265.789 158.29C265.873 158.09 265.915 157.87 265.915 157.63C265.915 157.334 265.865 157.082 265.765 156.874C265.669 156.662 265.537 156.49 265.369 156.358C265.205 156.226 265.015 156.13 264.799 156.07C264.583 156.006 264.357 155.974 264.121 155.974C263.885 155.974 263.659 156.006 263.443 156.07C263.227 156.13 263.035 156.226 262.867 156.358C262.703 156.49 262.571 156.662 262.471 156.874C262.375 157.082 262.327 157.334 262.327 157.63C262.327 157.87 262.367 158.09 262.447 158.29C262.531 158.486 262.649 158.656 262.801 158.8C262.957 158.94 263.145 159.05 263.365 159.13C263.589 159.206 263.841 159.244 264.121 159.244ZM264.121 152.134C263.865 152.134 263.639 152.172 263.443 152.248C263.251 152.324 263.089 152.428 262.957 152.56C262.829 152.692 262.731 152.846 262.663 153.022C262.599 153.198 262.567 153.386 262.567 153.586C262.567 153.782 262.595 153.972 262.651 154.156C262.707 154.34 262.797 154.504 262.921 154.648C263.045 154.788 263.205 154.902 263.401 154.99C263.601 155.074 263.841 155.116 264.121 155.116C264.401 155.116 264.639 155.074 264.835 154.99C265.035 154.902 265.197 154.788 265.321 154.648C265.445 154.504 265.535 154.34 265.591 154.156C265.647 153.972 265.675 153.782 265.675 153.586C265.675 153.386 265.641 153.198 265.573 153.022C265.509 152.846 265.411 152.692 265.279 152.56C265.151 152.428 264.989 152.324 264.793 152.248C264.601 152.172 264.377 152.134 264.121 152.134ZM265.351 155.518C265.887 155.67 266.299 155.924 266.587 156.28C266.875 156.636 267.019 157.092 267.019 157.648C267.019 158.024 266.947 158.364 266.803 158.668C266.663 158.968 266.465 159.224 266.209 159.436C265.957 159.648 265.653 159.812 265.297 159.928C264.941 160.04 264.549 160.096 264.121 160.096C263.693 160.096 263.301 160.04 262.945 159.928C262.589 159.812 262.283 159.648 262.027 159.436C261.771 159.224 261.573 158.968 261.433 158.668C261.293 158.364 261.223 158.024 261.223 157.648C261.223 157.092 261.367 156.636 261.655 156.28C261.943 155.924 262.355 155.67 262.891 155.518C262.439 155.35 262.097 155.1 261.865 154.768C261.637 154.432 261.523 154.032 261.523 153.568C261.523 153.252 261.585 152.956 261.709 152.68C261.833 152.404 262.009 152.164 262.237 151.96C262.465 151.756 262.737 151.596 263.053 151.48C263.373 151.364 263.729 151.306 264.121 151.306C264.509 151.306 264.863 151.364 265.183 151.48C265.503 151.596 265.777 151.756 266.005 151.96C266.233 152.164 266.409 152.404 266.533 152.68C266.657 152.956 266.719 153.252 266.719 153.568C266.719 154.032 266.603 154.432 266.371 154.768C266.143 155.1 265.803 155.35 265.351 155.518ZM273.266 156.808L271.916 153.31C271.876 153.206 271.834 153.086 271.79 152.95C271.746 152.81 271.704 152.662 271.664 152.506C271.58 152.83 271.494 153.1 271.406 153.316L270.056 156.808H273.266ZM275.69 160H274.79C274.686 160 274.602 159.974 274.538 159.922C274.474 159.87 274.426 159.804 274.394 159.724L273.59 157.648H269.732L268.928 159.724C268.904 159.796 268.858 159.86 268.79 159.916C268.722 159.972 268.638 160 268.538 160H267.638L271.076 151.402H272.252L275.69 160ZM281.387 156.808L280.037 153.31C279.997 153.206 279.955 153.086 279.911 152.95C279.867 152.81 279.825 152.662 279.785 152.506C279.701 152.83 279.615 153.1 279.527 153.316L278.177 156.808H281.387ZM283.811 160H282.911C282.807 160 282.723 159.974 282.659 159.922C282.595 159.87 282.547 159.804 282.515 159.724L281.711 157.648H277.853L277.049 159.724C277.025 159.796 276.979 159.86 276.911 159.916C276.843 159.972 276.759 160 276.659 160H275.759L279.197 151.402H280.373L283.811 160Z" fill="black"/>
<rect x="217" y="33" width="80" height="40" fill="#37775D"/>
<path d="M235.38 82.72H233.898L233.508 84.676H234.99L235.38 82.72ZM237.648 81.934L237.57 82.384C237.55 82.5 237.502 82.586 237.426 82.642C237.354 82.694 237.242 82.72 237.09 82.72H236.262L235.872 84.676H236.946C237.062 84.676 237.144 84.71 237.192 84.778C237.244 84.842 237.258 84.956 237.234 85.12L237.18 85.462H235.758L235.254 88H234.768C234.716 88 234.668 87.988 234.624 87.964C234.58 87.94 234.542 87.908 234.51 87.868C234.482 87.828 234.462 87.78 234.45 87.724C234.438 87.668 234.438 87.606 234.45 87.538L234.876 85.462H233.394L232.968 87.592C232.944 87.74 232.886 87.846 232.794 87.91C232.702 87.97 232.598 88 232.482 88H232.002L232.512 85.462H231.636C231.524 85.462 231.442 85.43 231.39 85.366C231.342 85.298 231.33 85.182 231.354 85.018L231.402 84.676H232.626L233.016 82.72H231.624L231.702 82.276C231.722 82.16 231.768 82.074 231.84 82.018C231.916 81.962 232.03 81.934 232.182 81.934H233.13L233.562 79.786C233.586 79.666 233.64 79.572 233.724 79.504C233.812 79.436 233.916 79.402 234.036 79.402H234.516L234.012 81.934H235.494L235.998 79.402H236.472C236.588 79.402 236.678 79.44 236.742 79.516C236.81 79.592 236.834 79.688 236.814 79.804L236.376 81.934H237.648ZM238.741 81.73C238.797 81.338 238.905 80.992 239.065 80.692C239.225 80.388 239.427 80.134 239.671 79.93C239.919 79.726 240.201 79.572 240.517 79.468C240.837 79.36 241.181 79.306 241.549 79.306C241.913 79.306 242.249 79.358 242.557 79.462C242.865 79.566 243.129 79.714 243.349 79.906C243.573 80.098 243.747 80.33 243.871 80.602C243.995 80.874 244.057 81.176 244.057 81.508C244.057 81.78 244.021 82.024 243.949 82.24C243.881 82.452 243.781 82.638 243.649 82.798C243.521 82.958 243.365 83.094 243.181 83.206C242.997 83.318 242.791 83.41 242.563 83.482C243.123 83.626 243.543 83.874 243.823 84.226C244.107 84.574 244.249 85.01 244.249 85.534C244.249 85.93 244.173 86.286 244.021 86.602C243.873 86.918 243.669 87.188 243.409 87.412C243.149 87.632 242.845 87.802 242.497 87.922C242.153 88.038 241.783 88.096 241.387 88.096C240.931 88.096 240.541 88.04 240.217 87.928C239.893 87.812 239.619 87.654 239.395 87.454C239.171 87.254 238.987 87.018 238.843 86.746C238.699 86.47 238.577 86.172 238.477 85.852L238.939 85.66C239.059 85.608 239.175 85.594 239.287 85.618C239.403 85.642 239.487 85.708 239.539 85.816C239.591 85.928 239.655 86.062 239.731 86.218C239.811 86.374 239.919 86.524 240.055 86.668C240.191 86.812 240.363 86.934 240.571 87.034C240.783 87.134 241.051 87.184 241.375 87.184C241.675 87.184 241.937 87.136 242.161 87.04C242.389 86.94 242.577 86.812 242.725 86.656C242.877 86.5 242.991 86.326 243.067 86.134C243.143 85.942 243.181 85.752 243.181 85.564C243.181 85.332 243.151 85.12 243.091 84.928C243.031 84.736 242.919 84.57 242.755 84.43C242.591 84.29 242.365 84.18 242.077 84.1C241.793 84.02 241.427 83.98 240.979 83.98V83.206C241.347 83.202 241.659 83.162 241.915 83.086C242.175 83.01 242.385 82.906 242.545 82.774C242.709 82.642 242.827 82.484 242.899 82.3C242.975 82.116 243.013 81.912 243.013 81.688C243.013 81.44 242.973 81.224 242.893 81.04C242.817 80.856 242.711 80.704 242.575 80.584C242.439 80.464 242.277 80.374 242.089 80.314C241.905 80.254 241.705 80.224 241.489 80.224C241.273 80.224 241.071 80.256 240.883 80.32C240.699 80.384 240.535 80.474 240.391 80.59C240.251 80.702 240.133 80.836 240.037 80.992C239.941 81.148 239.873 81.32 239.833 81.508C239.781 81.648 239.715 81.742 239.635 81.79C239.559 81.834 239.447 81.846 239.299 81.826L238.741 81.73ZM251.408 79.402V79.882C251.408 80.018 251.392 80.13 251.36 80.218C251.332 80.306 251.304 80.38 251.276 80.44L247.712 87.622C247.66 87.726 247.588 87.816 247.496 87.892C247.404 87.964 247.282 88 247.13 88H246.362L249.974 80.908C250.026 80.808 250.08 80.716 250.136 80.632C250.192 80.548 250.252 80.468 250.316 80.392H245.828C245.76 80.392 245.7 80.366 245.648 80.314C245.596 80.258 245.57 80.196 245.57 80.128V79.402H251.408ZM258.369 79.402V79.882C258.369 80.018 258.353 80.13 258.321 80.218C258.293 80.306 258.265 80.38 258.237 80.44L254.673 87.622C254.621 87.726 254.549 87.816 254.457 87.892C254.365 87.964 254.243 88 254.091 88H253.323L256.935 80.908C256.987 80.808 257.041 80.716 257.097 80.632C257.153 80.548 257.213 80.468 257.277 80.392H252.789C252.721 80.392 252.661 80.366 252.609 80.314C252.557 80.258 252.531 80.196 252.531 80.128V79.402H258.369ZM265.33 79.402V79.882C265.33 80.018 265.314 80.13 265.282 80.218C265.254 80.306 265.226 80.38 265.198 80.44L261.634 87.622C261.582 87.726 261.51 87.816 261.418 87.892C261.326 87.964 261.204 88 261.052 88H260.284L263.896 80.908C263.948 80.808 264.002 80.716 264.058 80.632C264.114 80.548 264.174 80.468 264.238 80.392H259.75C259.682 80.392 259.622 80.366 259.57 80.314C259.518 80.258 259.492 80.196 259.492 80.128V79.402H265.33ZM267.977 82.648C268.425 82.552 268.837 82.504 269.213 82.504C269.661 82.504 270.057 82.57 270.401 82.702C270.745 82.834 271.031 83.016 271.259 83.248C271.491 83.48 271.665 83.754 271.781 84.07C271.901 84.386 271.961 84.73 271.961 85.102C271.961 85.558 271.881 85.97 271.721 86.338C271.565 86.706 271.347 87.022 271.067 87.286C270.791 87.546 270.465 87.746 270.089 87.886C269.713 88.026 269.307 88.096 268.871 88.096C268.619 88.096 268.377 88.07 268.145 88.018C267.913 87.97 267.695 87.904 267.491 87.82C267.291 87.736 267.105 87.64 266.933 87.532C266.761 87.424 266.609 87.31 266.477 87.19L266.807 86.734C266.879 86.63 266.973 86.578 267.089 86.578C267.169 86.578 267.259 86.61 267.359 86.674C267.459 86.734 267.581 86.802 267.725 86.878C267.869 86.954 268.037 87.024 268.229 87.088C268.425 87.148 268.657 87.178 268.925 87.178C269.225 87.178 269.495 87.13 269.735 87.034C269.975 86.938 270.181 86.802 270.353 86.626C270.525 86.446 270.657 86.232 270.749 85.984C270.841 85.736 270.887 85.458 270.887 85.15C270.887 84.882 270.847 84.64 270.767 84.424C270.691 84.208 270.573 84.024 270.413 83.872C270.257 83.72 270.061 83.602 269.825 83.518C269.589 83.434 269.313 83.392 268.997 83.392C268.781 83.392 268.555 83.41 268.319 83.446C268.087 83.482 267.849 83.54 267.605 83.62L266.933 83.422L267.623 79.402H271.697V79.87C271.697 80.022 271.649 80.148 271.553 80.248C271.461 80.344 271.301 80.392 271.073 80.392H268.373L267.977 82.648ZM281.316 83.704C281.316 84.348 281.214 84.934 281.01 85.462C280.806 85.99 280.518 86.442 280.146 86.818C279.774 87.194 279.326 87.486 278.802 87.694C278.282 87.898 277.706 88 277.074 88H273.864V79.402H277.074C277.706 79.402 278.282 79.506 278.802 79.714C279.326 79.918 279.774 80.21 280.146 80.59C280.518 80.966 280.806 81.418 281.01 81.946C281.214 82.474 281.316 83.06 281.316 83.704ZM280.122 83.704C280.122 83.176 280.05 82.704 279.906 82.288C279.762 81.872 279.558 81.52 279.294 81.232C279.03 80.944 278.71 80.724 278.334 80.572C277.958 80.42 277.538 80.344 277.074 80.344H275.028V87.058H277.074C277.538 87.058 277.958 86.982 278.334 86.83C278.71 86.678 279.03 86.46 279.294 86.176C279.558 85.888 279.762 85.536 279.906 85.12C280.05 84.704 280.122 84.232 280.122 83.704Z" fill="black"/>
<rect x="23" y="105" width="80" height="40" fill="#A176C8"/>
<rect x="312" y="105" width="80" height="40" fill="#FFC3A0"/>
<path d="M334.38 153.72H332.898L332.508 155.676H333.99L334.38 153.72ZM336.648 152.934L336.57 153.384C336.55 153.5 336.502 153.586 336.426 153.642C336.354 153.694 336.242 153.72 336.09 153.72H335.262L334.872 155.676H335.946C336.062 155.676 336.144 155.71 336.192 155.778C336.244 155.842 336.258 155.956 336.234 156.12L336.18 156.462H334.758L334.254 159H333.768C333.716 159 333.668 158.988 333.624 158.964C333.58 158.94 333.542 158.908 333.51 158.868C333.482 158.828 333.462 158.78 333.45 158.724C333.438 158.668 333.438 158.606 333.45 158.538L333.876 156.462H332.394L331.968 158.592C331.944 158.74 331.886 158.846 331.794 158.91C331.702 158.97 331.598 159 331.482 159H331.002L331.512 156.462H330.636C330.524 156.462 330.442 156.43 330.39 156.366C330.342 156.298 330.33 156.182 330.354 156.018L330.402 155.676H331.626L332.016 153.72H330.624L330.702 153.276C330.722 153.16 330.768 153.074 330.84 153.018C330.916 152.962 331.03 152.934 331.182 152.934H332.13L332.562 150.786C332.586 150.666 332.64 150.572 332.724 150.504C332.812 150.436 332.916 150.402 333.036 150.402H333.516L333.012 152.934H334.494L334.998 150.402H335.472C335.588 150.402 335.678 150.44 335.742 150.516C335.81 150.592 335.834 150.688 335.814 150.804L335.376 152.934H336.648ZM339.223 151.35V154.356H342.757V155.304H339.223V159H338.059V150.402H343.357V151.35H339.223ZM346.008 151.35V154.356H349.542V155.304H346.008V159H344.844V150.402H350.142V151.35H346.008ZM357.583 157.224C357.647 157.224 357.703 157.25 357.751 157.302L358.213 157.8C357.861 158.208 357.433 158.526 356.929 158.754C356.429 158.982 355.823 159.096 355.111 159.096C354.495 159.096 353.935 158.99 353.431 158.778C352.927 158.562 352.497 158.262 352.141 157.878C351.785 157.49 351.509 157.026 351.313 156.486C351.117 155.946 351.019 155.352 351.019 154.704C351.019 154.056 351.121 153.462 351.325 152.922C351.529 152.382 351.815 151.918 352.183 151.53C352.555 151.142 352.999 150.842 353.515 150.63C354.031 150.414 354.601 150.306 355.225 150.306C355.837 150.306 356.377 150.404 356.845 150.6C357.313 150.796 357.725 151.062 358.081 151.398L357.697 151.932C357.673 151.972 357.641 152.006 357.601 152.034C357.565 152.058 357.515 152.07 357.451 152.07C357.379 152.07 357.291 152.032 357.187 151.956C357.083 151.876 356.947 151.788 356.779 151.692C356.611 151.596 356.401 151.51 356.149 151.434C355.897 151.354 355.587 151.314 355.219 151.314C354.775 151.314 354.369 151.392 354.001 151.548C353.633 151.7 353.315 151.922 353.047 152.214C352.783 152.506 352.577 152.862 352.429 153.282C352.281 153.702 352.207 154.176 352.207 154.704C352.207 155.24 352.283 155.718 352.435 156.138C352.591 156.558 352.801 156.914 353.065 157.206C353.333 157.494 353.647 157.714 354.007 157.866C354.371 158.018 354.763 158.094 355.183 158.094C355.439 158.094 355.669 158.08 355.873 158.052C356.081 158.02 356.271 157.972 356.443 157.908C356.619 157.844 356.781 157.764 356.929 157.668C357.081 157.568 357.231 157.45 357.379 157.314C357.447 157.254 357.515 157.224 357.583 157.224ZM359.245 152.73C359.301 152.338 359.409 151.992 359.569 151.692C359.729 151.388 359.931 151.134 360.175 150.93C360.423 150.726 360.705 150.572 361.021 150.468C361.341 150.36 361.685 150.306 362.053 150.306C362.417 150.306 362.753 150.358 363.061 150.462C363.369 150.566 363.633 150.714 363.853 150.906C364.077 151.098 364.251 151.33 364.375 151.602C364.499 151.874 364.561 152.176 364.561 152.508C364.561 152.78 364.525 153.024 364.453 153.24C364.385 153.452 364.285 153.638 364.153 153.798C364.025 153.958 363.869 154.094 363.685 154.206C363.501 154.318 363.295 154.41 363.067 154.482C363.627 154.626 364.047 154.874 364.327 155.226C364.611 155.574 364.753 156.01 364.753 156.534C364.753 156.93 364.677 157.286 364.525 157.602C364.377 157.918 364.173 158.188 363.913 158.412C363.653 158.632 363.349 158.802 363.001 158.922C362.657 159.038 362.287 159.096 361.891 159.096C361.435 159.096 361.045 159.04 360.721 158.928C360.397 158.812 360.123 158.654 359.899 158.454C359.675 158.254 359.491 158.018 359.347 157.746C359.203 157.47 359.081 157.172 358.981 156.852L359.443 156.66C359.563 156.608 359.679 156.594 359.791 156.618C359.907 156.642 359.991 156.708 360.043 156.816C360.095 156.928 360.159 157.062 360.235 157.218C360.315 157.374 360.423 157.524 360.559 157.668C360.695 157.812 360.867 157.934 361.075 158.034C361.287 158.134 361.555 158.184 361.879 158.184C362.179 158.184 362.441 158.136 362.665 158.04C362.893 157.94 363.081 157.812 363.229 157.656C363.381 157.5 363.495 157.326 363.571 157.134C363.647 156.942 363.685 156.752 363.685 156.564C363.685 156.332 363.655 156.12 363.595 155.928C363.535 155.736 363.423 155.57 363.259 155.43C363.095 155.29 362.869 155.18 362.581 155.1C362.297 155.02 361.931 154.98 361.483 154.98V154.206C361.851 154.202 362.163 154.162 362.419 154.086C362.679 154.01 362.889 153.906 363.049 153.774C363.213 153.642 363.331 153.484 363.403 153.3C363.479 153.116 363.517 152.912 363.517 152.688C363.517 152.44 363.477 152.224 363.397 152.04C363.321 151.856 363.215 151.704 363.079 151.584C362.943 151.464 362.781 151.374 362.593 151.314C362.409 151.254 362.209 151.224 361.993 151.224C361.777 151.224 361.575 151.256 361.387 151.32C361.203 151.384 361.039 151.474 360.895 151.59C360.755 151.702 360.637 151.836 360.541 151.992C360.445 152.148 360.377 152.32 360.337 152.508C360.285 152.648 360.219 152.742 360.139 152.79C360.063 152.834 359.951 152.846 359.803 152.826L359.245 152.73ZM371.09 155.808L369.74 152.31C369.7 152.206 369.658 152.086 369.614 151.95C369.57 151.81 369.528 151.662 369.488 151.506C369.404 151.83 369.318 152.1 369.23 152.316L367.88 155.808H371.09ZM373.514 159H372.614C372.51 159 372.426 158.974 372.362 158.922C372.298 158.87 372.25 158.804 372.218 158.724L371.414 156.648H367.556L366.752 158.724C366.728 158.796 366.682 158.86 366.614 158.916C366.546 158.972 366.462 159 366.362 159H365.462L368.9 150.402H370.076L373.514 159ZM380.147 154.704C380.147 155.456 380.065 156.108 379.901 156.66C379.741 157.208 379.521 157.662 379.241 158.022C378.961 158.382 378.629 158.65 378.245 158.826C377.865 159.002 377.457 159.09 377.021 159.09C376.581 159.09 376.171 159.002 375.791 158.826C375.415 158.65 375.087 158.382 374.807 158.022C374.527 157.662 374.307 157.208 374.147 156.66C373.987 156.108 373.907 155.456 373.907 154.704C373.907 153.952 373.987 153.3 374.147 152.748C374.307 152.196 374.527 151.74 374.807 151.38C375.087 151.016 375.415 150.746 375.791 150.57C376.171 150.394 376.581 150.306 377.021 150.306C377.457 150.306 377.865 150.394 378.245 150.57C378.629 150.746 378.961 151.016 379.241 151.38C379.521 151.74 379.741 152.196 379.901 152.748C380.065 153.3 380.147 153.952 380.147 154.704ZM379.037 154.704C379.037 154.048 378.981 153.498 378.869 153.054C378.761 152.606 378.613 152.246 378.425 151.974C378.241 151.702 378.027 151.508 377.783 151.392C377.539 151.272 377.285 151.212 377.021 151.212C376.757 151.212 376.503 151.272 376.259 151.392C376.015 151.508 375.801 151.702 375.617 151.974C375.433 152.246 375.285 152.606 375.173 153.054C375.065 153.498 375.011 154.048 375.011 154.704C375.011 155.36 375.065 155.91 375.173 156.354C375.285 156.798 375.433 157.156 375.617 157.428C375.801 157.7 376.015 157.896 376.259 158.016C376.503 158.132 376.757 158.19 377.021 158.19C377.285 158.19 377.539 158.132 377.783 158.016C378.027 157.896 378.241 157.7 378.425 157.428C378.613 157.156 378.761 156.798 378.869 156.354C378.981 155.91 379.037 155.36 379.037 154.704Z" fill="black"/>
<rect x="312" y="33" width="80" height="40" fill="#2D2D2D"/>
<rect x="24" y="177" width="80" height="40" fill="#C6AEE0"/>
<path d="M40.38 85.72H38.898L38.508 87.676H39.99L40.38 85.72ZM42.648 84.934L42.57 85.384C42.55 85.5 42.502 85.586 42.426 85.642C42.354 85.694 42.242 85.72 42.09 85.72H41.262L40.872 87.676H41.946C42.062 87.676 42.144 87.71 42.192 87.778C42.244 87.842 42.258 87.956 42.234 88.12L42.18 88.462H40.758L40.254 91H39.768C39.716 91 39.668 90.988 39.624 90.964C39.58 90.94 39.542 90.908 39.51 90.868C39.482 90.828 39.462 90.78 39.45 90.724C39.438 90.668 39.438 90.606 39.45 90.538L39.876 88.462H38.394L37.968 90.592C37.944 90.74 37.886 90.846 37.794 90.91C37.702 90.97 37.598 91 37.482 91H37.002L37.512 88.462H36.636C36.524 88.462 36.442 88.43 36.39 88.366C36.342 88.298 36.33 88.182 36.354 88.018L36.402 87.676H37.626L38.016 85.72H36.624L36.702 85.276C36.722 85.16 36.768 85.074 36.84 85.018C36.916 84.962 37.03 84.934 37.182 84.934H38.13L38.562 82.786C38.586 82.666 38.64 82.572 38.724 82.504C38.812 82.436 38.916 82.402 39.036 82.402H39.516L39.012 84.934H40.494L40.998 82.402H41.472C41.588 82.402 41.678 82.44 41.742 82.516C41.81 82.592 41.834 82.688 41.814 82.804L41.376 84.934H42.648ZM45.1329 85.648C45.5809 85.552 45.9929 85.504 46.3689 85.504C46.8169 85.504 47.2129 85.57 47.5569 85.702C47.9009 85.834 48.1869 86.016 48.4149 86.248C48.6469 86.48 48.8209 86.754 48.9369 87.07C49.0569 87.386 49.1169 87.73 49.1169 88.102C49.1169 88.558 49.0369 88.97 48.8769 89.338C48.7209 89.706 48.5029 90.022 48.2229 90.286C47.9469 90.546 47.6209 90.746 47.2449 90.886C46.8689 91.026 46.4629 91.096 46.0269 91.096C45.7749 91.096 45.5329 91.07 45.3009 91.018C45.0689 90.97 44.8509 90.904 44.6469 90.82C44.4469 90.736 44.2609 90.64 44.0889 90.532C43.9169 90.424 43.7649 90.31 43.6329 90.19L43.9629 89.734C44.0349 89.63 44.1289 89.578 44.2449 89.578C44.3249 89.578 44.4149 89.61 44.5149 89.674C44.6149 89.734 44.7369 89.802 44.8809 89.878C45.0249 89.954 45.1929 90.024 45.3849 90.088C45.5809 90.148 45.8129 90.178 46.0809 90.178C46.3809 90.178 46.6509 90.13 46.8909 90.034C47.1309 89.938 47.3369 89.802 47.5089 89.626C47.6809 89.446 47.8129 89.232 47.9049 88.984C47.9969 88.736 48.0429 88.458 48.0429 88.15C48.0429 87.882 48.0029 87.64 47.9229 87.424C47.8469 87.208 47.7289 87.024 47.5689 86.872C47.4129 86.72 47.2169 86.602 46.9809 86.518C46.7449 86.434 46.4689 86.392 46.1529 86.392C45.9369 86.392 45.7109 86.41 45.4749 86.446C45.2429 86.482 45.0049 86.54 44.7609 86.62L44.0889 86.422L44.7789 82.402H48.8529V82.87C48.8529 83.022 48.8049 83.148 48.7089 83.248C48.6169 83.344 48.4569 83.392 48.2289 83.392H45.5289L45.1329 85.648ZM51.6199 84.928C51.6199 85.2 51.6579 85.444 51.7339 85.66C51.8139 85.872 51.9259 86.052 52.0699 86.2C52.2179 86.348 52.3959 86.46 52.6039 86.536C52.8159 86.612 53.0519 86.65 53.3119 86.65C53.5999 86.65 53.8539 86.604 54.0739 86.512C54.2979 86.416 54.4859 86.29 54.6379 86.134C54.7899 85.978 54.9059 85.798 54.9859 85.594C55.0659 85.39 55.1059 85.178 55.1059 84.958C55.1059 84.69 55.0619 84.448 54.9739 84.232C54.8899 84.012 54.7719 83.826 54.6199 83.674C54.4679 83.522 54.2859 83.406 54.0739 83.326C53.8659 83.242 53.6359 83.2 53.3839 83.2C53.1199 83.2 52.8799 83.244 52.6639 83.332C52.4479 83.416 52.2619 83.534 52.1059 83.686C51.9499 83.838 51.8299 84.02 51.7459 84.232C51.6619 84.444 51.6199 84.676 51.6199 84.928ZM54.1159 87.574C54.2039 87.458 54.2859 87.348 54.3619 87.244C54.4379 87.14 54.5099 87.036 54.5779 86.932C54.3579 87.108 54.1099 87.242 53.8339 87.334C53.5579 87.426 53.2659 87.472 52.9579 87.472C52.6339 87.472 52.3259 87.418 52.0339 87.31C51.7459 87.202 51.4919 87.044 51.2719 86.836C51.0519 86.624 50.8759 86.366 50.7439 86.062C50.6159 85.754 50.5519 85.402 50.5519 85.006C50.5519 84.63 50.6219 84.278 50.7619 83.95C50.9019 83.622 51.0979 83.336 51.3499 83.092C51.6019 82.848 51.9019 82.656 52.2499 82.516C52.5979 82.376 52.9799 82.306 53.3959 82.306C53.8079 82.306 54.1819 82.374 54.5179 82.51C54.8539 82.646 55.1419 82.836 55.3819 83.08C55.6219 83.324 55.8059 83.616 55.9339 83.956C56.0659 84.296 56.1319 84.672 56.1319 85.084C56.1319 85.332 56.1079 85.568 56.0599 85.792C56.0159 86.012 55.9499 86.23 55.8619 86.446C55.7779 86.658 55.6739 86.87 55.5499 87.082C55.4259 87.29 55.2859 87.504 55.1299 87.724L53.0359 90.748C52.9839 90.824 52.9099 90.886 52.8139 90.934C52.7179 90.978 52.6079 91 52.4839 91H51.4999L54.1159 87.574ZM61.2628 87.898V84.352C61.2628 84.248 61.2668 84.134 61.2748 84.01C61.2828 83.886 61.2948 83.76 61.3108 83.632L58.1788 87.898H61.2628ZM63.5008 87.898V88.51C63.5008 88.574 63.4808 88.628 63.4408 88.672C63.4048 88.716 63.3468 88.738 63.2668 88.738H62.1988V91H61.2628V88.738H57.4468C57.3668 88.738 57.2968 88.716 57.2368 88.672C57.1808 88.624 57.1448 88.566 57.1288 88.498L57.0208 87.952L61.2028 82.402H62.1988V87.898H63.5008ZM70.4438 86.704C70.4438 87.456 70.3618 88.108 70.1978 88.66C70.0378 89.208 69.8178 89.662 69.5378 90.022C69.2578 90.382 68.9258 90.65 68.5418 90.826C68.1618 91.002 67.7538 91.09 67.3178 91.09C66.8778 91.09 66.4678 91.002 66.0878 90.826C65.7118 90.65 65.3838 90.382 65.1038 90.022C64.8238 89.662 64.6038 89.208 64.4438 88.66C64.2838 88.108 64.2038 87.456 64.2038 86.704C64.2038 85.952 64.2838 85.3 64.4438 84.748C64.6038 84.196 64.8238 83.74 65.1038 83.38C65.3838 83.016 65.7118 82.746 66.0878 82.57C66.4678 82.394 66.8778 82.306 67.3178 82.306C67.7538 82.306 68.1618 82.394 68.5418 82.57C68.9258 82.746 69.2578 83.016 69.5378 83.38C69.8178 83.74 70.0378 84.196 70.1978 84.748C70.3618 85.3 70.4438 85.952 70.4438 86.704ZM69.3338 86.704C69.3338 86.048 69.2778 85.498 69.1658 85.054C69.0578 84.606 68.9098 84.246 68.7218 83.974C68.5378 83.702 68.3238 83.508 68.0798 83.392C67.8358 83.272 67.5818 83.212 67.3178 83.212C67.0538 83.212 66.7998 83.272 66.5558 83.392C66.3118 83.508 66.0978 83.702 65.9138 83.974C65.7298 84.246 65.5818 84.606 65.4698 85.054C65.3618 85.498 65.3078 86.048 65.3078 86.704C65.3078 87.36 65.3618 87.91 65.4698 88.354C65.5818 88.798 65.7298 89.156 65.9138 89.428C66.0978 89.7 66.3118 89.896 66.5558 90.016C66.7998 90.132 67.0538 90.19 67.3178 90.19C67.5818 90.19 67.8358 90.132 68.0798 90.016C68.3238 89.896 68.5378 89.7 68.7218 89.428C68.9098 89.156 69.0578 88.798 69.1658 88.354C69.2778 87.91 69.3338 87.36 69.3338 86.704ZM74.2847 90.244C74.5647 90.244 74.8147 90.206 75.0347 90.13C75.2587 90.05 75.4467 89.94 75.5987 89.8C75.7547 89.656 75.8727 89.486 75.9527 89.29C76.0367 89.09 76.0787 88.87 76.0787 88.63C76.0787 88.334 76.0287 88.082 75.9287 87.874C75.8327 87.662 75.7007 87.49 75.5327 87.358C75.3687 87.226 75.1787 87.13 74.9627 87.07C74.7467 87.006 74.5207 86.974 74.2847 86.974C74.0487 86.974 73.8227 87.006 73.6067 87.07C73.3907 87.13 73.1987 87.226 73.0307 87.358C72.8667 87.49 72.7347 87.662 72.6347 87.874C72.5387 88.082 72.4907 88.334 72.4907 88.63C72.4907 88.87 72.5307 89.09 72.6107 89.29C72.6947 89.486 72.8127 89.656 72.9647 89.8C73.1207 89.94 73.3087 90.05 73.5287 90.13C73.7527 90.206 74.0047 90.244 74.2847 90.244ZM74.2847 83.134C74.0287 83.134 73.8027 83.172 73.6067 83.248C73.4147 83.324 73.2527 83.428 73.1207 83.56C72.9927 83.692 72.8947 83.846 72.8267 84.022C72.7627 84.198 72.7307 84.386 72.7307 84.586C72.7307 84.782 72.7587 84.972 72.8147 85.156C72.8707 85.34 72.9607 85.504 73.0847 85.648C73.2087 85.788 73.3687 85.902 73.5647 85.99C73.7647 86.074 74.0047 86.116 74.2847 86.116C74.5647 86.116 74.8027 86.074 74.9987 85.99C75.1987 85.902 75.3607 85.788 75.4847 85.648C75.6087 85.504 75.6987 85.34 75.7547 85.156C75.8107 84.972 75.8387 84.782 75.8387 84.586C75.8387 84.386 75.8047 84.198 75.7367 84.022C75.6727 83.846 75.5747 83.692 75.4427 83.56C75.3147 83.428 75.1527 83.324 74.9567 83.248C74.7647 83.172 74.5407 83.134 74.2847 83.134ZM75.5147 86.518C76.0507 86.67 76.4627 86.924 76.7507 87.28C77.0387 87.636 77.1827 88.092 77.1827 88.648C77.1827 89.024 77.1107 89.364 76.9667 89.668C76.8267 89.968 76.6287 90.224 76.3727 90.436C76.1207 90.648 75.8167 90.812 75.4607 90.928C75.1047 91.04 74.7127 91.096 74.2847 91.096C73.8567 91.096 73.4647 91.04 73.1087 90.928C72.7527 90.812 72.4467 90.648 72.1907 90.436C71.9347 90.224 71.7367 89.968 71.5967 89.668C71.4567 89.364 71.3867 89.024 71.3867 88.648C71.3867 88.092 71.5307 87.636 71.8187 87.28C72.1067 86.924 72.5187 86.67 73.0547 86.518C72.6027 86.35 72.2607 86.1 72.0287 85.768C71.8007 85.432 71.6867 85.032 71.6867 84.568C71.6867 84.252 71.7487 83.956 71.8727 83.68C71.9967 83.404 72.1727 83.164 72.4007 82.96C72.6287 82.756 72.9007 82.596 73.2167 82.48C73.5367 82.364 73.8927 82.306 74.2847 82.306C74.6727 82.306 75.0267 82.364 75.3467 82.48C75.6667 82.596 75.9407 82.756 76.1687 82.96C76.3967 83.164 76.5727 83.404 76.6967 83.68C76.8207 83.956 76.8827 84.252 76.8827 84.568C76.8827 85.032 76.7667 85.432 76.5347 85.768C76.3067 86.1 75.9667 86.35 75.5147 86.518ZM84.2516 82.402V82.882C84.2516 83.018 84.2356 83.13 84.2036 83.218C84.1756 83.306 84.1476 83.38 84.1196 83.44L80.5556 90.622C80.5036 90.726 80.4316 90.816 80.3396 90.892C80.2476 90.964 80.1256 91 79.9736 91H79.2056L82.8176 83.908C82.8696 83.808 82.9236 83.716 82.9796 83.632C83.0356 83.548 83.0956 83.468 83.1596 83.392H78.6716C78.6036 83.392 78.5436 83.366 78.4916 83.314C78.4396 83.258 78.4136 83.196 78.4136 83.128V82.402H84.2516Z" fill="black"/>
<path d="M40.38 226.72H38.898L38.508 228.676H39.99L40.38 226.72ZM42.648 225.934L42.57 226.384C42.55 226.5 42.502 226.586 42.426 226.642C42.354 226.694 42.242 226.72 42.09 226.72H41.262L40.872 228.676H41.946C42.062 228.676 42.144 228.71 42.192 228.778C42.244 228.842 42.258 228.956 42.234 229.12L42.18 229.462H40.758L40.254 232H39.768C39.716 232 39.668 231.988 39.624 231.964C39.58 231.94 39.542 231.908 39.51 231.868C39.482 231.828 39.462 231.78 39.45 231.724C39.438 231.668 39.438 231.606 39.45 231.538L39.876 229.462H38.394L37.968 231.592C37.944 231.74 37.886 231.846 37.794 231.91C37.702 231.97 37.598 232 37.482 232H37.002L37.512 229.462H36.636C36.524 229.462 36.442 229.43 36.39 229.366C36.342 229.298 36.33 229.182 36.354 229.018L36.402 228.676H37.626L38.016 226.72H36.624L36.702 226.276C36.722 226.16 36.768 226.074 36.84 226.018C36.916 225.962 37.03 225.934 37.182 225.934H38.13L38.562 223.786C38.586 223.666 38.64 223.572 38.724 223.504C38.812 223.436 38.916 223.402 39.036 223.402H39.516L39.012 225.934H40.494L40.998 223.402H41.472C41.588 223.402 41.678 223.44 41.742 223.516C41.81 223.592 41.834 223.688 41.814 223.804L41.376 225.934H42.648ZM50.0949 230.224C50.1589 230.224 50.2149 230.25 50.2629 230.302L50.7249 230.8C50.3729 231.208 49.9449 231.526 49.4409 231.754C48.9409 231.982 48.3349 232.096 47.6229 232.096C47.0069 232.096 46.4469 231.99 45.9429 231.778C45.4389 231.562 45.0089 231.262 44.6529 230.878C44.2969 230.49 44.0209 230.026 43.8249 229.486C43.6289 228.946 43.5309 228.352 43.5309 227.704C43.5309 227.056 43.6329 226.462 43.8369 225.922C44.0409 225.382 44.3269 224.918 44.6949 224.53C45.0669 224.142 45.5109 223.842 46.0269 223.63C46.5429 223.414 47.1129 223.306 47.7369 223.306C48.3489 223.306 48.8889 223.404 49.3569 223.6C49.8249 223.796 50.2369 224.062 50.5929 224.398L50.2089 224.932C50.1849 224.972 50.1529 225.006 50.1129 225.034C50.0769 225.058 50.0269 225.07 49.9629 225.07C49.8909 225.07 49.8029 225.032 49.6989 224.956C49.5949 224.876 49.4589 224.788 49.2909 224.692C49.1229 224.596 48.9129 224.51 48.6609 224.434C48.4089 224.354 48.0989 224.314 47.7309 224.314C47.2869 224.314 46.8809 224.392 46.5129 224.548C46.1449 224.7 45.8269 224.922 45.5589 225.214C45.2949 225.506 45.0889 225.862 44.9409 226.282C44.7929 226.702 44.7189 227.176 44.7189 227.704C44.7189 228.24 44.7949 228.718 44.9469 229.138C45.1029 229.558 45.3129 229.914 45.5769 230.206C45.8449 230.494 46.1589 230.714 46.5189 230.866C46.8829 231.018 47.2749 231.094 47.6949 231.094C47.9509 231.094 48.1809 231.08 48.3849 231.052C48.5929 231.02 48.7829 230.972 48.9549 230.908C49.1309 230.844 49.2929 230.764 49.4409 230.668C49.5929 230.568 49.7429 230.45 49.8909 230.314C49.9589 230.254 50.0269 230.224 50.0949 230.224ZM54.4446 231.208C54.7326 231.208 54.9926 231.162 55.2246 231.07C55.4606 230.978 55.6606 230.85 55.8246 230.686C55.9926 230.522 56.1206 230.328 56.2086 230.104C56.3006 229.88 56.3466 229.636 56.3466 229.372C56.3466 229.092 56.3026 228.84 56.2146 228.616C56.1266 228.388 56.0006 228.196 55.8366 228.04C55.6766 227.88 55.4846 227.758 55.2606 227.674C55.0366 227.59 54.7906 227.548 54.5226 227.548C54.2346 227.548 53.9746 227.598 53.7426 227.698C53.5106 227.794 53.3126 227.926 53.1486 228.094C52.9886 228.258 52.8646 228.45 52.7766 228.67C52.6926 228.886 52.6506 229.112 52.6506 229.348C52.6506 229.624 52.6906 229.876 52.7706 230.104C52.8506 230.332 52.9666 230.528 53.1186 230.692C53.2746 230.856 53.4626 230.984 53.6826 231.076C53.9066 231.164 54.1606 231.208 54.4446 231.208ZM53.8206 226.624C53.7446 226.72 53.6706 226.814 53.5986 226.906C53.5306 226.994 53.4646 227.082 53.4006 227.17C53.6046 227.03 53.8286 226.922 54.0726 226.846C54.3166 226.77 54.5826 226.732 54.8706 226.732C55.2186 226.732 55.5466 226.79 55.8546 226.906C56.1626 227.018 56.4306 227.184 56.6586 227.404C56.8906 227.62 57.0746 227.888 57.2106 228.208C57.3466 228.524 57.4146 228.886 57.4146 229.294C57.4146 229.69 57.3426 230.058 57.1986 230.398C57.0546 230.738 56.8526 231.034 56.5926 231.286C56.3366 231.538 56.0266 231.736 55.6626 231.88C55.3026 232.024 54.9046 232.096 54.4686 232.096C54.0366 232.096 53.6446 232.028 53.2926 231.892C52.9406 231.752 52.6406 231.556 52.3926 231.304C52.1486 231.048 51.9586 230.74 51.8226 230.38C51.6906 230.016 51.6246 229.61 51.6246 229.162C51.6246 228.786 51.7066 228.386 51.8706 227.962C52.0386 227.534 52.3046 227.078 52.6686 226.594L54.8526 223.66C54.9086 223.588 54.9846 223.528 55.0806 223.48C55.1806 223.428 55.2946 223.402 55.4226 223.402H56.3706L53.8206 226.624ZM63.6015 228.808L62.2515 225.31C62.2115 225.206 62.1695 225.086 62.1255 224.95C62.0815 224.81 62.0395 224.662 61.9995 224.506C61.9155 224.83 61.8295 225.1 61.7415 225.316L60.3915 228.808H63.6015ZM66.0255 232H65.1255C65.0215 232 64.9375 231.974 64.8735 231.922C64.8095 231.87 64.7615 231.804 64.7295 231.724L63.9255 229.648H60.0675L59.2635 231.724C59.2395 231.796 59.1935 231.86 59.1255 231.916C59.0575 231.972 58.9735 232 58.8735 232H57.9735L61.4115 223.402H62.5875L66.0255 232ZM72.4606 231.052L72.4546 232H67.1566V223.402H72.4546V224.35H68.3206V227.206H71.6686V228.118H68.3206V231.052H72.4606ZM79.3864 231.052L79.3804 232H74.0824V223.402H79.3804V224.35H75.2464V227.206H78.5944V228.118H75.2464V231.052H79.3864ZM86.5102 227.704C86.5102 228.456 86.4282 229.108 86.2642 229.66C86.1042 230.208 85.8842 230.662 85.6042 231.022C85.3242 231.382 84.9922 231.65 84.6082 231.826C84.2282 232.002 83.8202 232.09 83.3842 232.09C82.9442 232.09 82.5342 232.002 82.1542 231.826C81.7782 231.65 81.4502 231.382 81.1702 231.022C80.8902 230.662 80.6702 230.208 80.5102 229.66C80.3502 229.108 80.2702 228.456 80.2702 227.704C80.2702 226.952 80.3502 226.3 80.5102 225.748C80.6702 225.196 80.8902 224.74 81.1702 224.38C81.4502 224.016 81.7782 223.746 82.1542 223.57C82.5342 223.394 82.9442 223.306 83.3842 223.306C83.8202 223.306 84.2282 223.394 84.6082 223.57C84.9922 223.746 85.3242 224.016 85.6042 224.38C85.8842 224.74 86.1042 225.196 86.2642 225.748C86.4282 226.3 86.5102 226.952 86.5102 227.704ZM85.4002 227.704C85.4002 227.048 85.3442 226.498 85.2322 226.054C85.1242 225.606 84.9762 225.246 84.7882 224.974C84.6042 224.702 84.3902 224.508 84.1462 224.392C83.9022 224.272 83.6482 224.212 83.3842 224.212C83.1202 224.212 82.8662 224.272 82.6222 224.392C82.3782 224.508 82.1642 224.702 81.9802 224.974C81.7962 225.246 81.6482 225.606 81.5362 226.054C81.4282 226.498 81.3742 227.048 81.3742 227.704C81.3742 228.36 81.4282 228.91 81.5362 229.354C81.6482 229.798 81.7962 230.156 81.9802 230.428C82.1642 230.7 82.3782 230.896 82.6222 231.016C82.8662 231.132 83.1202 231.19 83.3842 231.19C83.6482 231.19 83.9022 231.132 84.1462 231.016C84.3902 230.896 84.6042 230.7 84.7882 230.428C84.9762 230.156 85.1242 229.798 85.2322 229.354C85.3442 228.91 85.4002 228.36 85.4002 227.704Z" fill="black"/>
<path d="M139.38 83.72H137.898L137.508 85.676H138.99L139.38 83.72ZM141.648 82.934L141.57 83.384C141.55 83.5 141.502 83.586 141.426 83.642C141.354 83.694 141.242 83.72 141.09 83.72H140.262L139.872 85.676H140.946C141.062 85.676 141.144 85.71 141.192 85.778C141.244 85.842 141.258 85.956 141.234 86.12L141.18 86.462H139.758L139.254 89H138.768C138.716 89 138.668 88.988 138.624 88.964C138.58 88.94 138.542 88.908 138.51 88.868C138.482 88.828 138.462 88.78 138.45 88.724C138.438 88.668 138.438 88.606 138.45 88.538L138.876 86.462H137.394L136.968 88.592C136.944 88.74 136.886 88.846 136.794 88.91C136.702 88.97 136.598 89 136.482 89H136.002L136.512 86.462H135.636C135.524 86.462 135.442 86.43 135.39 86.366C135.342 86.298 135.33 86.182 135.354 86.018L135.402 85.676H136.626L137.016 83.72H135.624L135.702 83.276C135.722 83.16 135.768 83.074 135.84 83.018C135.916 82.962 136.03 82.934 136.182 82.934H137.13L137.562 80.786C137.586 80.666 137.64 80.572 137.724 80.504C137.812 80.436 137.916 80.402 138.036 80.402H138.516L138.012 82.934H139.494L139.998 80.402H140.472C140.588 80.402 140.678 80.44 140.742 80.516C140.81 80.592 140.834 80.688 140.814 80.804L140.376 82.934H141.648ZM150.511 84.704C150.511 85.348 150.409 85.934 150.205 86.462C150.001 86.99 149.713 87.442 149.341 87.818C148.969 88.194 148.521 88.486 147.997 88.694C147.477 88.898 146.901 89 146.269 89H143.059V80.402H146.269C146.901 80.402 147.477 80.506 147.997 80.714C148.521 80.918 148.969 81.21 149.341 81.59C149.713 81.966 150.001 82.418 150.205 82.946C150.409 83.474 150.511 84.06 150.511 84.704ZM149.317 84.704C149.317 84.176 149.245 83.704 149.101 83.288C148.957 82.872 148.753 82.52 148.489 82.232C148.225 81.944 147.905 81.724 147.529 81.572C147.153 81.42 146.733 81.344 146.269 81.344H144.223V88.058H146.269C146.733 88.058 147.153 87.982 147.529 87.83C147.905 87.678 148.225 87.46 148.489 87.176C148.753 86.888 148.957 86.536 149.101 86.12C149.245 85.704 149.317 85.232 149.317 84.704ZM155.47 85.898V82.352C155.47 82.248 155.474 82.134 155.482 82.01C155.49 81.886 155.502 81.76 155.518 81.632L152.386 85.898H155.47ZM157.708 85.898V86.51C157.708 86.574 157.688 86.628 157.648 86.672C157.612 86.716 157.554 86.738 157.474 86.738H156.406V89H155.47V86.738H151.654C151.574 86.738 151.504 86.716 151.444 86.672C151.388 86.624 151.352 86.566 151.336 86.498L151.228 85.952L155.41 80.402H156.406V85.898H157.708ZM161.531 88.244C161.811 88.244 162.061 88.206 162.281 88.13C162.505 88.05 162.693 87.94 162.845 87.8C163.001 87.656 163.119 87.486 163.199 87.29C163.283 87.09 163.325 86.87 163.325 86.63C163.325 86.334 163.275 86.082 163.175 85.874C163.079 85.662 162.947 85.49 162.779 85.358C162.615 85.226 162.425 85.13 162.209 85.07C161.993 85.006 161.767 84.974 161.531 84.974C161.295 84.974 161.069 85.006 160.853 85.07C160.637 85.13 160.445 85.226 160.277 85.358C160.113 85.49 159.981 85.662 159.881 85.874C159.785 86.082 159.737 86.334 159.737 86.63C159.737 86.87 159.777 87.09 159.857 87.29C159.941 87.486 160.059 87.656 160.211 87.8C160.367 87.94 160.555 88.05 160.775 88.13C160.999 88.206 161.251 88.244 161.531 88.244ZM161.531 81.134C161.275 81.134 161.049 81.172 160.853 81.248C160.661 81.324 160.499 81.428 160.367 81.56C160.239 81.692 160.141 81.846 160.073 82.022C160.009 82.198 159.977 82.386 159.977 82.586C159.977 82.782 160.005 82.972 160.061 83.156C160.117 83.34 160.207 83.504 160.331 83.648C160.455 83.788 160.615 83.902 160.811 83.99C161.011 84.074 161.251 84.116 161.531 84.116C161.811 84.116 162.049 84.074 162.245 83.99C162.445 83.902 162.607 83.788 162.731 83.648C162.855 83.504 162.945 83.34 163.001 83.156C163.057 82.972 163.085 82.782 163.085 82.586C163.085 82.386 163.051 82.198 162.983 82.022C162.919 81.846 162.821 81.692 162.689 81.56C162.561 81.428 162.399 81.324 162.203 81.248C162.011 81.172 161.787 81.134 161.531 81.134ZM162.761 84.518C163.297 84.67 163.709 84.924 163.997 85.28C164.285 85.636 164.429 86.092 164.429 86.648C164.429 87.024 164.357 87.364 164.213 87.668C164.073 87.968 163.875 88.224 163.619 88.436C163.367 88.648 163.063 88.812 162.707 88.928C162.351 89.04 161.959 89.096 161.531 89.096C161.103 89.096 160.711 89.04 160.355 88.928C159.999 88.812 159.693 88.648 159.437 88.436C159.181 88.224 158.983 87.968 158.843 87.668C158.703 87.364 158.633 87.024 158.633 86.648C158.633 86.092 158.777 85.636 159.065 85.28C159.353 84.924 159.765 84.67 160.301 84.518C159.849 84.35 159.507 84.1 159.275 83.768C159.047 83.432 158.933 83.032 158.933 82.568C158.933 82.252 158.995 81.956 159.119 81.68C159.243 81.404 159.419 81.164 159.647 80.96C159.875 80.756 160.147 80.596 160.463 80.48C160.783 80.364 161.139 80.306 161.531 80.306C161.919 80.306 162.273 80.364 162.593 80.48C162.913 80.596 163.187 80.756 163.415 80.96C163.643 81.164 163.819 81.404 163.943 81.68C164.067 81.956 164.129 82.252 164.129 82.568C164.129 83.032 164.013 83.432 163.781 83.768C163.553 84.1 163.213 84.35 162.761 84.518ZM167.184 83.648C167.632 83.552 168.044 83.504 168.42 83.504C168.868 83.504 169.264 83.57 169.608 83.702C169.952 83.834 170.238 84.016 170.466 84.248C170.698 84.48 170.872 84.754 170.988 85.07C171.108 85.386 171.168 85.73 171.168 86.102C171.168 86.558 171.088 86.97 170.928 87.338C170.772 87.706 170.554 88.022 170.274 88.286C169.998 88.546 169.672 88.746 169.296 88.886C168.92 89.026 168.514 89.096 168.078 89.096C167.826 89.096 167.584 89.07 167.352 89.018C167.12 88.97 166.902 88.904 166.698 88.82C166.498 88.736 166.312 88.64 166.14 88.532C165.968 88.424 165.816 88.31 165.684 88.19L166.014 87.734C166.086 87.63 166.18 87.578 166.296 87.578C166.376 87.578 166.466 87.61 166.566 87.674C166.666 87.734 166.788 87.802 166.932 87.878C167.076 87.954 167.244 88.024 167.436 88.088C167.632 88.148 167.864 88.178 168.132 88.178C168.432 88.178 168.702 88.13 168.942 88.034C169.182 87.938 169.388 87.802 169.56 87.626C169.732 87.446 169.864 87.232 169.956 86.984C170.048 86.736 170.094 86.458 170.094 86.15C170.094 85.882 170.054 85.64 169.974 85.424C169.898 85.208 169.78 85.024 169.62 84.872C169.464 84.72 169.268 84.602 169.032 84.518C168.796 84.434 168.52 84.392 168.204 84.392C167.988 84.392 167.762 84.41 167.526 84.446C167.294 84.482 167.056 84.54 166.812 84.62L166.14 84.422L166.83 80.402H170.904V80.87C170.904 81.022 170.856 81.148 170.76 81.248C170.668 81.344 170.508 81.392 170.28 81.392H167.58L167.184 83.648ZM173.671 82.928C173.671 83.2 173.709 83.444 173.785 83.66C173.865 83.872 173.977 84.052 174.121 84.2C174.269 84.348 174.447 84.46 174.655 84.536C174.867 84.612 175.103 84.65 175.363 84.65C175.651 84.65 175.905 84.604 176.125 84.512C176.349 84.416 176.537 84.29 176.689 84.134C176.841 83.978 176.957 83.798 177.037 83.594C177.117 83.39 177.157 83.178 177.157 82.958C177.157 82.69 177.113 82.448 177.025 82.232C176.941 82.012 176.823 81.826 176.671 81.674C176.519 81.522 176.337 81.406 176.125 81.326C175.917 81.242 175.687 81.2 175.435 81.2C175.171 81.2 174.931 81.244 174.715 81.332C174.499 81.416 174.313 81.534 174.157 81.686C174.001 81.838 173.881 82.02 173.797 82.232C173.713 82.444 173.671 82.676 173.671 82.928ZM176.167 85.574C176.255 85.458 176.337 85.348 176.413 85.244C176.489 85.14 176.561 85.036 176.629 84.932C176.409 85.108 176.161 85.242 175.885 85.334C175.609 85.426 175.317 85.472 175.009 85.472C174.685 85.472 174.377 85.418 174.085 85.31C173.797 85.202 173.543 85.044 173.323 84.836C173.103 84.624 172.927 84.366 172.795 84.062C172.667 83.754 172.603 83.402 172.603 83.006C172.603 82.63 172.673 82.278 172.813 81.95C172.953 81.622 173.149 81.336 173.401 81.092C173.653 80.848 173.953 80.656 174.301 80.516C174.649 80.376 175.031 80.306 175.447 80.306C175.859 80.306 176.233 80.374 176.569 80.51C176.905 80.646 177.193 80.836 177.433 81.08C177.673 81.324 177.857 81.616 177.985 81.956C178.117 82.296 178.183 82.672 178.183 83.084C178.183 83.332 178.159 83.568 178.111 83.792C178.067 84.012 178.001 84.23 177.913 84.446C177.829 84.658 177.725 84.87 177.601 85.082C177.477 85.29 177.337 85.504 177.181 85.724L175.087 88.748C175.035 88.824 174.961 88.886 174.865 88.934C174.769 88.978 174.659 89 174.535 89H173.551L176.167 85.574ZM185.336 88.052L185.33 89H180.032V80.402H185.33V81.35H181.196V84.206H184.544V85.118H181.196V88.052H185.336Z" fill="black"/>
<path d="M140.38 153.72H138.898L138.508 155.676H139.99L140.38 153.72ZM142.648 152.934L142.57 153.384C142.55 153.5 142.502 153.586 142.426 153.642C142.354 153.694 142.242 153.72 142.09 153.72H141.262L140.872 155.676H141.946C142.062 155.676 142.144 155.71 142.192 155.778C142.244 155.842 142.258 155.956 142.234 156.12L142.18 156.462H140.758L140.254 159H139.768C139.716 159 139.668 158.988 139.624 158.964C139.58 158.94 139.542 158.908 139.51 158.868C139.482 158.828 139.462 158.78 139.45 158.724C139.438 158.668 139.438 158.606 139.45 158.538L139.876 156.462H138.394L137.968 158.592C137.944 158.74 137.886 158.846 137.794 158.91C137.702 158.97 137.598 159 137.482 159H137.002L137.512 156.462H136.636C136.524 156.462 136.442 156.43 136.39 156.366C136.342 156.298 136.33 156.182 136.354 156.018L136.402 155.676H137.626L138.016 153.72H136.624L136.702 153.276C136.722 153.16 136.768 153.074 136.84 153.018C136.916 152.962 137.03 152.934 137.182 152.934H138.13L138.562 150.786C138.586 150.666 138.64 150.572 138.724 150.504C138.812 150.436 138.916 150.402 139.036 150.402H139.516L139.012 152.934H140.494L140.998 150.402H141.472C141.588 150.402 141.678 150.44 141.742 150.516C141.81 150.592 141.834 150.688 141.814 150.804L141.376 152.934H142.648ZM145.223 151.35V154.356H148.757V155.304H145.223V159H144.059V150.402H149.357V151.35H145.223ZM152.008 151.35V154.356H155.542V155.304H152.008V159H150.844V150.402H156.142V151.35H152.008ZM161.504 155.808L160.154 152.31C160.114 152.206 160.072 152.086 160.028 151.95C159.984 151.81 159.942 151.662 159.902 151.506C159.818 151.83 159.732 152.1 159.644 152.316L158.294 155.808H161.504ZM163.928 159H163.028C162.924 159 162.84 158.974 162.776 158.922C162.712 158.87 162.664 158.804 162.632 158.724L161.828 156.648H157.97L157.166 158.724C157.142 158.796 157.096 158.86 157.028 158.916C156.96 158.972 156.876 159 156.776 159H155.876L159.314 150.402H160.49L163.928 159ZM166.223 151.35V154.356H169.757V155.304H166.223V159H165.059V150.402H170.357V151.35H166.223ZM174.862 158.076C175.194 158.076 175.48 158.038 175.72 157.962C175.96 157.886 176.156 157.78 176.308 157.644C176.464 157.504 176.578 157.34 176.65 157.152C176.722 156.96 176.758 156.75 176.758 156.522C176.758 156.078 176.6 155.728 176.284 155.472C175.968 155.212 175.494 155.082 174.862 155.082H173.002V158.076H174.862ZM173.002 151.32V154.254H174.538C174.866 154.254 175.15 154.218 175.39 154.146C175.634 154.074 175.834 153.974 175.99 153.846C176.15 153.718 176.268 153.564 176.344 153.384C176.42 153.2 176.458 153 176.458 152.784C176.458 152.276 176.306 151.906 176.002 151.674C175.698 151.438 175.226 151.32 174.586 151.32H173.002ZM174.586 150.402C175.114 150.402 175.568 150.454 175.948 150.558C176.332 150.662 176.646 150.81 176.89 151.002C177.138 151.194 177.32 151.43 177.436 151.71C177.552 151.986 177.61 152.298 177.61 152.646C177.61 152.858 177.576 153.062 177.508 153.258C177.444 153.45 177.346 153.63 177.214 153.798C177.082 153.966 176.914 154.118 176.71 154.254C176.51 154.386 176.274 154.494 176.002 154.578C176.634 154.698 177.108 154.924 177.424 155.256C177.744 155.584 177.904 156.016 177.904 156.552C177.904 156.916 177.836 157.248 177.7 157.548C177.568 157.848 177.372 158.106 177.112 158.322C176.856 158.538 176.54 158.706 176.164 158.826C175.788 158.942 175.36 159 174.88 159H171.844V150.402H174.586ZM187.054 154.704C187.054 155.348 186.952 155.934 186.748 156.462C186.544 156.99 186.256 157.442 185.884 157.818C185.512 158.194 185.064 158.486 184.54 158.694C184.02 158.898 183.444 159 182.812 159H179.602V150.402H182.812C183.444 150.402 184.02 150.506 184.54 150.714C185.064 150.918 185.512 151.21 185.884 151.59C186.256 151.966 186.544 152.418 186.748 152.946C186.952 153.474 187.054 154.06 187.054 154.704ZM185.86 154.704C185.86 154.176 185.788 153.704 185.644 153.288C185.5 152.872 185.296 152.52 185.032 152.232C184.768 151.944 184.448 151.724 184.072 151.572C183.696 151.42 183.276 151.344 182.812 151.344H180.766V158.058H182.812C183.276 158.058 183.696 157.982 184.072 157.83C184.448 157.678 184.768 157.46 185.032 157.176C185.296 156.888 185.5 156.536 185.644 156.12C185.788 155.704 185.86 155.232 185.86 154.704Z" fill="black"/>
<path d="M139.38 225.72H137.898L137.508 227.676H138.99L139.38 225.72ZM141.648 224.934L141.57 225.384C141.55 225.5 141.502 225.586 141.426 225.642C141.354 225.694 141.242 225.72 141.09 225.72H140.262L139.872 227.676H140.946C141.062 227.676 141.144 227.71 141.192 227.778C141.244 227.842 141.258 227.956 141.234 228.12L141.18 228.462H139.758L139.254 231H138.768C138.716 231 138.668 230.988 138.624 230.964C138.58 230.94 138.542 230.908 138.51 230.868C138.482 230.828 138.462 230.78 138.45 230.724C138.438 230.668 138.438 230.606 138.45 230.538L138.876 228.462H137.394L136.968 230.592C136.944 230.74 136.886 230.846 136.794 230.91C136.702 230.97 136.598 231 136.482 231H136.002L136.512 228.462H135.636C135.524 228.462 135.442 228.43 135.39 228.366C135.342 228.298 135.33 228.182 135.354 228.018L135.402 227.676H136.626L137.016 225.72H135.624L135.702 225.276C135.722 225.16 135.768 225.074 135.84 225.018C135.916 224.962 136.03 224.934 136.182 224.934H137.13L137.562 222.786C137.586 222.666 137.64 222.572 137.724 222.504C137.812 222.436 137.916 222.402 138.036 222.402H138.516L138.012 224.934H139.494L139.998 222.402H140.472C140.588 222.402 140.678 222.44 140.742 222.516C140.81 222.592 140.834 222.688 140.814 222.804L140.376 224.934H141.648ZM144.223 223.35V226.356H147.757V227.304H144.223V231H143.059V222.402H148.357V223.35H144.223ZM151.008 223.35V226.356H154.542V227.304H151.008V231H149.844V222.402H155.142V223.35H151.008ZM164.081 226.704C164.081 227.348 163.979 227.934 163.775 228.462C163.571 228.99 163.283 229.442 162.911 229.818C162.539 230.194 162.091 230.486 161.567 230.694C161.047 230.898 160.471 231 159.839 231H156.629V222.402H159.839C160.471 222.402 161.047 222.506 161.567 222.714C162.091 222.918 162.539 223.21 162.911 223.59C163.283 223.966 163.571 224.418 163.775 224.946C163.979 225.474 164.081 226.06 164.081 226.704ZM162.887 226.704C162.887 226.176 162.815 225.704 162.671 225.288C162.527 224.872 162.323 224.52 162.059 224.232C161.795 223.944 161.475 223.724 161.099 223.572C160.723 223.42 160.303 223.344 159.839 223.344H157.793V230.058H159.839C160.303 230.058 160.723 229.982 161.099 229.83C161.475 229.678 161.795 229.46 162.059 229.176C162.323 228.888 162.527 228.536 162.671 228.12C162.815 227.704 162.887 227.232 162.887 226.704ZM166.832 225.648C167.28 225.552 167.692 225.504 168.068 225.504C168.516 225.504 168.912 225.57 169.256 225.702C169.6 225.834 169.886 226.016 170.114 226.248C170.346 226.48 170.52 226.754 170.636 227.07C170.756 227.386 170.816 227.73 170.816 228.102C170.816 228.558 170.736 228.97 170.576 229.338C170.42 229.706 170.202 230.022 169.922 230.286C169.646 230.546 169.32 230.746 168.944 230.886C168.568 231.026 168.162 231.096 167.726 231.096C167.474 231.096 167.232 231.07 167 231.018C166.768 230.97 166.55 230.904 166.346 230.82C166.146 230.736 165.96 230.64 165.788 230.532C165.616 230.424 165.464 230.31 165.332 230.19L165.662 229.734C165.734 229.63 165.828 229.578 165.944 229.578C166.024 229.578 166.114 229.61 166.214 229.674C166.314 229.734 166.436 229.802 166.58 229.878C166.724 229.954 166.892 230.024 167.084 230.088C167.28 230.148 167.512 230.178 167.78 230.178C168.08 230.178 168.35 230.13 168.59 230.034C168.83 229.938 169.036 229.802 169.208 229.626C169.38 229.446 169.512 229.232 169.604 228.984C169.696 228.736 169.742 228.458 169.742 228.15C169.742 227.882 169.702 227.64 169.622 227.424C169.546 227.208 169.428 227.024 169.268 226.872C169.112 226.72 168.916 226.602 168.68 226.518C168.444 226.434 168.168 226.392 167.852 226.392C167.636 226.392 167.41 226.41 167.174 226.446C166.942 226.482 166.704 226.54 166.46 226.62L165.788 226.422L166.478 222.402H170.552V222.87C170.552 223.022 170.504 223.148 170.408 223.248C170.316 223.344 170.156 223.392 169.928 223.392H167.228L166.832 225.648ZM180.171 226.704C180.171 227.348 180.069 227.934 179.865 228.462C179.661 228.99 179.373 229.442 179.001 229.818C178.629 230.194 178.181 230.486 177.657 230.694C177.137 230.898 176.561 231 175.929 231H172.719V222.402H175.929C176.561 222.402 177.137 222.506 177.657 222.714C178.181 222.918 178.629 223.21 179.001 223.59C179.373 223.966 179.661 224.418 179.865 224.946C180.069 225.474 180.171 226.06 180.171 226.704ZM178.977 226.704C178.977 226.176 178.905 225.704 178.761 225.288C178.617 224.872 178.413 224.52 178.149 224.232C177.885 223.944 177.565 223.724 177.189 223.572C176.813 223.42 176.393 223.344 175.929 223.344H173.883V230.058H175.929C176.393 230.058 176.813 229.982 177.189 229.83C177.565 229.678 177.885 229.46 178.149 229.176C178.413 228.888 178.617 228.536 178.761 228.12C178.905 227.704 178.977 227.232 178.977 226.704ZM189.3 226.704C189.3 227.348 189.198 227.934 188.994 228.462C188.79 228.99 188.502 229.442 188.13 229.818C187.758 230.194 187.31 230.486 186.786 230.694C186.266 230.898 185.69 231 185.058 231H181.848V222.402H185.058C185.69 222.402 186.266 222.506 186.786 222.714C187.31 222.918 187.758 223.21 188.13 223.59C188.502 223.966 188.79 224.418 188.994 224.946C189.198 225.474 189.3 226.06 189.3 226.704ZM188.106 226.704C188.106 226.176 188.034 225.704 187.89 225.288C187.746 224.872 187.542 224.52 187.278 224.232C187.014 223.944 186.694 223.724 186.318 223.572C185.942 223.42 185.522 223.344 185.058 223.344H183.012V230.058H185.058C185.522 230.058 185.942 229.982 186.318 229.83C186.694 229.678 187.014 229.46 187.278 229.176C187.542 228.888 187.746 228.536 187.89 228.12C188.034 227.704 188.106 227.232 188.106 226.704Z" fill="black"/>
<path d="M328.38 79.72H326.898L326.508 81.676H327.99L328.38 79.72ZM330.648 78.934L330.57 79.384C330.55 79.5 330.502 79.586 330.426 79.642C330.354 79.694 330.242 79.72 330.09 79.72H329.262L328.872 81.676H329.946C330.062 81.676 330.144 81.71 330.192 81.778C330.244 81.842 330.258 81.956 330.234 82.12L330.18 82.462H328.758L328.254 85H327.768C327.716 85 327.668 84.988 327.624 84.964C327.58 84.94 327.542 84.908 327.51 84.868C327.482 84.828 327.462 84.78 327.45 84.724C327.438 84.668 327.438 84.606 327.45 84.538L327.876 82.462H326.394L325.968 84.592C325.944 84.74 325.886 84.846 325.794 84.91C325.702 84.97 325.598 85 325.482 85H325.002L325.512 82.462H324.636C324.524 82.462 324.442 82.43 324.39 82.366C324.342 82.298 324.33 82.182 324.354 82.018L324.402 81.676H325.626L326.016 79.72H324.624L324.702 79.276C324.722 79.16 324.768 79.074 324.84 79.018C324.916 78.962 325.03 78.934 325.182 78.934H326.13L326.562 76.786C326.586 76.666 326.64 76.572 326.724 76.504C326.812 76.436 326.916 76.402 327.036 76.402H327.516L327.012 78.934H328.494L328.998 76.402H329.472C329.588 76.402 329.678 76.44 329.742 76.516C329.81 76.592 329.834 76.688 329.814 76.804L329.376 78.934H330.648ZM336.883 83.986C336.999 83.986 337.091 84.02 337.159 84.088C337.227 84.156 337.261 84.244 337.261 84.352V85H331.525V84.634C331.525 84.558 331.541 84.48 331.573 84.4C331.605 84.32 331.655 84.246 331.723 84.178L334.477 81.412C334.705 81.18 334.913 80.958 335.101 80.746C335.289 80.53 335.449 80.314 335.581 80.098C335.713 79.882 335.815 79.664 335.887 79.444C335.959 79.22 335.995 78.982 335.995 78.73C335.995 78.478 335.955 78.258 335.875 78.07C335.795 77.878 335.685 77.72 335.545 77.596C335.409 77.472 335.247 77.38 335.059 77.32C334.871 77.256 334.669 77.224 334.453 77.224C334.233 77.224 334.031 77.256 333.847 77.32C333.663 77.384 333.499 77.474 333.355 77.59C333.215 77.702 333.097 77.836 333.001 77.992C332.905 78.148 332.837 78.32 332.797 78.508C332.749 78.648 332.683 78.742 332.599 78.79C332.519 78.834 332.405 78.846 332.257 78.826L331.699 78.73C331.755 78.338 331.863 77.992 332.023 77.692C332.187 77.388 332.391 77.134 332.635 76.93C332.883 76.726 333.165 76.572 333.481 76.468C333.797 76.36 334.139 76.306 334.507 76.306C334.871 76.306 335.211 76.36 335.527 76.468C335.843 76.576 336.117 76.734 336.349 76.942C336.581 77.146 336.763 77.396 336.895 77.692C337.027 77.988 337.093 78.324 337.093 78.7C337.093 79.02 337.045 79.318 336.949 79.594C336.853 79.866 336.723 80.126 336.559 80.374C336.395 80.622 336.205 80.864 335.989 81.1C335.777 81.336 335.551 81.574 335.311 81.814L333.043 84.13C333.203 84.086 333.365 84.052 333.529 84.028C333.693 84 333.851 83.986 334.003 83.986H336.883ZM346.472 80.704C346.472 81.348 346.37 81.934 346.166 82.462C345.962 82.99 345.674 83.442 345.302 83.818C344.93 84.194 344.482 84.486 343.958 84.694C343.438 84.898 342.862 85 342.23 85H339.02V76.402H342.23C342.862 76.402 343.438 76.506 343.958 76.714C344.482 76.918 344.93 77.21 345.302 77.59C345.674 77.966 345.962 78.418 346.166 78.946C346.37 79.474 346.472 80.06 346.472 80.704ZM345.278 80.704C345.278 80.176 345.206 79.704 345.062 79.288C344.918 78.872 344.714 78.52 344.45 78.232C344.186 77.944 343.866 77.724 343.49 77.572C343.114 77.42 342.694 77.344 342.23 77.344H340.184V84.058H342.23C342.694 84.058 343.114 83.982 343.49 83.83C343.866 83.678 344.186 83.46 344.45 83.176C344.714 82.888 344.918 82.536 345.062 82.12C345.206 81.704 345.278 81.232 345.278 80.704ZM352.973 83.986C353.089 83.986 353.181 84.02 353.249 84.088C353.317 84.156 353.351 84.244 353.351 84.352V85H347.615V84.634C347.615 84.558 347.631 84.48 347.663 84.4C347.695 84.32 347.745 84.246 347.813 84.178L350.567 81.412C350.795 81.18 351.003 80.958 351.191 80.746C351.379 80.53 351.539 80.314 351.671 80.098C351.803 79.882 351.905 79.664 351.977 79.444C352.049 79.22 352.085 78.982 352.085 78.73C352.085 78.478 352.045 78.258 351.965 78.07C351.885 77.878 351.775 77.72 351.635 77.596C351.499 77.472 351.337 77.38 351.149 77.32C350.961 77.256 350.759 77.224 350.543 77.224C350.323 77.224 350.121 77.256 349.937 77.32C349.753 77.384 349.589 77.474 349.445 77.59C349.305 77.702 349.187 77.836 349.091 77.992C348.995 78.148 348.927 78.32 348.887 78.508C348.839 78.648 348.773 78.742 348.689 78.79C348.609 78.834 348.495 78.846 348.347 78.826L347.789 78.73C347.845 78.338 347.953 77.992 348.113 77.692C348.277 77.388 348.481 77.134 348.725 76.93C348.973 76.726 349.255 76.572 349.571 76.468C349.887 76.36 350.229 76.306 350.597 76.306C350.961 76.306 351.301 76.36 351.617 76.468C351.933 76.576 352.207 76.734 352.439 76.942C352.671 77.146 352.853 77.396 352.985 77.692C353.117 77.988 353.183 78.324 353.183 78.7C353.183 79.02 353.135 79.318 353.039 79.594C352.943 79.866 352.813 80.126 352.649 80.374C352.485 80.622 352.295 80.864 352.079 81.1C351.867 81.336 351.641 81.574 351.401 81.814L349.133 84.13C349.293 84.086 349.455 84.052 349.619 84.028C349.783 84 349.941 83.986 350.093 83.986H352.973ZM362.562 80.704C362.562 81.348 362.46 81.934 362.256 82.462C362.052 82.99 361.764 83.442 361.392 83.818C361.02 84.194 360.572 84.486 360.048 84.694C359.528 84.898 358.952 85 358.32 85H355.11V76.402H358.32C358.952 76.402 359.528 76.506 360.048 76.714C360.572 76.918 361.02 77.21 361.392 77.59C361.764 77.966 362.052 78.418 362.256 78.946C362.46 79.474 362.562 80.06 362.562 80.704ZM361.368 80.704C361.368 80.176 361.296 79.704 361.152 79.288C361.008 78.872 360.804 78.52 360.54 78.232C360.276 77.944 359.956 77.724 359.58 77.572C359.204 77.42 358.784 77.344 358.32 77.344H356.274V84.058H358.32C358.784 84.058 359.204 83.982 359.58 83.83C359.956 83.678 360.276 83.46 360.54 83.176C360.804 82.888 361.008 82.536 361.152 82.12C361.296 81.704 361.368 81.232 361.368 80.704ZM369.063 83.986C369.179 83.986 369.271 84.02 369.339 84.088C369.407 84.156 369.441 84.244 369.441 84.352V85H363.705V84.634C363.705 84.558 363.721 84.48 363.753 84.4C363.785 84.32 363.835 84.246 363.903 84.178L366.657 81.412C366.885 81.18 367.093 80.958 367.281 80.746C367.469 80.53 367.629 80.314 367.761 80.098C367.893 79.882 367.995 79.664 368.067 79.444C368.139 79.22 368.175 78.982 368.175 78.73C368.175 78.478 368.135 78.258 368.055 78.07C367.975 77.878 367.865 77.72 367.725 77.596C367.589 77.472 367.427 77.38 367.239 77.32C367.051 77.256 366.849 77.224 366.633 77.224C366.413 77.224 366.211 77.256 366.027 77.32C365.843 77.384 365.679 77.474 365.535 77.59C365.395 77.702 365.277 77.836 365.181 77.992C365.085 78.148 365.017 78.32 364.977 78.508C364.929 78.648 364.863 78.742 364.779 78.79C364.699 78.834 364.585 78.846 364.437 78.826L363.879 78.73C363.935 78.338 364.043 77.992 364.203 77.692C364.367 77.388 364.571 77.134 364.815 76.93C365.063 76.726 365.345 76.572 365.661 76.468C365.977 76.36 366.319 76.306 366.687 76.306C367.051 76.306 367.391 76.36 367.707 76.468C368.023 76.576 368.297 76.734 368.529 76.942C368.761 77.146 368.943 77.396 369.075 77.692C369.207 77.988 369.273 78.324 369.273 78.7C369.273 79.02 369.225 79.318 369.129 79.594C369.033 79.866 368.903 80.126 368.739 80.374C368.575 80.622 368.385 80.864 368.169 81.1C367.957 81.336 367.731 81.574 367.491 81.814L365.223 84.13C365.383 84.086 365.545 84.052 365.709 84.028C365.873 84 366.031 83.986 366.183 83.986H369.063ZM378.652 80.704C378.652 81.348 378.55 81.934 378.346 82.462C378.142 82.99 377.854 83.442 377.482 83.818C377.11 84.194 376.662 84.486 376.138 84.694C375.618 84.898 375.042 85 374.41 85H371.2V76.402H374.41C375.042 76.402 375.618 76.506 376.138 76.714C376.662 76.918 377.11 77.21 377.482 77.59C377.854 77.966 378.142 78.418 378.346 78.946C378.55 79.474 378.652 80.06 378.652 80.704ZM377.458 80.704C377.458 80.176 377.386 79.704 377.242 79.288C377.098 78.872 376.894 78.52 376.63 78.232C376.366 77.944 376.046 77.724 375.67 77.572C375.294 77.42 374.874 77.344 374.41 77.344H372.364V84.058H374.41C374.874 84.058 375.294 83.982 375.67 83.83C376.046 83.678 376.366 83.46 376.63 83.176C376.894 82.888 377.098 82.536 377.242 82.12C377.386 81.704 377.458 81.232 377.458 80.704Z" fill="black"/>
<path d="M40.38 154.72H38.898L38.508 156.676H39.99L40.38 154.72ZM42.648 153.934L42.57 154.384C42.55 154.5 42.502 154.586 42.426 154.642C42.354 154.694 42.242 154.72 42.09 154.72H41.262L40.872 156.676H41.946C42.062 156.676 42.144 156.71 42.192 156.778C42.244 156.842 42.258 156.956 42.234 157.12L42.18 157.462H40.758L40.254 160H39.768C39.716 160 39.668 159.988 39.624 159.964C39.58 159.94 39.542 159.908 39.51 159.868C39.482 159.828 39.462 159.78 39.45 159.724C39.438 159.668 39.438 159.606 39.45 159.538L39.876 157.462H38.394L37.968 159.592C37.944 159.74 37.886 159.846 37.794 159.91C37.702 159.97 37.598 160 37.482 160H37.002L37.512 157.462H36.636C36.524 157.462 36.442 157.43 36.39 157.366C36.342 157.298 36.33 157.182 36.354 157.018L36.402 156.676H37.626L38.016 154.72H36.624L36.702 154.276C36.722 154.16 36.768 154.074 36.84 154.018C36.916 153.962 37.03 153.934 37.182 153.934H38.13L38.562 151.786C38.586 151.666 38.64 151.572 38.724 151.504C38.812 151.436 38.916 151.402 39.036 151.402H39.516L39.012 153.934H40.494L40.998 151.402H41.472C41.588 151.402 41.678 151.44 41.742 151.516C41.81 151.592 41.834 151.688 41.814 151.804L41.376 153.934H42.648ZM48.6249 156.808L47.2749 153.31C47.2349 153.206 47.1929 153.086 47.1489 152.95C47.1049 152.81 47.0629 152.662 47.0229 152.506C46.9389 152.83 46.8529 153.1 46.7649 153.316L45.4149 156.808H48.6249ZM51.0489 160H50.1489C50.0449 160 49.9609 159.974 49.8969 159.922C49.8329 159.87 49.7849 159.804 49.7529 159.724L48.9489 157.648H45.0909L44.2869 159.724C44.2629 159.796 44.2169 159.86 44.1489 159.916C44.0809 159.972 43.9969 160 43.8969 160H42.9969L46.4349 151.402H47.6109L51.0489 160ZM57.19 159.184V160H52.582V159.184H54.424V153.322C54.424 153.146 54.43 152.968 54.442 152.788L52.912 154.102C52.86 154.146 52.808 154.174 52.756 154.186C52.704 154.194 52.656 154.194 52.612 154.186C52.568 154.178 52.526 154.162 52.486 154.138C52.45 154.114 52.422 154.088 52.402 154.06L52.066 153.598L54.628 151.384H55.498V159.184H57.19ZM64.529 151.402V151.882C64.529 152.018 64.513 152.13 64.481 152.218C64.453 152.306 64.425 152.38 64.397 152.44L60.833 159.622C60.781 159.726 60.709 159.816 60.617 159.892C60.525 159.964 60.403 160 60.251 160H59.483L63.095 152.908C63.147 152.808 63.201 152.716 63.257 152.632C63.313 152.548 63.373 152.468 63.437 152.392H58.949C58.881 152.392 58.821 152.366 58.769 152.314C58.717 152.258 58.691 152.196 58.691 152.128V151.402H64.529ZM68.4719 159.208C68.7599 159.208 69.0199 159.162 69.2519 159.07C69.4879 158.978 69.6879 158.85 69.8519 158.686C70.0199 158.522 70.1479 158.328 70.2359 158.104C70.3279 157.88 70.3739 157.636 70.3739 157.372C70.3739 157.092 70.3299 156.84 70.2419 156.616C70.1539 156.388 70.0279 156.196 69.8639 156.04C69.7039 155.88 69.5119 155.758 69.2879 155.674C69.0639 155.59 68.8179 155.548 68.5499 155.548C68.2619 155.548 68.0019 155.598 67.7699 155.698C67.5379 155.794 67.3399 155.926 67.1759 156.094C67.0159 156.258 66.8919 156.45 66.8039 156.67C66.7199 156.886 66.6779 157.112 66.6779 157.348C66.6779 157.624 66.7179 157.876 66.7979 158.104C66.8779 158.332 66.9939 158.528 67.1459 158.692C67.3019 158.856 67.4899 158.984 67.7099 159.076C67.9339 159.164 68.1879 159.208 68.4719 159.208ZM67.8479 154.624C67.7719 154.72 67.6979 154.814 67.6259 154.906C67.5579 154.994 67.4919 155.082 67.4279 155.17C67.6319 155.03 67.8559 154.922 68.0999 154.846C68.3439 154.77 68.6099 154.732 68.8979 154.732C69.2459 154.732 69.5739 154.79 69.8819 154.906C70.1899 155.018 70.4579 155.184 70.6859 155.404C70.9179 155.62 71.1019 155.888 71.2379 156.208C71.3739 156.524 71.4419 156.886 71.4419 157.294C71.4419 157.69 71.3699 158.058 71.2259 158.398C71.0819 158.738 70.8799 159.034 70.6199 159.286C70.3639 159.538 70.0539 159.736 69.6899 159.88C69.3299 160.024 68.9319 160.096 68.4959 160.096C68.0639 160.096 67.6719 160.028 67.3199 159.892C66.9679 159.752 66.6679 159.556 66.4199 159.304C66.1759 159.048 65.9859 158.74 65.8499 158.38C65.7179 158.016 65.6519 157.61 65.6519 157.162C65.6519 156.786 65.7339 156.386 65.8979 155.962C66.0659 155.534 66.3319 155.078 66.6959 154.594L68.8799 151.66C68.9359 151.588 69.0119 151.528 69.1079 151.48C69.2079 151.428 69.3219 151.402 69.4499 151.402H70.3979L67.8479 154.624ZM79.0988 158.224C79.1628 158.224 79.2188 158.25 79.2668 158.302L79.7288 158.8C79.3768 159.208 78.9488 159.526 78.4448 159.754C77.9448 159.982 77.3388 160.096 76.6268 160.096C76.0108 160.096 75.4508 159.99 74.9468 159.778C74.4428 159.562 74.0128 159.262 73.6568 158.878C73.3008 158.49 73.0248 158.026 72.8288 157.486C72.6328 156.946 72.5348 156.352 72.5348 155.704C72.5348 155.056 72.6368 154.462 72.8408 153.922C73.0448 153.382 73.3308 152.918 73.6988 152.53C74.0708 152.142 74.5148 151.842 75.0308 151.63C75.5468 151.414 76.1168 151.306 76.7408 151.306C77.3528 151.306 77.8928 151.404 78.3608 151.6C78.8288 151.796 79.2408 152.062 79.5968 152.398L79.2128 152.932C79.1888 152.972 79.1568 153.006 79.1168 153.034C79.0808 153.058 79.0308 153.07 78.9668 153.07C78.8948 153.07 78.8068 153.032 78.7028 152.956C78.5988 152.876 78.4628 152.788 78.2948 152.692C78.1268 152.596 77.9168 152.51 77.6648 152.434C77.4128 152.354 77.1028 152.314 76.7348 152.314C76.2908 152.314 75.8848 152.392 75.5168 152.548C75.1488 152.7 74.8308 152.922 74.5628 153.214C74.2988 153.506 74.0928 153.862 73.9448 154.282C73.7968 154.702 73.7228 155.176 73.7228 155.704C73.7228 156.24 73.7988 156.718 73.9508 157.138C74.1068 157.558 74.3168 157.914 74.5808 158.206C74.8488 158.494 75.1628 158.714 75.5228 158.866C75.8868 159.018 76.2788 159.094 76.6988 159.094C76.9548 159.094 77.1848 159.08 77.3888 159.052C77.5968 159.02 77.7868 158.972 77.9588 158.908C78.1348 158.844 78.2968 158.764 78.4448 158.668C78.5968 158.568 78.7468 158.45 78.8948 158.314C78.9628 158.254 79.0308 158.224 79.0988 158.224ZM83.4605 159.244C83.7405 159.244 83.9905 159.206 84.2105 159.13C84.4345 159.05 84.6225 158.94 84.7745 158.8C84.9305 158.656 85.0485 158.486 85.1285 158.29C85.2125 158.09 85.2545 157.87 85.2545 157.63C85.2545 157.334 85.2045 157.082 85.1045 156.874C85.0085 156.662 84.8765 156.49 84.7085 156.358C84.5445 156.226 84.3545 156.13 84.1385 156.07C83.9225 156.006 83.6965 155.974 83.4605 155.974C83.2245 155.974 82.9985 156.006 82.7825 156.07C82.5665 156.13 82.3745 156.226 82.2065 156.358C82.0425 156.49 81.9105 156.662 81.8105 156.874C81.7145 157.082 81.6665 157.334 81.6665 157.63C81.6665 157.87 81.7065 158.09 81.7865 158.29C81.8705 158.486 81.9885 158.656 82.1405 158.8C82.2965 158.94 82.4845 159.05 82.7045 159.13C82.9285 159.206 83.1805 159.244 83.4605 159.244ZM83.4605 152.134C83.2045 152.134 82.9785 152.172 82.7825 152.248C82.5905 152.324 82.4285 152.428 82.2965 152.56C82.1685 152.692 82.0705 152.846 82.0025 153.022C81.9385 153.198 81.9065 153.386 81.9065 153.586C81.9065 153.782 81.9345 153.972 81.9905 154.156C82.0465 154.34 82.1365 154.504 82.2605 154.648C82.3845 154.788 82.5445 154.902 82.7405 154.99C82.9405 155.074 83.1805 155.116 83.4605 155.116C83.7405 155.116 83.9785 155.074 84.1745 154.99C84.3745 154.902 84.5365 154.788 84.6605 154.648C84.7845 154.504 84.8745 154.34 84.9305 154.156C84.9865 153.972 85.0145 153.782 85.0145 153.586C85.0145 153.386 84.9805 153.198 84.9125 153.022C84.8485 152.846 84.7505 152.692 84.6185 152.56C84.4905 152.428 84.3285 152.324 84.1325 152.248C83.9405 152.172 83.7165 152.134 83.4605 152.134ZM84.6905 155.518C85.2265 155.67 85.6385 155.924 85.9265 156.28C86.2145 156.636 86.3585 157.092 86.3585 157.648C86.3585 158.024 86.2865 158.364 86.1425 158.668C86.0025 158.968 85.8045 159.224 85.5485 159.436C85.2965 159.648 84.9925 159.812 84.6365 159.928C84.2805 160.04 83.8885 160.096 83.4605 160.096C83.0325 160.096 82.6405 160.04 82.2845 159.928C81.9285 159.812 81.6225 159.648 81.3665 159.436C81.1105 159.224 80.9125 158.968 80.7725 158.668C80.6325 158.364 80.5625 158.024 80.5625 157.648C80.5625 157.092 80.7065 156.636 80.9945 156.28C81.2825 155.924 81.6945 155.67 82.2305 155.518C81.7785 155.35 81.4365 155.1 81.2045 154.768C80.9765 154.432 80.8625 154.032 80.8625 153.568C80.8625 153.252 80.9245 152.956 81.0485 152.68C81.1725 152.404 81.3485 152.164 81.5765 151.96C81.8045 151.756 82.0765 151.596 82.3925 151.48C82.7125 151.364 83.0685 151.306 83.4605 151.306C83.8485 151.306 84.2025 151.364 84.5225 151.48C84.8425 151.596 85.1165 151.756 85.3445 151.96C85.5725 152.164 85.7485 152.404 85.8725 152.68C85.9965 152.956 86.0585 153.252 86.0585 153.568C86.0585 154.032 85.9425 154.432 85.7105 154.768C85.4825 155.1 85.1425 155.35 84.6905 155.518Z" fill="black"/>
</svg>
