<svg width="28" height="28" viewBox="0 0 28 28" fill="none" xmlns="http://www.w3.org/2000/svg">
<mask id="mask0_218_54" style="mask-type:alpha" maskUnits="userSpaceOnUse" x="0" y="0" width="28" height="28">
<rect width="28" height="28" fill="#D9D9D9"/>
</mask>
<g mask="url(#mask0_218_54)">
<path d="M7.29183 18.6667H9.04183V18.375C9.04183 16.9945 9.52308 15.823 10.4856 14.8605C11.4481 13.898 12.6196 13.4167 14.0002 13.4167C15.3807 13.4167 16.5522 13.898 17.5147 14.8605C18.4772 15.823 18.9585 16.9945 18.9585 18.375V18.6667H20.7085V18.375C20.7085 16.5084 20.0571 14.9237 18.7543 13.6209C17.4516 12.3181 15.8668 11.6667 14.0002 11.6667C12.1335 11.6667 10.5488 12.3181 9.246 13.6209C7.94322 14.9237 7.29183 16.5084 7.29183 18.375V18.6667ZM8.2835 10.7917C9.08072 10.675 9.92169 10.3639 10.8064 9.85838C11.6911 9.35282 12.396 8.77921 12.921 8.13754L11.5793 7.02921C11.1904 7.49587 10.6509 7.92365 9.96058 8.31254C9.2703 8.70143 8.6335 8.94449 8.05016 9.04171L8.2835 10.7917ZM19.7168 10.7917L19.9502 9.04171C19.3668 8.94449 18.73 8.70143 18.0397 8.31254C17.3495 7.92365 16.8099 7.49587 16.421 7.02921L15.0793 8.13754C15.6043 8.77921 16.3092 9.35282 17.1939 9.85838C18.0786 10.3639 18.9196 10.675 19.7168 10.7917ZM14.0002 25.6667C12.3863 25.6667 10.8696 25.3605 9.45016 24.748C8.03072 24.1355 6.796 23.3042 5.746 22.2542C4.696 21.2042 3.86475 19.9695 3.25225 18.55C2.63975 17.1306 2.3335 15.6139 2.3335 14C2.3335 12.3862 2.63975 10.8695 3.25225 9.45004C3.86475 8.0306 4.696 6.79587 5.746 5.74587C6.796 4.69587 8.03072 3.86462 9.45016 3.25212C10.8696 2.63962 12.3863 2.33337 14.0002 2.33337C15.6141 2.33337 17.1307 2.63962 18.5502 3.25212C19.9696 3.86462 21.2043 4.69587 22.2543 5.74587C23.3043 6.79587 24.1356 8.0306 24.7481 9.45004C25.3606 10.8695 25.6668 12.3862 25.6668 14C25.6668 15.6139 25.3606 17.1306 24.7481 18.55C24.1356 19.9695 23.3043 21.2042 22.2543 22.2542C21.2043 23.3042 19.9696 24.1355 18.5502 24.748C17.1307 25.3605 15.6141 25.6667 14.0002 25.6667ZM14.0002 23.3334C16.6057 23.3334 18.8127 22.4292 20.621 20.6209C22.4293 18.8125 23.3335 16.6056 23.3335 14C23.3335 11.3945 22.4293 9.18754 20.621 7.37921C18.8127 5.57087 16.6057 4.66671 14.0002 4.66671C11.3946 4.66671 9.18766 5.57087 7.37933 7.37921C5.571 9.18754 4.66683 11.3945 4.66683 14C4.66683 16.6056 5.571 18.8125 7.37933 20.6209C9.18766 22.4292 11.3946 23.3334 14.0002 23.3334Z" fill="#3C6E71"/>
</g>
</svg>
