<svg width="50" height="241" viewBox="0 0 50 241" fill="none" xmlns="http://www.w3.org/2000/svg">
<line x1="25.5" y1="9.99772" x2="26.5" y2="228.998" stroke="#594087"/>
<circle cx="25" cy="42" r="16" fill="#594087"/>
<circle cx="25" cy="99" r="16" fill="#5A4087"/>
<circle cx="25" cy="156" r="16" fill="#5A4087"/>
<circle cx="26" cy="213" r="16" fill="#5A4087"/>
<path d="M24.06 48V38.94C24.06 38.6733 24.06 38.4 24.06 38.12C24.0733 37.8267 24.0867 37.52 24.1 37.2C23.6467 37.64 23.1267 38.02 22.54 38.34C21.9667 38.6467 21.3733 38.8667 20.76 39L20.36 37.14C20.64 37.1 20.9667 37.0067 21.34 36.86C21.7133 36.7133 22.1 36.5267 22.5 36.3C22.9 36.0733 23.2667 35.8333 23.6 35.58C23.9333 35.3133 24.1933 35.0533 24.38 34.8H26.18V48H24.06Z" fill="white"/>
<path d="M21.4 107V105.44C22.6667 104.533 23.7267 103.733 24.58 103.04C25.4467 102.347 26.14 101.707 26.66 101.12C27.18 100.533 27.5533 99.98 27.78 99.46C28.02 98.9267 28.14 98.3867 28.14 97.84C28.14 97.1333 27.92 96.56 27.48 96.12C27.04 95.68 26.4267 95.46 25.64 95.46C24.8133 95.46 24.1533 95.74 23.66 96.3C23.18 96.8467 22.9067 97.6 22.84 98.56L20.98 97.7C21.0733 96.86 21.32 96.1333 21.72 95.52C22.12 94.9067 22.66 94.4333 23.34 94.1C24.0333 93.7667 24.8333 93.6 25.74 93.6C26.4867 93.6 27.14 93.7067 27.7 93.92C28.2733 94.1333 28.7533 94.4333 29.14 94.82C29.5267 95.1933 29.82 95.6333 30.02 96.14C30.2333 96.6467 30.34 97.1867 30.34 97.76C30.34 98.6 30.1333 99.4133 29.72 100.2C29.3067 100.973 28.6533 101.767 27.76 102.58C26.8667 103.393 25.6933 104.267 24.24 105.2V105.24C24.4 105.213 24.62 105.2 24.9 105.2C25.18 105.187 25.46 105.18 25.74 105.18C26.02 105.167 26.2467 105.16 26.42 105.16H30.58V107H21.4Z" fill="white"/>
<path d="M25.86 164.2C24.62 164.2 23.54 163.927 22.62 163.38C21.7133 162.82 21.0933 162.04 20.76 161.04L22.84 160.06C22.96 160.54 23.1467 160.953 23.4 161.3C23.6533 161.647 23.9867 161.913 24.4 162.1C24.8133 162.273 25.3267 162.36 25.94 162.36C26.46 162.36 26.9 162.267 27.26 162.08C27.62 161.893 27.8933 161.633 28.08 161.3C28.28 160.967 28.38 160.587 28.38 160.16C28.38 159.72 28.2933 159.353 28.12 159.06C27.96 158.767 27.7 158.553 27.34 158.42C26.9933 158.287 26.5467 158.22 26 158.22C25.84 158.22 25.6733 158.227 25.5 158.24C25.34 158.24 25.1667 158.253 24.98 158.28V156.48C25.1 156.493 25.2133 156.507 25.32 156.52C25.44 156.52 25.5533 156.52 25.66 156.52C26.5267 156.52 27.1467 156.347 27.52 156C27.8933 155.653 28.08 155.113 28.08 154.38C28.08 153.753 27.8867 153.273 27.5 152.94C27.1267 152.607 26.5867 152.44 25.88 152.44C25.1467 152.44 24.5733 152.613 24.16 152.96C23.76 153.293 23.4533 153.78 23.24 154.42L21.28 153.6C21.4667 152.987 21.78 152.453 22.22 152C22.66 151.547 23.2 151.2 23.84 150.96C24.4933 150.707 25.2067 150.58 25.98 150.58C26.9267 150.58 27.7133 150.733 28.34 151.04C28.98 151.347 29.4533 151.767 29.76 152.3C30.08 152.833 30.24 153.427 30.24 154.08C30.24 154.587 30.1667 155.033 30.02 155.42C29.8733 155.793 29.6733 156.12 29.42 156.4C29.18 156.667 28.9133 156.873 28.62 157.02C28.34 157.167 28.0533 157.267 27.76 157.32V157.36C28.1467 157.373 28.5 157.453 28.82 157.6C29.1533 157.733 29.4467 157.927 29.7 158.18C29.9667 158.42 30.1733 158.713 30.32 159.06C30.4667 159.407 30.54 159.787 30.54 160.2C30.54 161 30.34 161.7 29.94 162.3C29.54 162.9 28.9867 163.367 28.28 163.7C27.5867 164.033 26.78 164.2 25.86 164.2Z" fill="white"/>
<path d="M27.32 221V217.7H20.88V216.24C20.9067 216.173 20.9467 216.093 21 216C21.0667 215.907 21.14 215.8 21.22 215.68L26.72 207.8H29.34V216.04H31.58V217.7H29.34V221H27.32ZM22.88 216.04H27.32V211.38C27.32 211.06 27.3267 210.733 27.34 210.4C27.3667 210.053 27.3867 209.713 27.4 209.38H27.36C27.2133 209.7 27.02 210.053 26.78 210.44C26.5533 210.813 26.34 211.14 26.14 211.42L23.02 215.86C22.9933 215.887 22.9667 215.913 22.94 215.94C22.9267 215.967 22.9067 216 22.88 216.04Z" fill="white"/>
</svg>
