<svg width="269" height="119" viewBox="0 0 269 119" fill="none" xmlns="http://www.w3.org/2000/svg">
<rect x="2" y="8" width="259" height="108" rx="15" fill="white"/>
<path d="M38.582 45.11H27.03L24.902 51H21.254L30.83 24.666H34.82L44.358 51H40.71L38.582 45.11ZM37.594 42.298L32.806 28.922L28.018 42.298H37.594ZM47.2395 40.512C47.2395 38.384 47.6701 36.522 48.5315 34.926C49.3928 33.3047 50.5708 32.0507 52.0655 31.164C53.5855 30.2773 55.2701 29.834 57.1195 29.834C58.9435 29.834 60.5268 30.2267 61.8695 31.012C63.2121 31.7973 64.2128 32.7853 64.8715 33.976V30.176H68.3675V51H64.8715V47.124C64.1875 48.34 63.1615 49.3533 61.7935 50.164C60.4508 50.9493 58.8801 51.342 57.0815 51.342C55.2321 51.342 53.5601 50.886 52.0655 49.974C50.5708 49.062 49.3928 47.7827 48.5315 46.136C47.6701 44.4893 47.2395 42.6147 47.2395 40.512ZM64.8715 40.55C64.8715 38.9793 64.5548 37.6113 63.9215 36.446C63.2881 35.2807 62.4268 34.394 61.3375 33.786C60.2735 33.1527 59.0955 32.836 57.8035 32.836C56.5115 32.836 55.3335 33.14 54.2695 33.748C53.2055 34.356 52.3568 35.2427 51.7235 36.408C51.0901 37.5733 50.7735 38.9413 50.7735 40.512C50.7735 42.108 51.0901 43.5013 51.7235 44.692C52.3568 45.8573 53.2055 46.7567 54.2695 47.39C55.3335 47.998 56.5115 48.302 57.8035 48.302C59.0955 48.302 60.2735 47.998 61.3375 47.39C62.4268 46.7567 63.2881 45.8573 63.9215 44.692C64.5548 43.5013 64.8715 42.1207 64.8715 40.55ZM122.312 32.266C122.312 34.47 121.552 36.3067 120.032 37.776C118.537 39.22 116.244 39.942 113.154 39.942H108.062V51H104.604V24.514H113.154C116.143 24.514 118.41 25.236 119.956 26.68C121.526 28.124 122.312 29.986 122.312 32.266ZM113.154 37.092C115.079 37.092 116.498 36.674 117.41 35.838C118.322 35.002 118.778 33.8113 118.778 32.266C118.778 28.998 116.903 27.364 113.154 27.364H108.062V37.092H113.154ZM135.692 51.342C133.741 51.342 131.968 50.8987 130.372 50.012C128.801 49.1253 127.56 47.8713 126.648 46.25C125.761 44.6033 125.318 42.7033 125.318 40.55C125.318 38.422 125.774 36.5473 126.686 34.926C127.623 33.2793 128.89 32.0253 130.486 31.164C132.082 30.2773 133.868 29.834 135.844 29.834C137.82 29.834 139.606 30.2773 141.202 31.164C142.798 32.0253 144.052 33.2667 144.964 34.888C145.901 36.5093 146.37 38.3967 146.37 40.55C146.37 42.7033 145.888 44.6033 144.926 46.25C143.988 47.8713 142.709 49.1253 141.088 50.012C139.466 50.8987 137.668 51.342 135.692 51.342ZM135.692 48.302C136.933 48.302 138.098 48.0107 139.188 47.428C140.277 46.8453 141.151 45.9713 141.81 44.806C142.494 43.6407 142.836 42.222 142.836 40.55C142.836 38.878 142.506 37.4593 141.848 36.294C141.189 35.1287 140.328 34.2673 139.264 33.71C138.2 33.1273 137.047 32.836 135.806 32.836C134.539 32.836 133.374 33.1273 132.31 33.71C131.271 34.2673 130.435 35.1287 129.802 36.294C129.168 37.4593 128.852 38.878 128.852 40.55C128.852 42.2473 129.156 43.6787 129.764 44.844C130.397 46.0093 131.233 46.8833 132.272 47.466C133.31 48.0233 134.45 48.302 135.692 48.302ZM154.374 34.014C155.058 32.8233 156.072 31.8353 157.414 31.05C158.782 30.2393 160.366 29.834 162.164 29.834C164.014 29.834 165.686 30.2773 167.18 31.164C168.7 32.0507 169.891 33.3047 170.752 34.926C171.614 36.522 172.044 38.384 172.044 40.512C172.044 42.6147 171.614 44.4893 170.752 46.136C169.891 47.7827 168.7 49.062 167.18 49.974C165.686 50.886 164.014 51.342 162.164 51.342C160.391 51.342 158.82 50.9493 157.452 50.164C156.11 49.3533 155.084 48.3527 154.374 47.162V60.88H150.916V30.176H154.374V34.014ZM168.51 40.512C168.51 38.9413 168.194 37.5733 167.56 36.408C166.927 35.2427 166.066 34.356 164.976 33.748C163.912 33.14 162.734 32.836 161.442 32.836C160.176 32.836 158.998 33.1527 157.908 33.786C156.844 34.394 155.983 35.2933 155.324 36.484C154.691 37.6493 154.374 39.0047 154.374 40.55C154.374 42.1207 154.691 43.5013 155.324 44.692C155.983 45.8573 156.844 46.7567 157.908 47.39C158.998 47.998 160.176 48.302 161.442 48.302C162.734 48.302 163.912 47.998 164.976 47.39C166.066 46.7567 166.927 45.8573 167.56 44.692C168.194 43.5013 168.51 42.108 168.51 40.512ZM180.054 34.014C180.738 32.8233 181.751 31.8353 183.094 31.05C184.462 30.2393 186.045 29.834 187.844 29.834C189.693 29.834 191.365 30.2773 192.86 31.164C194.38 32.0507 195.571 33.3047 196.432 34.926C197.293 36.522 197.724 38.384 197.724 40.512C197.724 42.6147 197.293 44.4893 196.432 46.136C195.571 47.7827 194.38 49.062 192.86 49.974C191.365 50.886 189.693 51.342 187.844 51.342C186.071 51.342 184.5 50.9493 183.132 50.164C181.789 49.3533 180.763 48.3527 180.054 47.162V60.88H176.596V30.176H180.054V34.014ZM194.19 40.512C194.19 38.9413 193.873 37.5733 193.24 36.408C192.607 35.2427 191.745 34.356 190.656 33.748C189.592 33.14 188.414 32.836 187.122 32.836C185.855 32.836 184.677 33.1527 183.588 33.786C182.524 34.394 181.663 35.2933 181.004 36.484C180.371 37.6493 180.054 39.0047 180.054 40.55C180.054 42.1207 180.371 43.5013 181.004 44.692C181.663 45.8573 182.524 46.7567 183.588 47.39C184.677 47.998 185.855 48.302 187.122 48.302C188.414 48.302 189.592 47.998 190.656 47.39C191.745 46.7567 192.607 45.8573 193.24 44.692C193.873 43.5013 194.19 42.108 194.19 40.512ZM204.062 26.794C203.403 26.794 202.846 26.566 202.39 26.11C201.934 25.654 201.706 25.0967 201.706 24.438C201.706 23.7793 201.934 23.222 202.39 22.766C202.846 22.31 203.403 22.082 204.062 22.082C204.695 22.082 205.227 22.31 205.658 22.766C206.114 23.222 206.342 23.7793 206.342 24.438C206.342 25.0967 206.114 25.654 205.658 26.11C205.227 26.566 204.695 26.794 204.062 26.794ZM205.734 30.176V51H202.276V30.176H205.734ZM221.773 29.796C224.307 29.796 226.359 30.5687 227.929 32.114C229.5 33.634 230.285 35.838 230.285 38.726V51H226.865V39.22C226.865 37.1427 226.346 35.5593 225.307 34.47C224.269 33.3553 222.85 32.798 221.051 32.798C219.227 32.798 217.771 33.368 216.681 34.508C215.617 35.648 215.085 37.3073 215.085 39.486V51H211.627V30.176H215.085V33.14C215.769 32.076 216.694 31.2527 217.859 30.67C219.05 30.0873 220.355 29.796 221.773 29.796ZM243.306 51.342C241.71 51.342 240.278 51.076 239.012 50.544C237.745 49.9867 236.744 49.2267 236.01 48.264C235.275 47.276 234.87 46.1487 234.794 44.882H238.366C238.467 45.9207 238.948 46.7693 239.81 47.428C240.696 48.0867 241.849 48.416 243.268 48.416C244.585 48.416 245.624 48.1247 246.384 47.542C247.144 46.9593 247.524 46.2247 247.524 45.338C247.524 44.426 247.118 43.7547 246.308 43.324C245.497 42.868 244.243 42.4247 242.546 41.994C241 41.5887 239.734 41.1833 238.746 40.778C237.783 40.3473 236.947 39.7267 236.238 38.916C235.554 38.08 235.212 36.9907 235.212 35.648C235.212 34.584 235.528 33.6087 236.162 32.722C236.795 31.8353 237.694 31.1387 238.86 30.632C240.025 30.1 241.355 29.834 242.85 29.834C245.155 29.834 247.017 30.4167 248.436 31.582C249.854 32.7473 250.614 34.3433 250.716 36.37H247.258C247.182 35.2807 246.738 34.4067 245.928 33.748C245.142 33.0893 244.078 32.76 242.736 32.76C241.494 32.76 240.506 33.026 239.772 33.558C239.037 34.09 238.67 34.7867 238.67 35.648C238.67 36.332 238.885 36.902 239.316 37.358C239.772 37.7887 240.329 38.1433 240.988 38.422C241.672 38.6753 242.609 38.9667 243.8 39.296C245.294 39.7013 246.51 40.1067 247.448 40.512C248.385 40.892 249.183 41.4747 249.842 42.26C250.526 43.0453 250.88 44.0713 250.906 45.338C250.906 46.478 250.589 47.504 249.956 48.416C249.322 49.328 248.423 50.05 247.258 50.582C246.118 51.0887 244.8 51.342 243.306 51.342Z" fill="black"/>
<path d="M37.936 89.892L33.661 78.815C33.5343 78.4857 33.4013 78.1057 33.262 77.675C33.1227 77.2317 32.9897 76.763 32.863 76.269C32.597 77.295 32.3247 78.15 32.046 78.834L27.771 89.892H37.936ZM45.612 100H42.762C42.4327 100 42.1667 99.9177 41.964 99.753C41.7613 99.5883 41.6093 99.3793 41.508 99.126L38.962 92.552H26.745L24.199 99.126C24.123 99.354 23.9773 99.5567 23.762 99.734C23.5467 99.9113 23.2807 100 22.964 100H20.114L31.001 72.773H34.725L45.612 100ZM58.8268 91.336C57.2688 91.3867 55.9388 91.5133 54.8368 91.716C53.7475 91.906 52.8545 92.1593 52.1578 92.476C51.4738 92.7927 50.9735 93.1663 50.6568 93.597C50.3528 94.0277 50.2008 94.509 50.2008 95.041C50.2008 95.5477 50.2831 95.9847 50.4478 96.352C50.6125 96.7193 50.8341 97.0233 51.1128 97.264C51.4041 97.492 51.7398 97.663 52.1198 97.777C52.5125 97.8783 52.9305 97.929 53.3738 97.929C53.9691 97.929 54.5138 97.872 55.0078 97.758C55.5018 97.6313 55.9641 97.454 56.3948 97.226C56.8381 96.998 57.2561 96.7257 57.6488 96.409C58.0541 96.0923 58.4468 95.7313 58.8268 95.326V91.336ZM47.9018 83.47C48.9658 82.444 50.1121 81.6777 51.3408 81.171C52.5695 80.6643 53.9311 80.411 55.4258 80.411C56.5025 80.411 57.4588 80.5883 58.2948 80.943C59.1308 81.2977 59.8338 81.7917 60.4038 82.425C60.9738 83.0583 61.4045 83.8247 61.6958 84.724C61.9871 85.6233 62.1328 86.6113 62.1328 87.688V100H60.6318C60.3025 100 60.0491 99.9493 59.8718 99.848C59.6945 99.734 59.5551 99.5187 59.4538 99.202L59.0738 97.378C58.5671 97.8467 58.0731 98.2647 57.5918 98.632C57.1105 98.9867 56.6038 99.2907 56.0718 99.544C55.5398 99.7847 54.9698 99.9683 54.3618 100.095C53.7665 100.234 53.1015 100.304 52.3668 100.304C51.6195 100.304 50.9165 100.203 50.2578 100C49.5991 99.7847 49.0228 99.468 48.5288 99.05C48.0475 98.632 47.6611 98.1063 47.3698 97.473C47.0911 96.827 46.9518 96.067 46.9518 95.193C46.9518 94.433 47.1608 93.7047 47.5788 93.008C47.9968 92.2987 48.6745 91.6717 49.6118 91.127C50.5491 90.5823 51.7715 90.139 53.2788 89.797C54.7861 89.4423 56.6355 89.2397 58.8268 89.189V87.688C58.8268 86.1933 58.5038 85.066 57.8578 84.306C57.2118 83.5333 56.2681 83.147 55.0268 83.147C54.1908 83.147 53.4878 83.2547 52.9178 83.47C52.3605 83.6727 51.8728 83.907 51.4548 84.173C51.0495 84.4263 50.6948 84.6607 50.3908 84.876C50.0995 85.0787 49.8081 85.18 49.5168 85.18C49.2888 85.18 49.0925 85.123 48.9278 85.009C48.7631 84.8823 48.6238 84.7303 48.5098 84.553L47.9018 83.47ZM122.42 96.903V100H106.973V72.773H110.64V96.903H122.42ZM136.126 91.336C134.568 91.3867 133.238 91.5133 132.136 91.716C131.046 91.906 130.153 92.1593 129.457 92.476C128.773 92.7927 128.272 93.1663 127.956 93.597C127.652 94.0277 127.5 94.509 127.5 95.041C127.5 95.5477 127.582 95.9847 127.747 96.352C127.911 96.7193 128.133 97.0233 128.412 97.264C128.703 97.492 129.039 97.663 129.419 97.777C129.811 97.8783 130.229 97.929 130.673 97.929C131.268 97.929 131.813 97.872 132.307 97.758C132.801 97.6313 133.263 97.454 133.694 97.226C134.137 96.998 134.555 96.7257 134.948 96.409C135.353 96.0923 135.746 95.7313 136.126 95.326V91.336ZM125.201 83.47C126.265 82.444 127.411 81.6777 128.64 81.171C129.868 80.6643 131.23 80.411 132.725 80.411C133.801 80.411 134.758 80.5883 135.594 80.943C136.43 81.2977 137.133 81.7917 137.703 82.425C138.273 83.0583 138.703 83.8247 138.995 84.724C139.286 85.6233 139.432 86.6113 139.432 87.688V100H137.931C137.601 100 137.348 99.9493 137.171 99.848C136.993 99.734 136.854 99.5187 136.753 99.202L136.373 97.378C135.866 97.8467 135.372 98.2647 134.891 98.632C134.409 98.9867 133.903 99.2907 133.371 99.544C132.839 99.7847 132.269 99.9683 131.661 100.095C131.065 100.234 130.4 100.304 129.666 100.304C128.918 100.304 128.215 100.203 127.557 100C126.898 99.7847 126.322 99.468 125.828 99.05C125.346 98.632 124.96 98.1063 124.669 97.473C124.39 96.827 124.251 96.067 124.251 95.193C124.251 94.433 124.46 93.7047 124.878 93.008C125.296 92.2987 125.973 91.6717 126.911 91.127C127.848 90.5823 129.07 90.139 130.578 89.797C132.085 89.4423 133.934 89.2397 136.126 89.189V87.688C136.126 86.1933 135.803 85.066 135.157 84.306C134.511 83.5333 133.567 83.147 132.326 83.147C131.49 83.147 130.787 83.2547 130.217 83.47C129.659 83.6727 129.172 83.907 128.754 84.173C128.348 84.4263 127.994 84.6607 127.69 84.876C127.398 85.0787 127.107 85.18 126.816 85.18C126.588 85.18 126.391 85.123 126.227 85.009C126.062 84.8823 125.923 84.7303 125.809 84.553L125.201 83.47ZM150.233 100.304C148.713 100.304 147.541 99.8797 146.718 99.031C145.907 98.1823 145.502 96.96 145.502 95.364V83.584H143.184C142.981 83.584 142.81 83.527 142.671 83.413C142.531 83.2863 142.462 83.0963 142.462 82.843V81.494L145.616 81.095L146.395 75.148C146.433 74.958 146.515 74.806 146.642 74.692C146.781 74.5653 146.958 74.502 147.174 74.502H148.884V81.133H154.451V83.584H148.884V95.136C148.884 95.9467 149.08 96.5483 149.473 96.941C149.865 97.3337 150.372 97.53 150.993 97.53C151.347 97.53 151.651 97.4857 151.905 97.397C152.171 97.2957 152.399 97.188 152.589 97.074C152.779 96.96 152.937 96.8587 153.064 96.77C153.203 96.6687 153.323 96.618 153.425 96.618C153.602 96.618 153.76 96.7257 153.9 96.941L154.888 98.556C154.305 99.1007 153.602 99.5313 152.779 99.848C151.955 100.152 151.107 100.304 150.233 100.304ZM165.944 80.449C167.35 80.449 168.617 80.6833 169.744 81.152C170.872 81.6207 171.834 82.2857 172.632 83.147C173.43 84.0083 174.038 85.0533 174.456 86.282C174.887 87.498 175.102 88.8597 175.102 90.367C175.102 91.887 174.887 93.255 174.456 94.471C174.038 95.687 173.43 96.7257 172.632 97.587C171.834 98.4483 170.872 99.1133 169.744 99.582C168.617 100.038 167.35 100.266 165.944 100.266C164.526 100.266 163.246 100.038 162.106 99.582C160.979 99.1133 160.016 98.4483 159.218 97.587C158.42 96.7257 157.806 95.687 157.375 94.471C156.957 93.255 156.748 91.887 156.748 90.367C156.748 88.8597 156.957 87.498 157.375 86.282C157.806 85.0533 158.42 84.0083 159.218 83.147C160.016 82.2857 160.979 81.6207 162.106 81.152C163.246 80.6833 164.526 80.449 165.944 80.449ZM165.944 97.625C167.844 97.625 169.263 96.9917 170.2 95.725C171.138 94.4457 171.606 92.666 171.606 90.386C171.606 88.0933 171.138 86.3073 170.2 85.028C169.263 83.7487 167.844 83.109 165.944 83.109C164.982 83.109 164.139 83.2737 163.417 83.603C162.708 83.9323 162.113 84.4073 161.631 85.028C161.163 85.6487 160.808 86.415 160.567 87.327C160.339 88.2263 160.225 89.246 160.225 90.386C160.225 92.666 160.694 94.4457 161.631 95.725C162.581 96.9917 164.019 97.625 165.944 97.625Z" fill="black"/>
</svg>
