<svg width="355" height="348" viewBox="0 0 355 348" fill="none" xmlns="http://www.w3.org/2000/svg">
<path d="M270.539 321.876C298.532 305.013 321.434 280.488 336.039 251.778C350.789 223.088 356.821 190.348 353.869 158.231C350.988 126.051 338.509 94.5562 318.187 68.4252C314.574 64.1088 308.432 56.577 298.968 47.9429C289.508 39.3637 276.872 29.4493 260.766 21.0854C252.739 16.8949 243.934 12.9774 234.412 9.79095C224.888 6.62574 214.699 4.11029 204.065 2.4922C182.835 -0.776686 159.731 -0.409189 137.32 4.61585C114.905 9.55288 93.3702 19.0484 75.0127 31.7322C56.5843 44.3605 41.4128 60.1265 30.1943 76.4799C24.5647 84.6526 19.8848 92.962 16.0329 101.073C12.2744 109.233 9.36205 117.179 7.0744 124.647C2.67562 139.653 1.02515 152.689 0.353405 162.237C0.261565 164.567 0.0812996 166.881 0.0726917 169.2C-0.583391 190.127 3.31823 213.504 11.7502 234.366C20.0249 255.315 32.6731 273.43 44.9876 286.283C56.3775 298.037 69.7291 308.2 84.0867 316.25C80.9538 314.062 78.0712 311.775 75.3477 309.624C72.7219 307.34 70.1384 305.321 67.9798 303.172C80.7763 313.73 95.562 321.641 101.547 323.858C109.641 327.418 114.817 328.946 117.621 329.621C120.429 330.303 120.893 330.112 119.953 329.385C119.017 328.649 116.657 327.419 113.844 325.906C111.092 324.248 107.769 322.565 105.025 320.642C100.913 318.22 101.917 318.128 102.298 317.736C102.699 317.322 102.396 316.764 96.1905 312.886C105.426 317.96 110.281 320.146 120.208 323.889C120.561 323.812 118.815 323.098 116.115 322.095C113.483 320.928 109.832 319.591 106.52 317.98C104.859 317.186 103.239 316.413 101.797 315.725C100.374 315.001 99.1671 314.288 98.2532 313.761C96.4342 312.687 95.8762 312.197 97.6388 312.789C106.372 317.92 117.057 321.984 127.072 325.14C125.464 324.185 116.903 321.148 109.258 317.648C101.644 314.071 94.9933 310.11 95.9406 310.092C97.2066 310.707 99.4021 311.958 102.026 313.492C104.72 314.888 107.817 316.644 110.943 318.082C117.148 321.08 123.276 323.178 124.415 322.949C124.863 322.864 115.066 319.312 110.34 317.121C125.116 323.408 137.422 325.808 142.137 326.297C144.516 326.514 145.021 326.314 143.192 325.614C141.359 324.94 137.202 323.677 130.421 321.312C135.175 322.805 140.996 324.373 146.97 325.652C149.953 326.305 153.002 326.728 155.93 327.242C158.882 327.606 161.742 327.879 164.378 328.12C164.362 328.114 164.324 328.099 164.301 328.09C161.679 327.755 158.088 327.429 154.595 326.823C151.103 326.21 147.66 325.644 145.291 325.078C151.145 326.318 157.112 327.115 163.082 327.705C162.15 327.444 161.106 327.152 160.012 326.845C157.796 326.559 155.582 326.239 153.364 325.798C151.145 325.367 148.874 325.097 146.61 324.563C148.534 325.016 150.501 325.257 152.455 325.582C154.413 325.879 156.365 326.249 158.35 326.415C155.44 325.742 152.157 324.68 148.547 323.781C134.864 320.446 122.74 314.883 115.94 311.905C88.2899 299.974 64.4097 279.866 48.113 255.035C31.7158 230.249 23.0572 200.832 23.4636 171.522C22.9734 171.403 22.4846 174.551 22.2627 169.653C22.2234 167.725 22.3621 165.845 22.4397 164.003C22.5127 162.158 22.6576 160.355 22.9211 158.584C23.1602 156.817 23.3976 155.07 23.634 153.335C23.978 151.621 24.3186 149.918 24.6594 148.213C24.9665 146.505 25.3714 144.82 25.8199 143.133C26.2397 141.441 26.6605 139.737 27.0877 138.013C28.0992 134.603 28.9489 131.061 30.0969 127.396C29.9606 126.972 29.8228 126.537 29.6848 126.103C33.6811 114.843 39.4787 103.744 46.6011 93.2832C52.7916 83.4133 60.2317 74.3349 68.5672 66.1718C76.8982 58.0037 86.1254 50.7106 96.1337 44.6442C95.4567 44.7094 95.0646 44.6381 97.0301 43.3674C105.34 38.2345 117.757 32.4652 131.315 28.6508C133.294 28.0052 135.271 27.357 137.26 26.8687C138.772 26.3262 139.109 25.9637 139.321 25.7384C145.539 24.2366 151.186 23.4322 156.418 22.8039C190.75 17.8496 227.651 23.9933 259.132 42.2934C274.87 51.3589 289.369 63.1999 301.392 77.5691C313.439 91.8999 323.136 108.634 329.471 126.99C330.96 130.828 332.104 134.776 333.311 138.711C334.306 142.692 335.375 146.665 336.063 150.696C337.575 158.728 338.485 166.836 338.512 174.815C338.612 186.629 337.045 200.115 333.484 213.018C330.049 225.955 324.804 238.282 319.14 248.331C320.166 247.869 319.377 250.68 317.484 254.965C315.535 259.214 312.455 264.924 309.024 270.169C302.28 280.724 294.513 289.639 299.657 286.41C294.069 292.221 286.494 298.921 279.951 303.954C273.372 308.941 267.994 312.426 267.696 313.122C267.233 314.141 266.243 315.368 264.486 317.108C263.601 317.966 262.53 318.965 261.185 320.055C259.819 321.103 258.206 322.278 256.295 323.593C248.61 328.645 235.885 335.975 213.907 341.442C205.305 343.522 194.082 344.726 184.308 344.91C181.864 345.023 179.511 345.001 177.304 344.941C175.099 344.883 173.042 344.912 171.198 344.805C167.509 344.589 164.652 344.459 163.088 344.489C160.764 344.491 160.942 344.702 162.372 345.014C163.805 345.324 166.727 345.669 169.578 346.031C175.316 346.712 181.138 346.971 176.166 347.373C209.477 347.899 242.617 338.844 270.539 321.876Z" fill="#664740"/>
</svg>
