<svg width="75" height="64" viewBox="0 0 75 64" fill="none" xmlns="http://www.w3.org/2000/svg">
<path d="M58.0008 3.67857C57.7439 3.49302 57.3086 3.40831 57.0495 3.71683C47.2161 15.4376 40.001 29.7196 41.9644 44.3537C41.9042 44.2494 46.5522 52.144 39.5031 40.0917C33.9749 30.6397 47.6563 53.7017 41.9644 44.3537C41.9644 44.3537 40.7218 39.4644 40.8257 40.734C45.0333 50.8183 34.0974 34.1596 39.4668 43.6482C41.8791 47.9111 39.4765 40.1273 41.9644 44.3537C31.5042 34.9491 16.008 28.4888 0.75944 32.9843C0.366878 33.1 0.17144 33.5306 0.353365 33.8614C4.17135 40.794 10.4081 46.1787 18.0635 49.0384C25.3893 51.775 35.2349 52.8329 42.3691 47.858C42.3893 47.8443 42.3989 47.8267 42.4159 47.8113C44.8784 51.9306 39.4605 43.1639 42.059 47.1934C42.463 47.8192 43.6449 47.1465 43.2538 46.5035C40.6409 42.1989 45.8483 50.8158 43.2538 46.5035C50.5511 40.7075 57.2608 33.6675 60.7054 25.1625C63.5436 18.1543 64.5925 8.43217 58.0008 3.67857Z" fill="#009640"/>
<path d="M10.7148 36.9872C9.52765 36.618 8.39271 36.2426 7.28735 35.7036C6.93452 35.5316 6.56129 36.0448 6.86185 36.2917C7.82982 37.0867 9.09631 37.6601 10.4134 37.7421C10.8324 37.7683 11.1864 37.1342 10.7148 36.9872Z" fill="#95C23D"/>
<path d="M17.9814 40.0909C16.9614 39.5888 15.7943 39.372 14.6586 39.1591C14.2736 39.0872 14.0081 39.6951 14.3947 39.8209C15.4843 40.1756 16.5336 40.6363 17.6577 40.9026C18.1492 41.0194 18.4027 40.2983 17.9814 40.0909Z" fill="#95C23D"/>
<path d="M25.6121 42.5443C25.1867 42.1296 24.3189 42.2501 23.7334 42.1895C23.0256 42.1159 22.3228 42.0077 21.6275 41.8821C21.237 41.8111 20.9647 42.4297 21.3588 42.5541C21.8748 42.7167 22.3986 42.8507 22.9289 42.9687C22.9663 43.0194 23.0192 43.0623 23.1056 43.0833C23.4664 43.1716 23.8277 43.2596 24.1885 43.3479C24.2832 43.3712 24.3655 43.3344 24.4282 43.2743C24.8238 43.3275 25.2235 43.3204 25.5449 43.1118C25.7616 42.9712 25.7727 42.7007 25.6121 42.5443Z" fill="#95C23D"/>
<path d="M31.0168 44.757C30.3161 44.6287 29.6235 44.4744 28.929 44.3254C28.5047 44.2338 28.2167 44.9147 28.638 45.0541C29.3083 45.2758 29.9887 45.4686 30.6746 45.6524C31.2579 45.8089 32.0651 46.1947 32.6796 45.9294C32.9915 45.7951 33.0568 45.4796 32.8544 45.2566C32.4634 44.8259 31.5895 44.8621 31.0168 44.757Z" fill="#95C23D"/>
<path d="M39.2296 46.0005C38.7837 45.8091 38.1997 45.9122 37.7044 45.8994C37.1221 45.8847 36.5445 45.848 35.9692 45.7892C35.5077 45.7419 35.3286 46.4001 35.7882 46.4875C36.3564 46.5962 36.9303 46.688 37.511 46.7447C38.0034 46.7927 38.6554 46.9325 39.1394 46.7372C39.4653 46.6057 39.564 46.1442 39.2296 46.0005Z" fill="#95C23D"/>
<path d="M18.5792 36.7508C17.2562 36.3008 15.7343 36.1509 14.321 35.9966C13.8149 35.9414 13.6383 36.6362 14.1246 36.7543C15.492 37.0857 16.9518 37.4566 18.3878 37.4892C18.782 37.4982 18.9386 36.8733 18.5792 36.7508Z" fill="#95C23D"/>
<path d="M25.6886 39.2589C24.6908 38.2776 22.893 38.1538 21.4909 38.1548C21.1658 38.1552 21.1195 38.6439 21.4236 38.6953C22.1387 38.8164 22.8374 39.021 23.5053 39.2706C24.1076 39.4961 24.6683 39.8084 25.3089 39.9444C25.7203 40.0325 25.9423 39.5084 25.6886 39.2589Z" fill="#95C23D"/>
<path d="M32.7967 41.6267C32.3722 41.2261 31.6411 41.0967 31.0815 40.9019C30.508 40.7021 29.9309 40.479 29.3278 40.3562C29.0874 40.3072 28.8804 40.6535 29.0837 40.7974C29.5692 41.1411 30.1191 41.4062 30.6522 41.6807C31.1712 41.9485 31.7459 42.383 32.3538 42.4277C32.8134 42.4615 33.1344 41.9461 32.7967 41.6267Z" fill="#95C23D"/>
<path d="M36.2734 42.9436C35.8575 42.8077 35.4425 42.7351 34.9947 42.7185C34.5158 42.7006 34.4549 43.4322 34.8955 43.5125C35.252 43.5779 35.5965 43.6669 35.9216 43.8125C36.2446 43.9572 36.5165 44.188 36.8655 44.277C37.2437 44.3734 37.5592 43.8846 37.3652 43.5949C37.1322 43.2465 36.6732 43.0746 36.2734 42.9436Z" fill="#95C23D"/>
<path d="M14.5106 41.9161C13.4044 41.0426 12.0992 40.4902 11.0444 39.5299C10.7804 39.2891 10.266 39.6993 10.5092 39.9793C11.4475 41.0583 12.6312 42.2698 14.12 42.6211C14.5172 42.7143 14.8106 42.1529 14.5106 41.9161Z" fill="#95C23D"/>
<path d="M21.0335 45.5464C20.4249 45.2527 19.7483 45.115 19.1291 44.8387C18.4671 44.5435 17.8548 44.1633 17.305 43.7112C17.0729 43.5207 16.6418 43.8477 16.8488 44.0941C17.7777 45.2007 19.2253 46.3431 20.8445 46.2735C21.253 46.2565 21.3623 45.7048 21.0335 45.5464Z" fill="#95C23D"/>
<path d="M29.3819 48.3998C28.6878 48.0164 27.8658 47.9105 27.0905 47.707C26.2739 47.4926 25.4777 47.1775 24.6398 47.032C24.3866 46.9878 24.1657 47.3417 24.3825 47.497C25.0767 47.9951 25.9194 48.3036 26.7319 48.6053C27.5191 48.8971 28.3016 49.2099 29.1802 49.1797C29.6345 49.1642 29.7106 48.5812 29.3819 48.3998Z" fill="#95C23D"/>
<path d="M35.9562 47.907C35.3303 47.9199 34.6927 48.1099 34.0637 48.1671C33.4284 48.225 32.8081 48.1973 32.1774 48.1863C31.7151 48.1777 31.6862 48.8392 32.084 48.932C33.2915 49.2123 34.992 49.2469 36.1783 48.6585C36.6042 48.4475 36.3337 47.8997 35.9562 47.907Z" fill="#95C23D"/>
<path d="M47.1554 37.018C46.5897 38.4072 45.9785 39.5403 44.8153 40.5828C44.4792 40.8843 44.9244 41.3542 45.2884 41.1201C46.6708 40.2307 47.7815 38.7123 47.9232 37.1466C47.9581 36.7632 47.3074 36.6442 47.1554 37.018Z" fill="#95C23D"/>
<path d="M50.0413 29.5969C49.1744 31.0141 48.541 32.5105 47.9121 34.0234C47.7488 34.417 48.287 34.6911 48.5107 34.2958C49.3412 32.8272 50.1436 31.3678 50.7295 29.8063C50.8818 29.3969 50.2533 29.2502 50.0413 29.5969Z" fill="#95C23D"/>
<path d="M53.118 22.5682C52.8262 23.1974 52.7033 23.872 52.459 24.5162C52.1842 25.2407 51.7782 25.9022 51.4568 26.6076C51.3248 26.8975 51.662 27.1144 51.9032 26.8898C52.9476 25.9168 53.9316 24.0546 53.8704 22.6942C53.854 22.3345 53.2959 22.1853 53.118 22.5682Z" fill="#95C23D"/>
<path d="M54.8843 17.0612C54.6626 18.1153 54.4506 19.0922 53.9693 20.0924C53.8223 20.3977 54.1919 20.6318 54.4428 20.3918C55.3739 19.5014 55.9125 18.1839 55.72 16.9893C55.6539 16.5778 54.9669 16.6671 54.8843 17.0612Z" fill="#95C23D"/>
<path d="M56.3849 9.63545C56.0615 10.2185 56.2344 11.0297 56.1551 11.6662C56.0603 12.4226 55.8987 13.1918 55.6777 13.9327C55.6065 14.1714 55.9362 14.2375 56.0634 14.05C56.5438 13.3408 56.9003 12.6134 57.1084 11.8037C57.276 11.1501 57.5551 10.1248 57.1693 9.56286C56.9879 9.29976 56.5549 9.32921 56.3849 9.63545Z" fill="#95C23D"/>
<path d="M45.8468 29.2581C45.0527 30.7594 44.8656 32.7075 44.9219 34.3095C44.9324 34.6132 45.438 34.6617 45.495 34.3322C45.6343 33.5227 45.7798 32.7112 45.9696 31.9071C46.1605 31.0988 46.4748 30.3077 46.623 29.4944C46.7027 29.055 46.0826 28.8125 45.8468 29.2581Z" fill="#95C23D"/>
<path d="M48.9776 20.5947C48.5446 21.8026 48.2061 23.011 47.6709 24.1935C47.5123 24.5431 48.0326 24.7885 48.1998 24.4347C48.7625 23.242 49.329 21.9662 49.5635 20.6932C49.6329 20.3161 49.1069 20.2328 48.9776 20.5947Z" fill="#95C23D"/>
<path d="M52.7629 12.3682C52.093 13.0697 51.7837 14.0625 51.3831 14.9124C50.9312 15.8713 50.4719 16.8295 50.0761 17.8083C49.9169 18.2013 50.4326 18.4629 50.6691 18.078C51.2277 17.1701 51.7278 16.2327 52.2335 15.2993C52.6813 14.4731 53.3208 13.6022 53.47 12.6911C53.533 12.3042 53.0744 12.0417 52.7629 12.3682Z" fill="#95C23D"/>
<path d="M55.6719 6.80559C55.2651 7.14669 55.0727 7.73639 54.7568 8.16027C54.4269 8.60227 54.0447 8.9989 53.6742 9.40884C53.4031 9.70989 53.761 10.1224 54.1093 9.90271C54.6665 9.55151 55.1577 9.08204 55.5698 8.5784C55.9423 8.12261 56.3885 7.61076 56.4257 7.0356C56.4524 6.62082 55.938 6.58215 55.6719 6.80559Z" fill="#95C23D"/>
<path d="M53.986 28.245C53.2177 30.1368 52.6172 32.0301 51.7037 33.8806C51.5052 34.2831 52.0518 34.5128 52.3023 34.1529C53.4928 32.443 54.5011 30.3727 54.701 28.3648C54.737 28.0065 54.1269 27.8986 53.986 28.245Z" fill="#95C23D"/>
<path d="M56.6984 18.6428C56.3072 19.3656 56.2163 20.2334 56.0393 21.0105C55.8449 21.8648 55.6668 22.7162 55.527 23.5762C55.4673 23.9449 55.9732 24.0301 56.1018 23.6729C56.4017 22.8397 56.6611 22.0015 56.9083 21.156C57.1322 20.3881 57.4807 19.5609 57.4817 18.7744C57.4825 18.3723 56.8975 18.2739 56.6984 18.6428Z" fill="#95C23D"/>
<path d="M57.9162 12.7773C57.8891 13.3306 58.0041 13.8703 57.9858 14.4255C57.9673 15.0073 57.8738 15.5891 57.7394 16.1641C57.6656 16.4795 58.1471 16.6556 58.2971 16.3338C58.8119 15.2298 59.2375 13.7099 58.8593 12.5788C58.6943 12.0848 57.9416 12.2508 57.9162 12.7773Z" fill="#95C23D"/>
</svg>
