<svg width="71" height="66" viewBox="0 0 71 66" fill="none" xmlns="http://www.w3.org/2000/svg">
<path d="M63.7987 30.006C59.4075 28.406 54.187 28.7512 49.383 29.36C53.3244 27.206 57.2386 24.5674 59.5677 20.944C61.7899 17.4884 62.1544 12.665 59.1808 9.46266C55.798 5.82042 50.21 6.91714 46.5974 9.61444C43.5991 11.8535 41.2324 14.9172 39.3657 18.188C40.7911 10.2809 40.7881 -0.972766 31.4703 0.489152C27.0399 1.18416 22.8059 4.86292 21.8767 9.00902C21.0522 12.6883 21.7383 16.6946 23.1172 20.3569C20.4235 17.3086 17.2184 14.4858 13.4663 13.1312C8.93246 11.4941 3.80323 13.2179 1.74247 17.4644C-0.273559 21.6196 1.45593 26.2091 4.9397 29.1084C6.98354 30.81 9.37556 31.8451 11.9139 32.5076C9.23471 32.8305 6.66193 33.5934 4.41679 35.1695C0.949345 37.6032 -1.13681 42.1224 0.802448 46.0294C2.53557 49.521 6.94424 51.1182 10.8228 50.9596C15.1577 50.7827 18.8699 48.559 22.2328 46.0768C20.1182 49.6705 18.6729 53.7271 19.7314 57.8127C20.7082 61.5827 23.8124 65.0492 28.0814 65.4355C32.7361 65.8572 37.2246 62.9967 39.4383 59.262C40.8788 56.8312 41.2705 54.0991 40.7863 51.48C42.3943 53.5456 44.3487 55.3579 46.6379 56.8215C49.7747 58.8272 54.8157 61.1154 58.126 58.1573C61.0373 55.5553 59.1391 50.9778 57.3002 48.3148C56.2623 46.8123 54.9946 45.4942 53.6079 44.2862C56.2042 45.3048 58.9457 45.8702 61.8171 45.4737C65.7415 44.9316 69.4556 42.2691 69.9991 38.3729C70.5377 34.5087 67.3979 31.3173 63.7987 30.006Z" fill="#D04E3B"/>
<path d="M45.7882 33.844C48.0738 32.2908 47.4385 28.7216 44.4873 28.1007C46.1708 25.0217 42.3564 21.7583 39.378 23.6123C38.6211 20.9401 35.0352 19.9586 33.6424 21.9757C32.2388 20.6108 29.6775 21.1341 29.1159 23.1495C27.9698 22.3067 26.4349 22.0322 25.1842 23.1341C24.1559 24.0397 24.0181 25.4331 24.6063 26.4922C21.9513 27.0034 20.8239 30.0391 22.7825 31.9376C19.6626 33.3544 19.9552 37.723 23.3501 38.5339C21.3298 41.3179 24.8227 44.9682 27.8664 43.3539C28.2653 45.7607 31.5152 46.6777 33.2701 44.8597C34.9222 47.9365 39.939 47.0709 40.1475 43.8589C42.6067 44.9145 45.3209 42.7097 44.8107 40.3154C46.0548 40.288 47.2499 39.371 47.6174 37.9878C48.0805 36.2451 47.2245 34.6771 45.7882 33.844Z" fill="#F9CBC6"/>
<path d="M27.8021 39.2021C27.3475 38.9094 26.9274 38.4769 26.856 37.9439C26.827 37.726 26.503 37.7151 26.4873 37.9439C26.4383 38.6669 26.8609 39.3962 27.6383 39.5673C27.8776 39.6204 27.9998 39.3294 27.8021 39.2021Z" fill="#333333"/>
<path d="M32.4273 41.0741C31.7297 40.8453 30.9589 40.8248 30.2281 40.7632C29.9373 40.7386 29.869 41.1974 30.1586 41.2476C30.8803 41.3726 31.6293 41.5472 32.3656 41.5027C32.628 41.4861 32.6769 41.1557 32.4273 41.0741Z" fill="#333333"/>
<path d="M37.6014 39.9338C37.0392 40.3704 36.4317 40.6825 35.6906 40.7127C35.4089 40.7241 35.4131 41.103 35.6906 41.123C36.5375 41.1841 37.4328 40.9301 37.9865 40.2973C38.2108 40.0411 37.8729 39.7233 37.6014 39.9338Z" fill="#333333"/>
<path d="M41.3539 35.8575C41.2058 36.5365 40.912 37.0963 40.4253 37.611C40.2778 37.7668 40.4677 38.035 40.672 37.9129C41.3853 37.4849 41.8248 36.706 41.8079 35.9157C41.8024 35.6783 41.4083 35.6087 41.3539 35.8575Z" fill="#333333"/>
<path d="M42.3841 30.1922C42.3479 29.9024 41.9416 29.9018 41.906 30.1922C41.8008 31.0396 41.8885 31.9269 41.9416 32.776C41.9574 33.0231 42.3327 33.0236 42.3485 32.776C42.4017 31.9269 42.4893 31.0396 42.3841 30.1922Z" fill="#333333"/>
<path d="M40.6443 27.7255C40.4128 26.9255 39.7436 26.1483 38.8248 26.0599C38.5564 26.0342 38.4917 26.3977 38.6942 26.5147C39.2969 26.8627 39.8482 27.2085 40.0876 27.871C40.2067 28.1997 40.7435 28.0673 40.6443 27.7255Z" fill="#333333"/>
<path d="M35.5319 25.2748C34.8845 25.0768 33.9512 24.7601 33.2747 24.9604C33.0293 25.0334 33.013 25.3804 33.2747 25.446C33.5987 25.527 33.9391 25.4779 34.2715 25.4785C34.6669 25.4791 35.0538 25.5122 35.4443 25.575C35.6504 25.6086 35.7369 25.3376 35.5319 25.2748Z" fill="#333333"/>
<path d="M30.1452 26.2443C29.285 26.3704 28.2755 26.8954 28.0512 27.7473C27.9896 27.9807 28.2973 28.1599 28.4835 27.9847C29.0523 27.4477 29.4682 26.9011 30.2583 26.6301C30.5176 26.541 30.413 26.2055 30.1452 26.2443Z" fill="#333333"/>
<path d="M26.4784 30.1621C25.8352 30.6345 25.3583 31.4345 25.4628 32.2214C25.5106 32.5798 26.0123 32.5832 26.0571 32.2214C26.1399 31.5527 26.3152 30.9849 26.8248 30.489C27.0503 30.2693 26.7202 29.9846 26.4784 30.1621Z" fill="#333333"/>
<path d="M27.6383 36.1351C27.1578 35.7517 26.7473 35.3152 26.5393 34.7457C26.4493 34.4986 26.0485 34.5968 26.1204 34.8547C26.306 35.5211 26.714 36.1317 27.3584 36.4775C27.5785 36.5962 27.8451 36.3 27.6383 36.1351Z" fill="#333333"/>
<path d="M31.3904 38.7994C30.8143 38.7389 30.3675 38.5683 29.9196 38.2208C29.7715 38.1061 29.5134 38.2533 29.6343 38.4285C30.003 38.9614 30.7151 39.3095 31.3897 39.2513C31.6999 39.2245 31.6956 38.8313 31.3904 38.7994Z" fill="#333333"/>
<path d="M37.0889 37.7876C36.549 38.187 36.002 38.5825 35.392 38.8832C35.1937 38.9808 35.331 39.3049 35.5468 39.2295C36.2601 38.9802 36.9136 38.6458 37.4352 38.1146C37.6553 37.8897 37.3313 37.6079 37.0889 37.7876Z" fill="#333333"/>
<path d="M39.5486 33.4479C39.3612 34.1504 39.1907 34.7935 38.8262 35.4394C38.7138 35.6391 39.0142 35.8913 39.1762 35.6945C39.6816 35.0782 40.0661 34.3079 40.0727 33.5153C40.0745 33.234 39.6224 33.1701 39.5486 33.4479Z" fill="#333333"/>
<path d="M37.7397 29.0166C37.513 28.9287 37.3788 29.2334 37.5179 29.3767C37.7294 29.5952 37.9791 29.7636 38.1647 30.0078C38.3503 30.252 38.4778 30.5179 38.5564 30.8089C38.6223 31.0531 38.9904 30.9459 38.9487 30.7068C38.8345 30.0494 38.4282 29.2825 37.7397 29.0166Z" fill="#333333"/>
<path d="M34.8301 28.1512C33.8689 27.7255 32.3262 27.7803 31.8142 28.8165C31.7284 28.9905 31.9097 29.204 32.108 29.0933C32.9386 28.6288 33.6785 28.1951 34.6753 28.497C34.8887 28.562 35.0381 28.243 34.8301 28.1512Z" fill="#333333"/>
<path d="M29.9159 30.7588C29.0484 31.3882 28.5872 32.5226 29.1869 33.4653C29.3435 33.7112 29.76 33.5509 29.6796 33.2695C29.4571 32.4912 29.5169 31.6524 30.1722 31.0727C30.3433 30.9215 30.1094 30.6185 29.9159 30.7588Z" fill="#333333"/>
<path d="M32.2907 36.0971C31.974 35.923 31.5913 35.8762 31.2583 35.7313C30.8956 35.5732 30.574 35.3701 30.3098 35.0865C30.2022 34.9707 30.0003 35.1202 30.0855 35.2503C30.5032 35.8894 31.3465 36.7093 32.2345 36.5056C32.434 36.4594 32.463 36.1918 32.2907 36.0971Z" fill="#333333"/>
<path d="M36.1808 34.4382C35.592 34.8256 35.1694 35.4738 34.7366 36.0045C34.5909 36.1837 34.8944 36.3788 35.0564 36.2373C35.5611 35.7968 36.1977 35.3494 36.5423 34.7788C36.6656 34.5745 36.4062 34.2898 36.1808 34.4382Z" fill="#333333"/>
<path d="M36.3133 32.3534C36.0969 31.8427 35.6471 31.0992 35.0064 31.0051C34.7912 30.9731 34.5119 31.1917 34.6805 31.4051C34.8438 31.6122 35.0831 31.7469 35.2802 31.9249C35.4888 32.1132 35.6683 32.3158 35.8152 32.5509C35.9663 32.7934 36.4312 32.6325 36.3133 32.3534Z" fill="#333333"/>
<path d="M34.7381 32.7674C34.5483 32.5808 34.2757 32.817 34.3796 33.0287C34.5961 33.4698 34.4746 34.0244 34.046 34.308C33.8948 34.4079 33.9825 34.6447 34.1753 34.5974C34.9968 34.3959 35.3275 33.3471 34.7381 32.7674Z" fill="#333333"/>
<path d="M32.7308 31.7756C31.6475 31.9451 31.2842 33.7117 32.4593 34.0067C32.7138 34.0706 32.9297 33.7551 32.7241 33.5776C32.2871 33.1993 32.1093 32.3063 32.8154 32.066C33.0107 31.9999 32.9327 31.7442 32.7308 31.7756Z" fill="#333333"/>
</svg>
