<svg width="35" height="33" viewBox="0 0 35 33" fill="none" xmlns="http://www.w3.org/2000/svg">
<path d="M15.893 14.76C15.893 14.76 15.9415 10.6455 14.4356 6.94271C12.9298 3.23997 14.0471 0.359863 17.0583 0.359863C20.0699 0.359863 21.1868 3.23997 19.6814 6.94271C18.176 10.6455 18.224 14.76 18.224 14.76H15.893Z" fill="#F9AF70"/>
<path d="M18.2247 17.96C18.2247 17.96 18.1763 22.074 19.6821 25.7772C21.1879 29.4799 20.0707 32.3601 17.059 32.3601C14.0478 32.3601 12.9305 29.4799 14.4364 25.7772C15.9422 22.0745 15.8937 17.96 15.8937 17.96H18.2247Z" fill="#F9AF70"/>
<path d="M15.0339 16.0045C15.0339 16.0045 11.9769 13.0629 8.13051 11.4468C4.28363 9.83037 2.90991 7.05051 5.03929 5.0464C7.16868 3.04228 10.1223 4.33519 11.8398 7.95576C13.5573 11.5759 16.6823 14.453 16.6823 14.453L15.0339 16.0045Z" fill="#F9AF70"/>
<path d="M19.0857 16.7153C19.0857 16.7153 22.1426 19.657 25.989 21.273C29.8354 22.8894 31.2096 25.6693 29.0802 27.6734C26.9508 29.6775 23.9972 28.3846 22.2797 24.7641C20.5622 21.1435 17.4372 18.2668 17.4372 18.2668L19.0857 16.7153Z" fill="#F9AF70"/>
<path d="M15.3598 17.4567C15.3598 17.4567 10.9881 17.4111 7.0539 18.8283C3.1197 20.2456 0.0595703 19.194 0.0595703 16.3595C0.0595703 13.5254 3.1197 12.4739 7.0539 13.8912C10.9881 15.3084 15.3598 15.2624 15.3598 15.2624V17.4567Z" fill="#F9AF70"/>
<path d="M18.7595 15.2628C18.7595 15.2628 23.1307 15.3084 27.0654 13.8912C30.9996 12.4739 34.0597 13.5254 34.0597 16.3595C34.0597 19.1936 30.9996 20.2451 27.0654 18.8283C23.1312 17.411 18.7595 17.4566 18.7595 17.4566V15.2628Z" fill="#F9AF70"/>
<path d="M16.6823 18.2668C16.6823 18.2668 13.5568 21.1435 11.8398 24.7641C10.1223 28.3842 7.16868 29.6775 5.03929 27.6734C2.90991 25.6693 4.28363 22.8894 8.13051 21.273C11.9774 19.6565 15.0339 16.7153 15.0339 16.7153L16.6823 18.2668Z" fill="#F9AF70"/>
<path d="M17.4372 14.453C17.4372 14.453 20.5627 11.5759 22.2797 7.95576C23.9968 4.33519 26.9509 3.04228 29.0802 5.0464C31.2096 7.05051 29.8359 9.83037 25.989 11.4468C22.1421 13.0633 19.0857 16.0045 19.0857 16.0045L17.4372 14.453Z" fill="#F9AF70"/>
<path d="M17.059 18.4924C18.3108 18.4924 19.3255 17.5374 19.3255 16.3593C19.3255 15.1811 18.3108 14.2261 17.059 14.2261C15.8072 14.2261 14.7925 15.1811 14.7925 16.3593C14.7925 17.5374 15.8072 18.4924 17.059 18.4924Z" fill="#425266"/>
</svg>
