<svg width="87" height="84" viewBox="0 0 87 84" fill="none" xmlns="http://www.w3.org/2000/svg">
<path d="M85.9655 32.8412C85.5589 31.1323 84.196 30.6172 82.5832 30.5732C78.9726 30.4748 75.1004 31.2539 71.5984 32.0382C65.0244 33.5096 58.71 35.8553 52.4756 38.375C56.705 35.2309 60.6318 31.7069 64.1735 27.7869C66.3776 25.3474 68.7554 22.7086 70.4612 19.886C71.3629 18.3939 71.9926 16.6817 70.3031 15.4659C68.477 14.1516 66.0276 15.438 64.3237 16.3031C61.5413 17.7164 58.9937 19.5593 56.675 21.637C52.9336 24.9896 49.7881 28.9173 46.8404 32.9758C50.8909 22.521 57.9924 1.41516 50.8154 1.51739C48.8032 1.54587 47.4246 4.63178 46.6322 6.02688C45.0468 8.81709 43.8842 11.8383 43.071 14.9359C42.0698 18.7472 41.5682 22.6497 41.3392 26.5749C40.794 22.3585 40.1415 18.1577 39.2398 14.0015C38.5567 10.8522 37.8157 7.61289 36.3324 4.72368C35.6819 3.4567 34.06 0.0944664 32.1408 0.376593C30.1553 0.668426 29.8515 4.51272 29.6622 5.84505C29.2198 8.96268 29.4761 12.1198 30.1189 15.1908C30.7506 18.2088 31.7707 21.1013 32.9294 23.949C31.7388 21.9716 30.4722 20.0401 29.0734 18.1939C27.1979 15.7189 25.1141 13.4017 22.7512 11.3763C21.4475 10.2588 19.5563 8.49033 17.762 9.71655C14.2496 12.1179 18.7171 20.2497 20.1451 22.7092C22.7161 27.1372 26.2285 30.8385 30.005 34.2635C25.5916 31.8661 20.9914 29.8206 16.2228 28.1965C13.5971 27.3022 2.41449 22.6814 1.15239 27.5779C-0.0934407 32.4102 7.83176 36.2306 11.121 37.6082C17.4855 40.2749 24.2313 41.7677 31.098 42.2057C25.1642 44.9034 18.7684 46.3451 12.6765 48.6701C9.84461 49.7507 7.07125 51.0267 4.55941 52.7298C3.01757 53.7755 -0.0915024 55.5265 0.0652842 57.6683C0.441962 62.8126 11.5706 60.1389 14.2015 59.266C20.7423 57.097 26.8225 53.3277 32.7602 49.7196C28.8145 54.1275 25.0159 58.7166 22.2087 63.9243C20.5894 66.9281 19.3136 70.1356 18.6273 73.481C18.2461 75.3394 17.6156 78.1626 19.2076 79.6813C22.7551 83.0636 29.616 75.9315 31.4096 73.4551C34.1622 69.6549 35.9252 65.0942 37.3604 60.4592C37.0494 63.8111 36.9758 67.1843 37.1697 70.5633C37.3219 73.2144 37.0539 82.9413 41.064 83.3464C46.7493 83.9197 45.9576 66.0882 45.0494 55.9219C47.0408 59.9247 49.4973 63.6797 52.4483 67.0866C54.6388 69.616 57.0732 71.9377 59.7099 74.0032C61.1672 75.1447 63.1996 76.9558 65.2495 76.4356C70.2036 75.1783 65.3451 67.1176 63.7337 65.1285C60.9336 61.6718 57.6789 58.5315 54.2295 55.6333C57.8584 57.35 61.6753 58.6668 65.6275 59.4892C69.0963 60.2107 78.7279 62.755 80.6848 58.2294C82.8714 53.1731 73.6906 50.115 70.4039 49.1657C64.3914 47.4289 58.0959 47.1177 51.9363 46.0986C58.7542 45.1254 65.5657 44.0085 72.1611 41.998C75.5955 40.9511 79.0578 39.7015 82.241 38.0269C84.1647 37.0181 86.5666 35.3706 85.9655 32.8412Z" fill="#EEB609"/>
<path d="M48.3144 39.2223C51.4044 36.45 55.0874 32.4204 53.5367 29.003C53.3664 28.6278 52.8558 28.2821 52.4309 28.5973C50.0925 30.3323 48.0199 32.2631 46.1798 34.4113C46.5839 32.7985 46.8642 31.1594 46.995 29.4862C47.1252 27.8143 47.5922 25.4967 45.7272 24.6505C45.3692 24.4879 44.9152 24.569 44.7147 24.9274C43.2996 27.4638 42.2428 30.0804 41.5215 32.8177C40.8686 30.3018 39.7847 27.9665 37.537 26.2705C37.0256 25.8852 36.3284 26.1588 36.2917 26.7957C36.1945 28.477 36.3138 30.1036 36.6224 31.6872C35.6924 30.6505 34.6243 29.7249 33.3251 28.9721C32.9516 28.7551 32.5484 28.9478 32.3166 29.2483C30.9085 31.0755 31.9064 33.4377 33.4065 35.4788C32.3395 34.9225 31.2249 34.4383 30.0579 34.0263C28.6783 33.5387 25.6222 32.1576 24.5577 33.8903C22.7478 36.8357 29.6942 39.4197 33.6918 40.643C30.6646 41.6265 27.8737 42.9668 25.9699 45.6165C25.7366 45.9409 25.9449 46.3808 26.251 46.5683C29.1267 48.3263 32.5626 46.8148 35.5623 45.1385C33.2033 48.3205 30.5205 52.8825 32.9843 54.0915C35.315 55.2353 37.8268 50.7446 39.4634 47.088C39.4453 49.0779 39.5485 51.0653 39.8031 53.0515C39.9842 54.4641 40.1284 55.9284 41.7803 56.2336C42.1291 56.2981 42.6204 56.1188 42.67 55.7251C42.9566 53.4346 43.1993 51.1413 43.4051 48.8442C44.3156 51.577 45.5822 54.1262 47.8185 56.2251C48.1481 56.5342 48.7543 56.4626 48.9709 56.0586C50.0947 53.9566 49.1011 51.1356 47.7127 48.5669C49.8206 50.0996 52.2067 51.1334 53.7532 49.7878C54.4385 49.1917 54.3645 48.3677 53.8835 47.6773C53.1715 46.6557 51.4861 45.8372 50.4703 45.0955C49.6722 44.5129 48.8742 43.9303 48.0767 43.3477C49.4701 43.5148 50.8747 43.5287 52.2333 43.1521C53.455 42.8143 55.7492 41.8359 55.904 40.4044C56.1716 37.9218 51.6059 38.4989 48.3144 39.2223Z" fill="#C37B15"/>
<path d="M48.5797 41.1462C47.8267 40.9339 46.9124 40.5763 45.9858 40.3261C47.1088 39.5035 48.0705 38.5043 48.884 37.288C49.1805 36.8448 48.6818 36.1718 48.1174 36.3636C46.9801 36.7495 45.9773 37.2422 45.0715 37.8651C45.3401 37.0143 45.5293 36.1435 45.5898 35.2191C45.6256 34.6697 44.8205 34.3881 44.4265 34.7722C43.6481 35.5296 43.0186 36.334 42.5218 37.1994C42.356 36.1592 42.0068 35.1859 41.2486 34.534C40.8962 34.2313 40.2076 34.3223 40.1029 34.8144C39.9806 35.3891 39.9162 35.9451 39.9013 36.4896C39.6854 36.2659 39.4584 36.0482 39.2042 35.842C38.7575 35.4789 38.0415 35.7195 38.0266 36.2942C38.0019 37.2084 38.1319 38.0406 38.405 38.8227C37.6325 38.2631 36.7644 37.8736 35.7246 37.6299C35.2707 37.5238 34.7323 38.0297 35.0574 38.435C35.6953 39.2279 36.3989 39.8455 37.2196 40.3321C36.04 40.63 35.0113 41.1347 34.1679 42.1593C33.8128 42.5904 34.4007 43.226 34.9196 43.0662C35.8176 42.7888 36.7163 42.512 37.6143 42.2346C37.1643 43.0348 36.7312 43.8423 36.3326 44.6703C36.0595 45.2371 36.6175 45.7997 37.2456 45.5169C38.3205 45.0333 38.788 44.1161 39.3739 43.2628C39.4831 44.5503 39.6587 45.8245 39.9071 47.1053C40.0287 47.7336 41.0269 47.6577 41.1979 47.1053C41.4359 46.3376 41.54 45.5886 41.5588 44.8451C42.3411 46.0397 43.2768 47.1463 44.3803 48.1768C44.8179 48.5851 45.4786 48.254 45.5267 47.7367C45.61 46.8412 45.2464 45.9161 44.7126 45.014C44.935 45.1997 45.2367 45.2076 45.4968 45.0924C46.7414 44.5412 46.0385 43.5728 44.985 42.702C46.1601 42.781 47.3448 42.664 48.581 42.3504C49.2319 42.1834 49.2066 41.3229 48.5797 41.1462Z" fill="#333333"/>
</svg>
